<svg width="346" height="306" viewBox="0 0 346 306" fill="none" xmlns="http://www.w3.org/2000/svg">
<g clip-path="url(#clip0)">
<g style="mix-blend-mode:multiply">
<path d="M36.8082 178.511C36.9904 173.214 39.6332 168.317 43.7152 165.716C43.9261 165.582 44.1454 165.442 44.367 165.325C52.5428 160.756 60.7146 155.716 68.6249 150.843C82.6698 142.18 97.2062 133.227 112.675 126.278C117.864 123.944 123.307 125.528 126.208 130.212C129.19 135.024 129.065 142.644 123.683 147.057C117.839 151.86 111.725 156.371 105.562 160.712C114.94 159.742 123.968 158.578 133.098 156.047C146.527 152.317 159.759 146.342 172.418 138.277C176.492 135.682 180.574 132.82 184.54 129.796C213.001 108.047 231.509 72.0688 232.848 35.9057C232.974 32.4935 234.651 29.5045 237.468 27.7099C240.588 25.7219 244.67 25.5404 247.855 27.2461C250.931 28.8912 252.746 31.9443 252.827 35.6273C253.733 77.2132 236.517 116.614 204.328 146.582C197.921 152.55 190.684 158.108 182.824 163.116C172.054 169.977 159.682 176.056 146.049 181.196C136.3 184.858 119.534 190.311 101.947 192.112C107.205 196.327 111.79 201.587 113.316 209.437C114.438 215.255 112.125 221.116 107.554 224.028C105.614 225.264 103.403 225.925 100.983 225.997C89.9876 226.326 83.1235 220.763 76.4889 215.374C75.272 214.394 74.0251 213.386 72.72 212.38C67.3599 208.265 61.6494 204.327 56.1246 200.531C51.6064 197.422 46.9293 194.212 42.4079 190.856C38.6729 188.101 36.6306 183.592 36.8082 178.511Z" fill="#F5F6F6"/>
</g>
<path d="M37.0078 186.399C37.19 181.102 39.8358 176.191 43.9178 173.59C44.1287 173.456 44.3533 173.325 44.5749 173.207C52.7508 168.639 60.9226 163.599 68.8245 158.731C82.8778 150.063 97.4142 141.11 112.874 134.166C118.072 131.827 123.515 133.411 126.416 138.095C129.398 142.906 129.268 150.519 123.891 154.94C118.041 159.734 111.933 164.254 105.77 168.595C115.148 167.624 124.176 166.461 133.306 163.929C146.727 160.205 159.958 154.23 172.626 146.16C176.7 143.565 180.773 140.709 184.748 137.679C213.209 115.93 231.717 79.9516 233.048 43.7939C233.174 40.3816 234.859 37.3873 237.667 35.5981C240.788 33.6101 244.87 33.4285 248.055 35.1342C251.139 36.774 252.954 39.8271 253.027 43.5154C253.941 85.096 236.717 124.502 204.536 154.465C198.123 160.424 190.884 165.996 183.032 170.999C172.262 177.86 159.882 183.944 146.252 189.071C136.499 192.746 119.728 198.19 102.155 199.995C107.408 204.201 111.998 209.47 113.51 217.316C114.641 223.129 112.333 228.998 107.762 231.911C105.822 233.146 103.603 233.813 101.191 233.88C90.1902 234.2 83.3261 228.637 76.6884 223.262C75.4799 222.277 74.2331 221.269 72.928 220.263C67.5625 216.14 61.849 212.215 56.3326 208.414C51.8059 205.31 47.132 202.086 42.6075 198.744C38.8756 195.975 36.8301 191.48 37.0078 186.399Z" fill="white"/>
<path d="M47.1612 177.844C69.8953 165.139 91.2353 149.706 115.059 139.011C122.405 135.707 125.702 146.577 120.515 150.831C109.375 159.978 97.3549 168.004 85.4073 176.125C101.906 173.938 118.252 173.614 134.72 169.052C154.176 163.653 171.992 154.116 187.969 141.898C217.911 119.029 236.982 81.4231 238.364 43.9876C238.582 38.0389 247.578 37.5128 247.715 43.627C248.617 84.7412 230.814 122.737 200.908 150.575C184.682 165.679 165.008 176.339 144.377 184.1C127.118 190.601 105.188 196.249 85.9139 195.141C86.3075 195.424 86.7233 195.704 87.1169 195.987C95.9371 202.201 106.122 207.096 108.296 218.326C109.251 223.231 106.57 228.402 101.029 228.564C90.2535 228.884 84.432 222.407 76.164 216.055C66.3016 208.465 55.7641 201.863 45.7698 194.476C40.4206 190.509 41.5869 180.968 47.1612 177.844Z" fill="#FB359B"/>
<g filter="url(#filter0_d)">
<path d="M123.236 170.062C121.613 170.427 120.065 170.398 118.592 169.975C117.135 169.549 115.889 168.787 114.855 167.692C113.834 166.577 113.146 165.231 112.791 163.654C112.436 162.078 112.483 160.575 112.932 159.145C113.394 157.697 114.199 156.466 115.349 155.453C116.498 154.44 117.885 153.751 119.508 153.385C120.726 153.111 121.895 153.061 123.017 153.235C124.138 153.409 125.146 153.806 126.04 154.425L125.187 155.773C123.615 154.765 121.854 154.481 119.903 154.92C118.607 155.212 117.495 155.773 116.567 156.605C115.639 157.437 114.987 158.437 114.61 159.604C114.249 160.768 114.212 161.99 114.5 163.27C114.788 164.55 115.345 165.638 116.17 166.535C117.01 167.428 118.028 168.052 119.223 168.406C120.418 168.761 121.663 168.792 122.959 168.5C124.926 168.058 126.394 167.039 127.363 165.443L128.711 166.296C128.169 167.238 127.422 168.037 126.471 168.694C125.532 169.332 124.454 169.788 123.236 170.062Z" fill="black"/>
<path d="M118.592 169.975L117.187 174.774C117.195 174.776 117.204 174.779 117.212 174.781L118.592 169.975ZM114.855 167.692L111.169 171.07C111.186 171.088 111.202 171.105 111.219 171.123L114.855 167.692ZM112.932 159.145L108.168 157.628C108.166 157.634 108.164 157.641 108.162 157.647L112.932 159.145ZM115.349 155.453L112.043 151.702L112.043 151.702L115.349 155.453ZM123.017 153.235L122.25 158.176L122.25 158.176L123.017 153.235ZM126.04 154.425L130.265 157.098C131.698 154.833 131.09 151.84 128.886 150.314L126.04 154.425ZM125.187 155.773L122.488 159.982C123.609 160.701 124.97 160.942 126.27 160.654C127.57 160.366 128.701 159.571 129.412 158.446L125.187 155.773ZM116.567 156.605L113.23 152.883L113.23 152.883L116.567 156.605ZM114.61 159.604L109.852 158.068C109.846 158.086 109.841 158.104 109.835 158.122L114.61 159.604ZM116.17 166.535L112.49 169.92C112.503 169.934 112.515 169.948 112.528 169.962L116.17 166.535ZM119.223 168.406L117.802 173.2L117.802 173.2L119.223 168.406ZM127.363 165.443L130.036 161.218C128.902 160.5 127.527 160.269 126.221 160.575C124.915 160.882 123.786 161.7 123.09 162.847L127.363 165.443ZM128.711 166.296L133.044 168.791C134.382 166.468 133.649 163.503 131.384 162.07L128.711 166.296ZM126.471 168.694L129.28 172.83C129.291 172.823 129.302 172.816 129.312 172.808L126.471 168.694ZM122.139 165.184C121.262 165.381 120.57 165.341 119.972 165.169L117.212 174.781C119.56 175.455 121.964 175.473 124.334 174.94L122.139 165.184ZM119.996 165.176C119.385 164.997 118.912 164.705 118.492 164.261L111.219 171.123C112.867 172.87 114.885 174.1 117.187 174.774L119.996 165.176ZM118.542 164.314C118.15 163.886 117.846 163.343 117.669 162.557L107.913 164.752C108.445 167.119 109.518 169.268 111.169 171.07L118.542 164.314ZM117.669 162.557C117.492 161.77 117.538 161.167 117.702 160.644L108.162 157.647C107.428 159.983 107.38 162.385 107.913 164.752L117.669 162.557ZM117.697 160.662C117.881 160.084 118.179 159.623 118.654 159.204L112.043 151.702C110.219 153.309 108.906 155.309 108.168 157.628L117.697 160.662ZM118.654 159.204C119.121 158.793 119.729 158.461 120.606 158.263L118.411 148.507C116.04 149.041 113.876 150.087 112.043 151.702L118.654 159.204ZM120.606 158.263C121.272 158.113 121.808 158.107 122.25 158.176L123.784 148.294C121.983 148.015 120.179 148.109 118.411 148.507L120.606 158.263ZM122.25 158.176C122.658 158.24 122.949 158.366 123.193 158.535L128.886 150.314C127.344 149.246 125.618 148.579 123.784 148.294L122.25 158.176ZM121.814 151.752L120.961 153.1L129.412 158.446L130.265 157.098L121.814 151.752ZM127.886 151.564C125.103 149.78 121.957 149.333 118.805 150.042L121 159.798C121.751 159.629 122.128 159.751 122.488 159.982L127.886 151.564ZM118.805 150.042C116.733 150.508 114.835 151.443 113.23 152.883L119.905 160.328C120.156 160.104 120.482 159.915 121 159.798L118.805 150.042ZM113.23 152.883C111.654 154.295 110.505 156.045 109.852 158.068L119.368 161.141C119.469 160.829 119.625 160.58 119.905 160.328L113.23 152.883ZM109.835 158.122C109.194 160.185 109.157 162.301 109.622 164.368L119.378 162.172C119.267 161.679 119.303 161.351 119.385 161.087L109.835 158.122ZM109.622 164.368C110.087 166.434 111.027 168.33 112.49 169.92L119.849 163.15C119.662 162.947 119.489 162.666 119.378 162.172L109.622 164.368ZM112.528 169.962C113.985 171.51 115.773 172.599 117.802 173.2L120.644 163.613C120.283 163.505 120.035 163.347 119.811 163.108L112.528 169.962ZM117.802 173.2C119.869 173.813 121.984 173.845 124.056 173.378L121.861 163.622C121.342 163.739 120.967 163.708 120.644 163.613L117.802 173.2ZM124.056 173.378C127.23 172.664 129.902 170.894 131.636 168.039L123.09 162.847C122.885 163.184 122.621 163.451 121.861 163.622L124.056 173.378ZM124.69 169.668L126.038 170.521L131.384 162.07L130.036 161.218L124.69 169.668ZM124.378 163.801C124.23 164.059 124.009 164.318 123.63 164.58L129.312 172.808C130.835 171.757 132.108 170.417 133.044 168.791L124.378 163.801ZM123.662 164.558C123.291 164.81 122.805 165.034 122.139 165.184L124.334 174.94C126.102 174.542 127.773 173.854 129.28 172.83L123.662 164.558Z" fill="white"/>
</g>
<g filter="url(#filter1_d)">
<path d="M132.208 148.787L133.811 148.208L139.856 164.959L138.253 165.537L132.208 148.787Z" fill="black"/>
<path d="M132.208 148.787L130.511 144.084C127.913 145.021 126.568 147.886 127.505 150.484L132.208 148.787ZM133.811 148.208L138.514 146.511C137.577 143.914 134.711 142.568 132.114 143.505L133.811 148.208ZM139.856 164.959L141.553 169.662C144.151 168.725 145.496 165.859 144.559 163.262L139.856 164.959ZM138.253 165.537L133.55 167.235C134.487 169.832 137.353 171.178 139.95 170.24L138.253 165.537ZM133.905 153.49L135.508 152.911L132.114 143.505L130.511 144.084L133.905 153.49ZM129.108 149.906L135.153 166.656L144.559 163.262L138.514 146.511L129.108 149.906ZM138.159 160.256L136.556 160.834L139.95 170.24L141.553 169.662L138.159 160.256ZM142.956 163.84L136.911 147.089L127.505 150.484L133.55 167.235L142.956 163.84Z" fill="white"/>
</g>
<g filter="url(#filter2_d)">
<path d="M144.317 149.523L145.864 148.809L151.15 160.273L149.603 160.987L144.317 149.523ZM143.946 146.655C143.626 146.802 143.307 146.817 142.989 146.699C142.67 146.582 142.441 146.371 142.3 146.066C142.166 145.775 142.158 145.47 142.275 145.152C142.392 144.834 142.611 144.601 142.931 144.453C143.25 144.306 143.569 144.291 143.888 144.408C144.2 144.511 144.422 144.708 144.556 144.999C144.704 145.318 144.719 145.637 144.601 145.956C144.484 146.274 144.265 146.507 143.946 146.655Z" fill="black"/>
<path d="M144.317 149.523L142.223 144.982C139.715 146.138 138.62 149.109 139.776 151.616L144.317 149.523ZM145.864 148.809L150.405 146.715C149.248 144.208 146.278 143.112 143.771 144.269L145.864 148.809ZM151.15 160.273L153.244 164.814C155.752 163.657 156.847 160.687 155.691 158.179L151.15 160.273ZM149.603 160.987L145.062 163.08C146.219 165.588 149.189 166.684 151.697 165.527L149.603 160.987ZM142.275 145.152L137.584 143.422L137.584 143.422L142.275 145.152ZM143.888 144.408L142.158 149.099C142.212 149.119 142.266 149.138 142.32 149.156L143.888 144.408ZM146.41 154.063L147.958 153.35L143.771 144.269L142.223 144.982L146.41 154.063ZM141.324 150.903L146.61 162.367L155.691 158.179L150.405 146.715L141.324 150.903ZM149.057 155.733L147.509 156.446L151.697 165.527L153.244 164.814L149.057 155.733ZM154.143 158.893L148.857 147.429L139.776 151.616L145.062 163.08L154.143 158.893ZM141.852 142.114C142.217 141.946 142.686 141.807 143.232 141.782C143.783 141.756 144.29 141.85 144.719 142.008L141.258 151.391C142.872 151.986 144.565 151.875 146.039 151.195L141.852 142.114ZM144.719 142.008C145.118 142.156 145.557 142.4 145.964 142.774C146.371 143.149 146.656 143.572 146.84 143.972L137.759 148.159C138.462 149.682 139.71 150.819 141.258 151.391L144.719 142.008ZM146.84 143.972C147.042 144.41 147.176 144.925 147.191 145.483C147.206 146.036 147.102 146.513 146.966 146.882L137.584 143.422C137.039 144.901 137.034 146.586 137.759 148.159L146.84 143.972ZM146.966 146.882C146.808 147.311 146.55 147.758 146.173 148.16C145.799 148.559 145.389 148.825 145.024 148.994L140.837 139.913C139.363 140.592 138.179 141.809 137.584 143.422L146.966 146.882ZM145.024 148.994C144.659 149.162 144.19 149.3 143.644 149.326C143.094 149.352 142.586 149.258 142.158 149.099L145.618 139.717C144.005 139.122 142.311 139.233 140.837 139.913L145.024 148.994ZM142.32 149.156C141.901 149.018 141.426 148.775 140.98 148.381C140.531 147.985 140.217 147.529 140.016 147.092L149.097 142.905C148.366 141.319 147.045 140.185 145.455 139.66L142.32 149.156ZM140.016 147.092C139.848 146.727 139.709 146.258 139.684 145.712C139.658 145.162 139.752 144.654 139.91 144.226L149.292 147.686C149.887 146.073 149.777 144.379 149.097 142.905L140.016 147.092ZM139.91 144.226C140.068 143.797 140.326 143.35 140.703 142.948C141.077 142.549 141.487 142.282 141.852 142.114L146.039 151.195C147.513 150.515 148.697 149.299 149.292 147.686L139.91 144.226Z" fill="white"/>
</g>
<g filter="url(#filter3_d)">
<path d="M165.158 152.909C164.09 153.554 162.99 153.899 161.86 153.946C160.743 153.984 159.693 153.73 158.709 153.184C157.717 152.624 156.903 151.816 156.267 150.761C155.631 149.706 155.3 148.616 155.275 147.491C155.251 146.366 155.516 145.319 156.071 144.349C156.639 143.371 157.458 142.559 158.526 141.915C159.458 141.353 160.398 141.038 161.348 140.97C162.302 140.879 163.203 141.056 164.049 141.498L163.406 142.895C162.728 142.576 162.036 142.451 161.331 142.521C160.617 142.578 159.939 142.8 159.295 143.189C158.514 143.66 157.916 144.264 157.5 145C157.091 145.714 156.902 146.501 156.934 147.36C156.98 148.21 157.251 149.046 157.747 149.869C158.251 150.704 158.868 151.341 159.599 151.778C160.335 152.193 161.119 152.393 161.951 152.378C162.788 152.34 163.596 152.086 164.377 151.615C165.021 151.226 165.539 150.737 165.93 150.146C166.321 149.555 166.533 148.885 166.567 148.136L168.103 148.218C168.099 149.173 167.839 150.059 167.323 150.875C166.798 151.678 166.076 152.356 165.158 152.909Z" fill="black"/>
<path d="M161.86 153.946L162.031 158.943C162.043 158.943 162.054 158.942 162.065 158.942L161.86 153.946ZM158.709 153.184L156.25 157.537C156.261 157.543 156.271 157.549 156.281 157.554L158.709 153.184ZM155.275 147.491L150.277 147.6L150.277 147.6L155.275 147.491ZM156.071 144.349L151.748 141.837C151.742 141.846 151.736 141.856 151.73 141.866L156.071 144.349ZM161.348 140.97L161.705 145.957C161.743 145.954 161.78 145.951 161.817 145.947L161.348 140.97ZM164.049 141.498L168.591 143.589C169.705 141.17 168.726 138.302 166.366 137.068L164.049 141.498ZM163.406 142.895L161.276 147.419C162.483 147.987 163.866 148.049 165.119 147.592C166.372 147.136 167.39 146.197 167.948 144.986L163.406 142.895ZM161.331 142.521L161.726 147.506C161.759 147.503 161.793 147.5 161.827 147.497L161.331 142.521ZM157.5 145L161.837 147.488C161.843 147.478 161.849 147.467 161.855 147.456L157.5 145ZM156.934 147.36L151.937 147.547C151.938 147.574 151.94 147.602 151.941 147.629L156.934 147.36ZM159.599 151.778L157.032 156.069C157.069 156.091 157.105 156.112 157.143 156.133L159.599 151.778ZM161.951 152.378L162.045 157.377C162.088 157.376 162.132 157.375 162.175 157.373L161.951 152.378ZM165.93 150.146L161.76 147.386L161.76 147.386L165.93 150.146ZM166.567 148.136L166.836 143.143C165.505 143.071 164.2 143.534 163.211 144.429C162.223 145.324 161.633 146.577 161.572 147.909L166.567 148.136ZM168.103 148.218L173.103 148.235C173.112 145.572 171.031 143.369 168.372 143.226L168.103 148.218ZM167.323 150.875L171.507 153.612C171.52 153.591 171.534 153.571 171.547 153.55L167.323 150.875ZM162.576 148.628C162.151 148.884 161.86 148.942 161.654 148.95L162.065 158.942C164.12 158.857 166.028 158.224 167.741 157.191L162.576 148.628ZM161.688 148.949C161.486 148.956 161.333 148.922 161.138 148.813L156.281 157.554C158.052 158.539 160 159.013 162.031 158.943L161.688 148.949ZM161.168 148.83C160.987 148.728 160.777 148.558 160.548 148.179L151.985 153.344C153.029 155.074 154.448 156.519 156.25 157.537L161.168 148.83ZM160.548 148.179C160.319 147.798 160.278 147.553 160.274 147.382L150.277 147.6C150.322 149.68 150.942 151.614 151.985 153.344L160.548 148.179ZM160.274 147.382C160.269 147.158 160.31 147.007 160.411 146.831L151.73 141.866C150.722 143.63 150.232 145.575 150.277 147.6L160.274 147.382ZM160.394 146.861C160.498 146.682 160.684 146.452 161.109 146.196L155.944 137.633C154.231 138.666 152.781 140.059 151.748 141.837L160.394 146.861ZM161.109 146.196C161.462 145.983 161.649 145.961 161.705 145.957L160.99 135.982C159.148 136.114 157.454 136.722 155.944 137.633L161.109 146.196ZM161.817 145.947C161.83 145.946 161.831 145.947 161.821 145.947C161.812 145.946 161.797 145.945 161.779 145.941C161.761 145.938 161.745 145.933 161.735 145.929C161.724 145.926 161.723 145.924 161.732 145.929L166.366 137.068C164.66 136.175 162.791 135.811 160.878 135.992L161.817 145.947ZM159.507 139.408L158.864 140.805L167.948 144.986L168.591 143.589L159.507 139.408ZM165.536 138.371C164.089 137.69 162.493 137.381 160.835 137.546L161.827 147.497C161.722 147.507 161.606 147.503 161.492 147.483C161.38 147.463 161.306 147.433 161.276 147.419L165.536 138.371ZM160.936 137.537C159.409 137.658 157.986 138.139 156.712 138.907L161.877 147.47C161.894 147.46 161.882 147.47 161.844 147.482C161.806 147.494 161.764 147.503 161.726 147.506L160.936 137.537ZM156.712 138.907C155.253 139.788 154.018 140.997 153.146 142.543L161.855 147.456C161.85 147.466 161.843 147.477 161.834 147.489C161.825 147.5 161.817 147.509 161.812 147.514C161.808 147.519 161.808 147.518 161.817 147.511C161.826 147.504 161.845 147.49 161.877 147.47L156.712 138.907ZM153.164 142.511C152.267 144.075 151.872 145.795 151.937 147.547L161.93 147.172C161.93 147.17 161.932 147.216 161.913 147.293C161.894 147.371 161.865 147.44 161.837 147.488L153.164 142.511ZM151.941 147.629C152.037 149.396 152.601 151.018 153.465 152.451L162.028 147.286C161.96 147.173 161.935 147.106 161.928 147.084C161.922 147.064 161.926 147.07 161.927 147.09L151.941 147.629ZM153.465 152.451C154.33 153.885 155.502 155.153 157.032 156.069L162.166 147.487C162.19 147.502 162.194 147.509 162.176 147.491C162.157 147.471 162.103 147.411 162.028 147.286L153.465 152.451ZM157.143 156.133C158.643 156.979 160.306 157.41 162.045 157.377L161.856 147.379C161.876 147.378 161.92 147.381 161.974 147.394C162.028 147.408 162.057 147.424 162.056 147.423L157.143 156.133ZM162.175 157.373C163.918 157.294 165.53 156.759 166.96 155.896L161.795 147.333C161.756 147.356 161.728 147.37 161.711 147.378C161.694 147.386 161.685 147.389 161.685 147.389C161.685 147.389 161.686 147.389 161.689 147.388C161.692 147.387 161.695 147.386 161.7 147.386C161.709 147.384 161.718 147.383 161.726 147.383L162.175 157.373ZM166.96 155.896C168.199 155.148 169.274 154.152 170.099 152.905L161.76 147.386C161.767 147.376 161.776 147.364 161.786 147.352C161.795 147.341 161.805 147.331 161.812 147.324C161.828 147.309 161.827 147.314 161.795 147.333L166.96 155.896ZM170.099 152.905C171.019 151.515 171.49 149.959 171.562 148.362L161.572 147.909C161.574 147.877 161.582 147.797 161.616 147.689C161.651 147.579 161.702 147.474 161.76 147.386L170.099 152.905ZM166.298 153.128L167.833 153.211L168.372 143.226L166.836 143.143L166.298 153.128ZM163.103 148.201C163.103 148.215 163.102 148.219 163.102 148.214C163.103 148.211 163.103 148.208 163.104 148.204C163.105 148.199 163.106 148.195 163.108 148.19C163.109 148.186 163.11 148.182 163.111 148.179C163.112 148.177 163.112 148.176 163.113 148.175C163.113 148.174 163.113 148.174 163.113 148.174C163.113 148.174 163.113 148.174 163.113 148.175C163.112 148.176 163.111 148.178 163.11 148.18C163.108 148.184 163.104 148.191 163.098 148.201L171.547 153.55C172.561 151.948 173.096 150.143 173.103 148.235L163.103 148.201ZM163.138 148.138C163.071 148.241 162.927 148.416 162.576 148.628L167.741 157.191C169.225 156.295 170.525 155.114 171.507 153.612L163.138 148.138Z" fill="white"/>
</g>
<g filter="url(#filter4_d)">
<path d="M176.488 137.066L175.902 141.066L178.172 143.86L176.849 144.934L165.623 131.11L166.946 130.036L174.556 139.407L176.064 129.31L177.703 127.978L176.764 135.388L186.052 137.46L184.431 138.777L176.488 137.066Z" fill="black"/>
<path d="M176.488 137.066L177.54 132.178C176.187 131.886 174.774 132.169 173.637 132.958C172.5 133.747 171.741 134.972 171.54 136.341L176.488 137.066ZM175.902 141.066L170.955 140.341C170.752 141.726 171.139 143.131 172.021 144.217L175.902 141.066ZM178.172 143.86L181.324 147.742C183.467 146.001 183.794 142.852 182.053 140.708L178.172 143.86ZM176.849 144.934L172.967 148.086C174.708 150.23 177.857 150.556 180.001 148.816L176.849 144.934ZM165.623 131.11L162.471 127.229C160.327 128.97 160.001 132.119 161.741 134.262L165.623 131.11ZM166.946 130.036L170.827 126.884C169.086 124.741 165.937 124.414 163.794 126.155L166.946 130.036ZM174.556 139.407L170.674 142.559C171.923 144.098 173.963 144.753 175.874 144.23C177.786 143.708 179.208 142.106 179.501 140.146L174.556 139.407ZM176.064 129.31L172.912 125.428C171.943 126.215 171.303 127.336 171.118 128.571L176.064 129.31ZM177.703 127.978L182.663 128.607C182.92 126.58 181.918 124.601 180.133 123.608C178.347 122.616 176.137 122.809 174.551 124.097L177.703 127.978ZM176.764 135.388L171.804 134.759C171.479 137.32 173.156 139.706 175.675 140.268L176.764 135.388ZM186.052 137.46L189.204 141.342C190.692 140.133 191.359 138.18 190.919 136.314C190.48 134.448 189.012 132.998 187.141 132.58L186.052 137.46ZM184.431 138.777L183.379 143.665C184.86 143.984 186.407 143.614 187.583 142.658L184.431 138.777ZM171.54 136.341L170.955 140.341L180.849 141.79L181.435 137.79L171.54 136.341ZM172.021 144.217L174.29 147.012L182.053 140.708L179.784 137.914L172.021 144.217ZM175.02 139.979L173.697 141.053L180.001 148.816L181.324 147.742L175.02 139.979ZM180.73 141.782L169.504 127.958L161.741 134.262L172.967 148.086L180.73 141.782ZM168.775 134.992L170.098 133.918L163.794 126.155L162.471 127.229L168.775 134.992ZM163.064 133.188L170.674 142.559L178.437 136.255L170.827 126.884L163.064 133.188ZM179.501 140.146L181.009 130.048L171.118 128.571L169.611 138.669L179.501 140.146ZM179.216 133.191L180.855 131.86L174.551 124.097L172.912 125.428L179.216 133.191ZM172.743 127.35L171.804 134.759L181.724 136.017L182.663 128.607L172.743 127.35ZM175.675 140.268L184.964 142.34L187.141 132.58L177.853 130.508L175.675 140.268ZM182.9 133.579L181.28 134.895L187.583 142.658L189.204 141.342L182.9 133.579ZM185.484 133.889L177.54 132.178L175.435 141.953L183.379 143.665L185.484 133.889Z" fill="white"/>
</g>
<g filter="url(#filter5_d)">
<path d="M199.57 102.381C200.491 101.093 201.583 100.35 202.846 100.151C204.119 99.9402 205.477 100.351 206.922 101.384L212.876 105.643L211.884 107.029L206.067 102.868C205 102.105 204 101.783 203.069 101.904C202.146 102.011 201.35 102.533 200.679 103.47C199.916 104.537 199.648 105.614 199.874 106.7C200.087 107.777 200.773 108.73 201.931 109.559L207.319 113.412L206.327 114.798L200.51 110.637C199.443 109.874 198.443 109.553 197.512 109.673C196.589 109.78 195.788 110.309 195.108 111.259C194.354 112.313 194.086 113.39 194.303 114.489C194.516 115.566 195.202 116.519 196.36 117.347L201.748 121.201L200.756 122.587L190.489 115.243L191.438 113.915L193.312 115.256C192.948 114.444 192.829 113.593 192.956 112.7C193.083 111.807 193.45 110.938 194.055 110.092C194.669 109.233 195.382 108.622 196.193 108.258C197.013 107.88 197.893 107.792 198.832 107.991C198.426 107.13 198.285 106.213 198.41 105.24C198.531 104.245 198.918 103.292 199.57 102.381Z" fill="black"/>
<path d="M202.846 100.151L203.622 105.091C203.636 105.089 203.651 105.086 203.665 105.084L202.846 100.151ZM212.876 105.643L216.942 108.552C218.549 106.306 218.03 103.182 215.784 101.576L212.876 105.643ZM211.884 107.029L208.975 111.096C211.222 112.702 214.345 112.184 215.951 109.938L211.884 107.029ZM203.069 101.904L203.646 106.87C203.667 106.868 203.688 106.865 203.709 106.862L203.069 101.904ZM199.874 106.7L204.779 105.729C204.775 105.713 204.772 105.697 204.769 105.681L199.874 106.7ZM207.319 113.412L211.385 116.321C212.992 114.075 212.473 110.952 210.227 109.345L207.319 113.412ZM206.327 114.798L203.419 118.865C205.665 120.471 208.788 119.953 210.394 117.707L206.327 114.798ZM197.512 109.673L198.089 114.639C198.11 114.637 198.131 114.634 198.152 114.632L197.512 109.673ZM194.303 114.489L189.397 115.457L189.398 115.46L194.303 114.489ZM201.748 121.201L205.815 124.11C207.421 121.864 206.903 118.741 204.657 117.134L201.748 121.201ZM200.756 122.587L197.848 126.654C200.094 128.26 203.217 127.742 204.823 125.496L200.756 122.587ZM190.489 115.243L186.422 112.334C184.815 114.58 185.334 117.703 187.58 119.31L190.489 115.243ZM191.438 113.915L194.347 109.848C192.101 108.242 188.978 108.76 187.371 111.007L191.438 113.915ZM193.312 115.256L190.403 119.322C192.24 120.637 194.731 120.556 196.479 119.125C198.227 117.694 198.798 115.269 197.874 113.208L193.312 115.256ZM192.956 112.7L197.907 113.404L197.907 113.404L192.956 112.7ZM196.193 108.258L198.24 112.819C198.254 112.813 198.267 112.807 198.281 112.801L196.193 108.258ZM198.832 107.991L197.793 112.882C199.652 113.277 201.574 112.584 202.753 111.094C203.932 109.604 204.165 107.575 203.354 105.856L198.832 107.991ZM198.41 105.24L203.369 105.879C203.37 105.868 203.372 105.857 203.373 105.846L198.41 105.24ZM203.636 105.29C203.821 105.032 203.92 104.973 203.893 104.991C203.879 105.001 203.843 105.023 203.787 105.045C203.731 105.068 203.673 105.083 203.622 105.091L202.071 95.2119C199.181 95.6655 197.007 97.37 195.503 99.4725L203.636 105.29ZM203.665 105.084C203.579 105.098 203.5 105.1 203.438 105.095C203.378 105.091 203.354 105.082 203.372 105.087C203.415 105.1 203.628 105.176 204.013 105.451L209.831 97.3176C207.723 95.8099 205.038 94.7192 202.028 95.2189L203.665 105.084ZM204.013 105.451L209.967 109.71L215.784 101.576L209.831 97.3176L204.013 105.451ZM208.809 102.734L207.817 104.12L215.951 109.938L216.942 108.552L208.809 102.734ZM214.793 102.962L208.976 98.8013L203.158 106.935L208.975 111.096L214.793 102.962ZM208.976 98.8013C207.29 97.5956 205.036 96.6081 202.428 96.9448L203.709 106.862C203.364 106.907 203.104 106.852 202.986 106.814C202.889 106.783 202.945 106.782 203.158 106.935L208.976 98.8013ZM202.491 96.9371C199.842 97.2452 197.891 98.7734 196.613 100.561L204.746 106.379C204.795 106.31 204.735 106.417 204.521 106.557C204.286 106.711 203.977 106.832 203.646 106.87L202.491 96.9371ZM196.613 100.561C195.198 102.539 194.416 105.016 194.979 107.72L204.769 105.681C204.787 105.767 204.798 105.871 204.796 105.985C204.794 106.099 204.778 106.202 204.757 106.288C204.714 106.46 204.665 106.492 204.746 106.379L196.613 100.561ZM194.969 107.671C195.496 110.333 197.146 112.284 199.022 113.625L204.84 105.492C204.612 105.329 204.571 105.253 204.606 105.302C204.625 105.328 204.659 105.381 204.694 105.46C204.73 105.541 204.759 105.632 204.779 105.729L194.969 107.671ZM199.022 113.625L204.41 117.479L210.227 109.345L204.84 105.492L199.022 113.625ZM203.252 110.503L202.26 111.889L210.394 117.707L211.385 116.321L203.252 110.503ZM209.236 110.731L203.419 106.571L197.601 114.704L203.419 118.865L209.236 110.731ZM203.419 106.571C201.733 105.365 199.479 104.377 196.871 104.714L198.152 114.632C197.807 114.676 197.547 114.621 197.429 114.584C197.332 114.552 197.388 114.552 197.601 114.704L203.419 106.571ZM196.934 104.706C194.265 105.017 192.315 106.569 191.042 108.35L199.175 114.168C199.234 114.086 199.181 114.185 198.973 114.323C198.743 114.475 198.432 114.6 198.089 114.639L196.934 104.706ZM191.042 108.35C189.623 110.334 188.871 112.79 189.397 115.457L199.208 113.521C199.223 113.593 199.232 113.684 199.23 113.787C199.227 113.891 199.213 113.986 199.193 114.067C199.152 114.232 199.104 114.267 199.175 114.168L191.042 108.35ZM189.398 115.46C189.925 118.122 191.576 120.073 193.451 121.414L199.269 113.28C199.041 113.118 199 113.042 199.035 113.091C199.054 113.117 199.088 113.169 199.123 113.249C199.159 113.329 199.188 113.421 199.208 113.518L189.398 115.46ZM193.451 121.414L198.839 125.268L204.657 117.134L199.269 113.28L193.451 121.414ZM197.681 118.292L196.69 119.678L204.823 125.496L205.815 124.11L197.681 118.292ZM203.665 118.52L193.397 111.176L187.58 119.31L197.848 126.654L203.665 118.52ZM194.555 118.151L195.505 116.824L187.371 111.007L186.422 112.334L194.555 118.151ZM188.529 117.982L190.403 119.322L196.221 111.189L194.347 109.848L188.529 117.982ZM197.874 113.208C197.879 113.22 197.894 113.261 197.902 113.32C197.91 113.378 197.906 113.411 197.907 113.404L188.006 111.995C187.748 113.81 187.994 115.617 188.75 117.303L197.874 113.208ZM197.907 113.404C197.907 113.402 197.91 113.376 197.934 113.319C197.96 113.259 198.013 113.152 198.121 113.001L189.988 107.183C188.988 108.582 188.263 110.194 188.006 111.995L197.907 113.404ZM198.121 113.001C198.223 112.858 198.289 112.798 198.305 112.784C198.318 112.773 198.296 112.794 198.24 112.819L194.146 103.696C192.387 104.485 191.02 105.74 189.988 107.183L198.121 113.001ZM198.281 112.801C198.2 112.838 198.09 112.871 197.97 112.883C197.852 112.895 197.786 112.881 197.793 112.882L199.872 103.101C197.951 102.692 195.967 102.858 194.105 103.714L198.281 112.801ZM203.354 105.856C203.351 105.851 203.353 105.854 203.356 105.864C203.359 105.874 203.362 105.886 203.364 105.899C203.366 105.911 203.366 105.919 203.366 105.918C203.366 105.918 203.366 105.905 203.369 105.879L193.451 104.602C193.207 106.492 193.484 108.375 194.311 110.126L203.354 105.856ZM203.373 105.846C203.382 105.776 203.413 105.602 203.636 105.29L195.503 99.4725C194.423 100.983 193.681 102.715 193.447 104.634L203.373 105.846Z" fill="white"/>
</g>
<g filter="url(#filter6_d)">
<path d="M217.311 83.779L212.825 93.3389C214.054 93.8093 215.231 93.805 216.357 93.326C217.469 92.8403 218.32 91.9673 218.912 90.7071C219.245 89.9974 219.427 89.2878 219.46 88.5784C219.478 87.8622 219.342 87.1713 219.054 86.5056L220.461 86.1055C220.832 86.898 220.996 87.7528 220.954 88.67C220.92 89.5727 220.688 90.4804 220.26 91.3929C219.709 92.5661 218.974 93.4935 218.053 94.1749C217.125 94.8351 216.1 95.2113 214.978 95.3037C213.857 95.396 212.739 95.1805 211.623 94.6572C210.508 94.1338 209.621 93.4258 208.961 92.5332C208.309 91.6262 207.934 90.637 207.835 89.5658C207.744 88.4801 207.946 87.4086 208.442 86.3512C208.939 85.2939 209.63 84.4607 210.517 83.8516C211.403 83.2426 212.401 82.9064 213.508 82.8431C214.602 82.7729 215.713 83.0029 216.843 83.533L217.311 83.779ZM209.768 86.9731C209.251 88.074 209.171 89.1675 209.527 90.2537C209.876 91.3187 210.591 92.167 211.674 92.7985L215.476 84.6944C214.299 84.2656 213.186 84.2647 212.137 84.6917C211.081 85.0973 210.291 85.8578 209.768 86.9731Z" fill="black"/>
<path d="M217.311 83.779L221.837 85.9031C222.973 83.4831 222.004 80.598 219.638 79.3537L217.311 83.779ZM212.825 93.3389L208.299 91.2148C207.708 92.4727 207.668 93.9195 208.188 95.2082C208.707 96.4969 209.739 97.5113 211.037 98.0082L212.825 93.3389ZM216.357 93.326L218.314 97.9271C218.329 97.9207 218.344 97.9142 218.359 97.9077L216.357 93.326ZM219.46 88.5784L224.455 88.8067C224.456 88.7724 224.457 88.738 224.458 88.7037L219.46 88.5784ZM219.054 86.5056L217.686 81.6962C216.301 82.0903 215.152 83.0631 214.535 84.3653C213.918 85.6674 213.893 87.1724 214.466 88.4944L219.054 86.5056ZM220.461 86.1055L224.991 83.988C223.952 81.7655 221.454 80.6252 219.094 81.2961L220.461 86.1055ZM220.954 88.67L215.96 88.4436C215.959 88.4549 215.959 88.4662 215.958 88.4775L220.954 88.67ZM218.053 94.1749L220.951 98.2497C220.977 98.2313 221.002 98.2127 221.028 98.1938L218.053 94.1749ZM214.978 95.3037L215.389 100.287L215.389 100.287L214.978 95.3037ZM208.961 92.5332L204.902 95.4529C204.915 95.4699 204.927 95.4869 204.939 95.5038L208.961 92.5332ZM207.835 89.5658L202.853 89.9855C202.854 89.9979 202.855 90.0102 202.856 90.0225L207.835 89.5658ZM213.508 82.8431L213.794 87.8349C213.806 87.8342 213.817 87.8335 213.829 87.8328L213.508 82.8431ZM216.843 83.533L219.171 79.1077C219.104 79.0725 219.036 79.0387 218.967 79.0066L216.843 83.533ZM209.527 90.2537L214.279 88.6982L214.278 88.6953L209.527 90.2537ZM211.674 92.7985L209.153 97.117C210.366 97.8245 211.82 97.9898 213.16 97.5724C214.501 97.155 215.604 96.1934 216.2 94.9225L211.674 92.7985ZM215.476 84.6944L220.003 86.8184C220.599 85.5476 220.634 84.0846 220.098 82.7869C219.563 81.4893 218.506 80.4766 217.187 79.9962L215.476 84.6944ZM212.137 84.6917L213.93 89.3593C213.961 89.3474 213.992 89.3351 214.023 89.3226L212.137 84.6917ZM212.785 81.655L208.299 91.2148L217.352 95.4629L221.837 85.9031L212.785 81.655ZM211.037 98.0082C213.376 98.9038 215.901 98.9536 218.314 97.9271L214.4 88.7249C214.406 88.7222 214.433 88.7119 214.476 88.7028C214.52 88.6936 214.567 88.6887 214.611 88.6885C214.655 88.6884 214.682 88.6929 214.688 88.694C214.693 88.6949 214.669 88.6907 214.613 88.6695L211.037 98.0082ZM218.359 97.9077C220.745 96.8649 222.412 95.0173 223.438 92.8311L214.385 88.5831C214.294 88.7782 214.235 88.8311 214.25 88.8158C214.257 88.8092 214.272 88.7945 214.296 88.7778C214.321 88.761 214.342 88.75 214.355 88.7444L218.359 97.9077ZM223.438 92.8311C224.021 91.5885 224.389 90.2379 224.455 88.8067L214.465 88.35C214.465 88.3501 214.465 88.3637 214.456 88.3957C214.448 88.4287 214.429 88.4906 214.385 88.5831L223.438 92.8311ZM224.458 88.7037C224.495 87.2519 224.215 85.8402 223.641 84.5168L214.466 88.4944C214.47 88.5018 214.47 88.5038 214.469 88.5008C214.468 88.4979 214.467 88.492 214.465 88.484C214.463 88.476 214.462 88.4682 214.462 88.4616C214.461 88.455 214.461 88.4519 214.461 88.4531L224.458 88.7037ZM220.421 91.315L221.828 90.9149L219.094 81.2961L217.686 81.6962L220.421 91.315ZM215.932 88.2231C215.943 88.2467 215.966 88.2925 215.96 88.4436L225.949 88.8964C226.026 87.2131 225.72 85.5492 224.991 83.988L215.932 88.2231ZM215.958 88.4775C215.952 88.6381 215.91 88.892 215.734 89.2689L224.786 93.5169C225.466 92.0687 225.887 90.5074 225.951 88.8625L215.958 88.4775ZM215.734 89.2689C215.488 89.7916 215.249 90.0295 215.079 90.156L221.028 98.1938C222.698 96.9574 223.931 95.3407 224.786 93.5169L215.734 89.2689ZM215.156 90.1001C214.95 90.2462 214.782 90.3029 214.568 90.3205L215.389 100.287C217.417 100.12 219.299 99.4239 220.951 98.2497L215.156 90.1001ZM214.568 90.3205C214.398 90.3346 214.149 90.3194 213.747 90.1307L209.499 99.1836C211.328 100.042 213.316 100.457 215.389 100.287L214.568 90.3205ZM213.747 90.1307C213.3 89.9206 213.096 89.7158 212.983 89.5627L204.939 95.5038C206.145 97.1359 207.716 98.347 209.499 99.1836L213.747 90.1307ZM213.02 89.6136C212.868 89.4014 212.828 89.2566 212.814 89.1091L202.856 90.0225C203.039 92.0174 203.75 93.8509 204.902 95.4529L213.02 89.6136ZM212.818 89.1461C212.805 88.9964 212.817 88.7984 212.969 88.4752L203.916 84.2272C203.075 86.0188 202.683 87.9638 202.853 89.9855L212.818 89.1461ZM212.969 88.4752C213.121 88.1513 213.256 88.0361 213.347 87.9731L207.686 79.7302C206.004 80.8852 204.756 82.4364 203.916 84.2272L212.969 88.4752ZM213.347 87.9731C213.457 87.8982 213.568 87.8478 213.794 87.8349L213.223 77.8512C211.233 77.965 209.35 78.5871 207.686 79.7302L213.347 87.9731ZM213.829 87.8328C213.97 87.8237 214.245 87.8368 214.719 88.0594L218.967 79.0066C217.182 78.1689 215.233 77.7221 213.188 77.8533L213.829 87.8328ZM214.516 87.9583L214.984 88.2044L219.638 79.3537L219.171 79.1077L214.516 87.9583ZM205.241 84.8491C204.221 87.0232 203.996 89.4325 204.776 91.8121L214.278 88.6953C214.284 88.7141 214.295 88.7532 214.302 88.8092C214.309 88.8657 214.311 88.9257 214.307 88.9843C214.298 89.1099 214.267 89.1546 214.294 89.0972L205.241 84.8491ZM204.775 91.8093C205.551 94.177 207.148 95.9469 209.153 97.117L214.194 88.4801C214.083 88.4154 214.093 88.4 214.147 88.4651C214.173 88.4958 214.202 88.5354 214.227 88.5816C214.253 88.6277 214.269 88.6686 214.279 88.6982L204.775 91.8093ZM216.2 94.9225L220.003 86.8184L210.95 82.5704L207.147 90.6745L216.2 94.9225ZM217.187 79.9962C214.979 79.1919 212.575 79.1148 210.252 80.0607L214.023 89.3226C213.996 89.3333 213.955 89.3469 213.903 89.3573C213.85 89.3677 213.799 89.3722 213.755 89.3721C213.66 89.3721 213.656 89.3526 213.765 89.3926L217.187 79.9962ZM210.345 80.024C207.971 80.9358 206.26 82.6783 205.241 84.8491L214.294 89.0972C214.328 89.0247 214.317 89.0755 214.221 89.1682C214.175 89.212 214.122 89.2539 214.065 89.2898C214.009 89.3255 213.961 89.3474 213.93 89.3593L210.345 80.024Z" fill="white"/>
</g>
<g filter="url(#filter7_d)">
<path d="M209.759 72.3809L210.401 70.4701L221.433 74.5603L221.012 75.8115L209.759 72.3809ZM226.117 76.8195C226.005 77.1531 225.794 77.403 225.485 77.5692C225.166 77.715 224.847 77.7344 224.529 77.6273C224.195 77.5151 223.96 77.3095 223.825 77.0106C223.674 76.7066 223.657 76.3802 223.774 76.0314C223.886 75.6978 224.094 75.4555 224.398 75.3045C224.687 75.1485 224.998 75.1265 225.332 75.2388C225.651 75.3459 225.893 75.554 226.059 75.8631C226.21 76.1671 226.229 76.4859 226.117 76.8195Z" fill="black"/>
<path d="M209.759 72.3809L205.02 70.7869C204.589 72.0673 204.695 73.4674 205.313 74.6686C205.931 75.8697 207.009 76.7697 208.301 77.1636L209.759 72.3809ZM210.401 70.4701L212.14 65.7819C210.871 65.3117 209.467 65.3754 208.246 65.9584C207.026 66.5414 206.093 67.5941 205.662 68.8761L210.401 70.4701ZM221.433 74.5603L226.172 76.1543C227.033 73.5934 225.705 70.8115 223.171 69.8722L221.433 74.5603ZM221.012 75.8115L219.554 80.5942C222.142 81.3832 224.889 79.9701 225.751 77.4054L221.012 75.8115ZM225.485 77.5692L227.564 82.1167C227.661 82.072 227.758 82.0242 227.852 81.9733L225.485 77.5692ZM223.825 77.0106L228.377 74.9423C228.353 74.89 228.328 74.8381 228.303 74.7867L223.825 77.0106ZM224.398 75.3045L226.622 79.7827C226.674 79.7572 226.725 79.7307 226.775 79.7034L224.398 75.3045ZM226.059 75.8631L230.537 73.6391C230.513 73.591 230.489 73.5432 230.463 73.4959L226.059 75.8631ZM214.498 73.9749L215.14 72.0641L205.662 68.8761L205.02 70.7869L214.498 73.9749ZM208.663 75.1582L219.695 79.2485L223.171 69.8722L212.14 65.7819L208.663 75.1582ZM216.694 72.9664L216.273 74.2175L225.751 77.4054L226.172 76.1543L216.694 72.9664ZM222.47 71.0287L211.217 67.5982L208.301 77.1636L219.554 80.5942L222.47 71.0287ZM221.378 75.2255C221.507 74.8429 221.722 74.4259 222.052 74.0345C222.382 73.6428 222.758 73.3583 223.118 73.165L227.852 81.9733C229.284 81.2037 230.34 79.947 230.856 78.4135L221.378 75.2255ZM223.407 73.0216C223.751 72.8641 224.191 72.7334 224.703 72.7023C225.22 72.6709 225.704 72.7473 226.123 72.8882L222.935 82.3664C224.515 82.8979 226.146 82.7648 227.564 82.1167L223.407 73.0216ZM226.123 72.8882C226.502 73.0156 226.958 73.243 227.397 73.6275C227.842 74.0175 228.166 74.4789 228.377 74.9423L219.272 79.0789C220.026 80.738 221.394 81.8481 222.935 82.3664L226.123 72.8882ZM228.303 74.7867C228.52 75.2239 228.664 75.7333 228.692 76.2804C228.72 76.819 228.63 77.2788 228.513 77.6254L219.035 74.4375C218.534 75.9264 218.553 77.6369 219.346 79.2346L228.303 74.7867ZM228.513 77.6254C228.385 78.0065 228.164 78.4423 227.807 78.8572C227.449 79.2751 227.032 79.5794 226.622 79.7827L222.174 70.8264C220.635 71.5911 219.552 72.899 219.035 74.4375L228.513 77.6254ZM226.775 79.7034C226.328 79.9454 225.791 80.1171 225.2 80.1587C224.618 80.1997 224.117 80.1053 223.738 79.9779L226.926 70.4996C225.385 69.9813 223.625 70.0393 222.021 70.9057L226.775 79.7034ZM223.738 79.9779C223.319 79.837 222.887 79.6053 222.495 79.2682C222.106 78.9338 221.834 78.564 221.655 78.2302L230.463 73.4959C229.725 72.1227 228.506 71.0311 226.926 70.4996L223.738 79.9779ZM221.581 78.087C221.378 77.6777 221.229 77.1833 221.196 76.6335C221.163 76.0875 221.25 75.6066 221.378 75.2255L230.856 78.4135C231.374 76.875 231.302 75.1791 230.537 73.6391L221.581 78.087Z" fill="white"/>
</g>
</g>
<defs>
<filter id="filter0_d" x="103.556" y="148.134" width="34.1557" height="35.1817" filterUnits="userSpaceOnUse" color-interpolation-filters="sRGB">
<feFlood flood-opacity="0" result="BackgroundImageFix"/>
<feColorMatrix in="SourceAlpha" type="matrix" values="0 0 0 0 0 0 0 0 0 0 0 0 0 0 0 0 0 0 127 0"/>
<feOffset dy="4"/>
<feGaussianBlur stdDeviation="2"/>
<feColorMatrix type="matrix" values="0 0 0 0 0 0 0 0 0 0 0 0 0 0 0 0 0 0 0.25 0"/>
<feBlend mode="normal" in2="BackgroundImageFix" result="effect1_dropShadow"/>
<feBlend mode="normal" in="SourceGraphic" in2="effect1_dropShadow" result="shape"/>
</filter>
<filter id="filter1_d" x="123.207" y="143.207" width="25.6506" height="35.3318" filterUnits="userSpaceOnUse" color-interpolation-filters="sRGB">
<feFlood flood-opacity="0" result="BackgroundImageFix"/>
<feColorMatrix in="SourceAlpha" type="matrix" values="0 0 0 0 0 0 0 0 0 0 0 0 0 0 0 0 0 0 127 0"/>
<feOffset dy="4"/>
<feGaussianBlur stdDeviation="2"/>
<feColorMatrix type="matrix" values="0 0 0 0 0 0 0 0 0 0 0 0 0 0 0 0 0 0 0.25 0"/>
<feBlend mode="normal" in2="BackgroundImageFix" result="effect1_dropShadow"/>
<feBlend mode="normal" in="SourceGraphic" in2="effect1_dropShadow" result="shape"/>
</filter>
<filter id="filter2_d" x="133.193" y="139.33" width="26.9587" height="34.6577" filterUnits="userSpaceOnUse" color-interpolation-filters="sRGB">
<feFlood flood-opacity="0" result="BackgroundImageFix"/>
<feColorMatrix in="SourceAlpha" type="matrix" values="0 0 0 0 0 0 0 0 0 0 0 0 0 0 0 0 0 0 127 0"/>
<feOffset dy="4"/>
<feGaussianBlur stdDeviation="2"/>
<feColorMatrix type="matrix" values="0 0 0 0 0 0 0 0 0 0 0 0 0 0 0 0 0 0 0.25 0"/>
<feBlend mode="normal" in2="BackgroundImageFix" result="effect1_dropShadow"/>
<feBlend mode="normal" in="SourceGraphic" in2="effect1_dropShadow" result="shape"/>
</filter>
<filter id="filter3_d" x="146.274" y="135.947" width="30.8287" height="31.0031" filterUnits="userSpaceOnUse" color-interpolation-filters="sRGB">
<feFlood flood-opacity="0" result="BackgroundImageFix"/>
<feColorMatrix in="SourceAlpha" type="matrix" values="0 0 0 0 0 0 0 0 0 0 0 0 0 0 0 0 0 0 127 0"/>
<feOffset dy="4"/>
<feGaussianBlur stdDeviation="2"/>
<feColorMatrix type="matrix" values="0 0 0 0 0 0 0 0 0 0 0 0 0 0 0 0 0 0 0.25 0"/>
<feBlend mode="normal" in2="BackgroundImageFix" result="effect1_dropShadow"/>
<feBlend mode="normal" in="SourceGraphic" in2="effect1_dropShadow" result="shape"/>
</filter>
<filter id="filter4_d" x="156.623" y="122.978" width="38.4299" height="34.9561" filterUnits="userSpaceOnUse" color-interpolation-filters="sRGB">
<feFlood flood-opacity="0" result="BackgroundImageFix"/>
<feColorMatrix in="SourceAlpha" type="matrix" values="0 0 0 0 0 0 0 0 0 0 0 0 0 0 0 0 0 0 127 0"/>
<feOffset dy="4"/>
<feGaussianBlur stdDeviation="2"/>
<feColorMatrix type="matrix" values="0 0 0 0 0 0 0 0 0 0 0 0 0 0 0 0 0 0 0.25 0"/>
<feBlend mode="normal" in2="BackgroundImageFix" result="effect1_dropShadow"/>
<feBlend mode="normal" in="SourceGraphic" in2="effect1_dropShadow" result="shape"/>
</filter>
<filter id="filter5_d" x="181.488" y="95.0961" width="40.3878" height="40.491" filterUnits="userSpaceOnUse" color-interpolation-filters="sRGB">
<feFlood flood-opacity="0" result="BackgroundImageFix"/>
<feColorMatrix in="SourceAlpha" type="matrix" values="0 0 0 0 0 0 0 0 0 0 0 0 0 0 0 0 0 0 127 0"/>
<feOffset dy="4"/>
<feGaussianBlur stdDeviation="2"/>
<feColorMatrix type="matrix" values="0 0 0 0 0 0 0 0 0 0 0 0 0 0 0 0 0 0 0.25 0"/>
<feBlend mode="normal" in2="BackgroundImageFix" result="effect1_dropShadow"/>
<feBlend mode="normal" in="SourceGraphic" in2="effect1_dropShadow" result="shape"/>
</filter>
<filter id="filter6_d" x="198.814" y="77.8307" width="31.1468" height="30.4938" filterUnits="userSpaceOnUse" color-interpolation-filters="sRGB">
<feFlood flood-opacity="0" result="BackgroundImageFix"/>
<feColorMatrix in="SourceAlpha" type="matrix" values="0 0 0 0 0 0 0 0 0 0 0 0 0 0 0 0 0 0 127 0"/>
<feOffset dy="4"/>
<feGaussianBlur stdDeviation="2"/>
<feColorMatrix type="matrix" values="0 0 0 0 0 0 0 0 0 0 0 0 0 0 0 0 0 0 0.25 0"/>
<feBlend mode="normal" in2="BackgroundImageFix" result="effect1_dropShadow"/>
<feBlend mode="normal" in="SourceGraphic" in2="effect1_dropShadow" result="shape"/>
</filter>
<filter id="filter7_d" x="200.759" y="65.4701" width="34.4302" height="25.2254" filterUnits="userSpaceOnUse" color-interpolation-filters="sRGB">
<feFlood flood-opacity="0" result="BackgroundImageFix"/>
<feColorMatrix in="SourceAlpha" type="matrix" values="0 0 0 0 0 0 0 0 0 0 0 0 0 0 0 0 0 0 127 0"/>
<feOffset dy="4"/>
<feGaussianBlur stdDeviation="2"/>
<feColorMatrix type="matrix" values="0 0 0 0 0 0 0 0 0 0 0 0 0 0 0 0 0 0 0.25 0"/>
<feBlend mode="normal" in2="BackgroundImageFix" result="effect1_dropShadow"/>
<feBlend mode="normal" in="SourceGraphic" in2="effect1_dropShadow" result="shape"/>
</filter>
<clipPath id="clip0">
<rect width="170" height="300" fill="white" transform="translate(253.838 0.716797) rotate(57.5)"/>
</clipPath>
</defs>
</svg>
