<svg version="1.2" baseProfile="tiny-ps" xmlns="http://www.w3.org/2000/svg" viewBox="0 0 2000 1600" width="2000" height="1600">
	<title>Graphic Design Software 2-ai</title>
	<defs>
		<linearGradient id="grd1" gradientUnits="userSpaceOnUse"  x1="188.773" y1="573.11" x2="470.867" y2="695.957">
			<stop offset="0.283" stop-color="#5760b2"  />
			<stop offset="0.931" stop-color="#f175b8"  />
		</linearGradient>
		<linearGradient id="grd2" gradientUnits="userSpaceOnUse"  x1="196.742" y1="634.479" x2="428.51" y2="995.069">
			<stop offset="0.283" stop-color="#5760b2"  />
			<stop offset="1" stop-color="#f175b8"  />
		</linearGradient>
		<linearGradient id="grd3" gradientUnits="userSpaceOnUse"  x1="1840.669" y1="285.294" x2="1558.574" y2="408.141">
			<stop offset="0.283" stop-color="#5760b2"  />
			<stop offset="0.931" stop-color="#f175b8"  />
		</linearGradient>
		<linearGradient id="grd4" gradientUnits="userSpaceOnUse"  x1="1807.44" y1="362.149" x2="1575.673" y2="722.739">
			<stop offset="0.283" stop-color="#5760b2"  />
			<stop offset="1" stop-color="#f175b8"  />
		</linearGradient>
		<linearGradient id="grd5" gradientUnits="userSpaceOnUse"  x1="772.563" y1="1083.036" x2="1030.786" y2="853.101">
			<stop offset="0" stop-color="#f175b8"  />
			<stop offset="0.492" stop-color="#854fa8"  />
			<stop offset="1" stop-color="#5760b2"  />
		</linearGradient>
		<linearGradient id="grd6" gradientUnits="userSpaceOnUse"  x1="715.347" y1="1090.911" x2="694.241" y2="986.161">
			<stop offset="0" stop-color="#76d7da"  />
			<stop offset="0.492" stop-color="#5760b2"  />
			<stop offset="1" stop-color="#192977"  />
		</linearGradient>
	</defs>
	<style>
		tspan { white-space:pre }
		.shp0 { fill: #e4c9f7 } 
		.shp1 { fill: #d5acf2 } 
		.shp2 { fill: url(#grd1) } 
		.shp3 { fill: #7e5bff } 
		.shp4 { fill: url(#grd2) } 
		.shp5 { fill: url(#grd3) } 
		.shp6 { fill: url(#grd4) } 
		.shp7 { fill: #ffffff } 
		.shp8 { fill: #ffc2eb } 
		.shp9 { fill: #ccfffc } 
		.shp10 { fill: #f4f3ff } 
		.shp11 { fill: #fc70c7 } 
		.shp12 { fill: #b92bf1 } 
		.shp13 { fill: #aa25e8 } 
		.shp14 { fill: #ba3bf4 } 
		.shp15 { fill: #a624e2 } 
		.shp16 { fill: #e3e2f7 } 
		.shp17 { fill: #ebebff } 
		.shp18 { fill: url(#grd5) } 
		.shp19 { fill: #c7c7ef } 
		.shp20 { fill: #464392 } 
		.shp21 { fill: #51f2ed } 
		.shp22 { fill: #fc90b4 } 
		.shp23 { fill: #cccbef } 
		.shp24 { fill: url(#grd6) } 
		.shp25 { fill: #ff80d5 } 
		.shp26 { fill: #ea5cc2 } 
	</style>
	<g id="Layer 1">
		<g id="&lt;Group&gt;">
			<g id="&lt;Group&gt;">
				<g id="&lt;Group&gt;">
					<path id="&lt;Compound Path&gt;" class="shp0" d="M1125.4 1398.27C1107.01 1398.42 1088.54 1399.88 1069.9 1402.72C1029.49 1408.86 983.95 1419.16 939.69 1421.03C955.84 1426.17 972.53 1428.33 989.49 1428.33C1034.64 1428.33 1081.67 1413.07 1125.4 1398.27ZM154.54 1289.53C159.98 1314.41 170.17 1338.12 185.42 1358.94C208.27 1390.14 239.92 1413.91 274.71 1430.38C322.08 1452.8 372.13 1460.99 422.79 1460.99C462.05 1460.99 501.67 1456.07 540.7 1449.06C633.92 1432.31 727.07 1406.63 822.37 1406.63C827.72 1406.63 833.07 1406.72 838.44 1406.88C841.8 1406.99 845.15 1407.13 848.51 1407.32C843.55 1405.19 838.69 1402.79 833.94 1400.08C804.29 1389.38 774.14 1380.16 743.09 1374.34C701.91 1366.63 660.36 1364.23 618.68 1364.23C559.92 1364.23 500.91 1369.01 442.41 1370.42C434.61 1370.6 426.81 1370.71 419 1370.71C335.9 1370.71 252.81 1358.95 182.42 1311.21C172.68 1304.6 163.33 1297.37 154.54 1289.53ZM1761.8 683.25C1761.45 684.62 1761.12 686 1760.81 687.38C1749.6 736.98 1761.79 787.54 1775.83 835.22C1790.33 884.44 1804.91 933.28 1813.33 984.01C1829.28 1080 1827.15 1182.68 1787.68 1273.04C1784.54 1280.25 1781.15 1287.38 1777.55 1294.41C1814.64 1252.42 1840.95 1200.7 1855.19 1146.77C1880.34 1051.43 1866.72 949.63 1836.26 857.22C1820.16 808.38 1798.28 762.35 1776.41 715.93C1771.36 705.21 1766.39 694.31 1761.8 683.25ZM236.99 172.62C185.84 214.65 154.6 276.84 142.32 342.86C113.78 496.36 183.16 640.9 212.22 789.4C244.89 599.91 152.56 403.13 218.18 216.25C223.44 201.26 229.72 186.65 236.99 172.62ZM1582.08 82.68C1534.02 82.68 1485.06 92.15 1439.87 102.99C1338.65 127.3 1240.38 162.3 1139.39 187.48C1097.27 197.99 1054.48 206.65 1011.41 211.8C1049.39 217.88 1087.9 220.36 1126.49 220.36C1160.11 220.36 1193.82 218.48 1227.27 215.44C1330.93 206.01 1433.4 186.48 1537.16 177.97C1560.47 176.06 1584.67 174.64 1609.02 174.64C1677.54 174.64 1747.21 185.88 1801.22 229.03C1785.29 182.78 1755.69 141.54 1713.29 115.75C1673.16 91.34 1628.04 82.68 1582.08 82.68Z" />
					<path id="&lt;Compound Path&gt;" class="shp0" d="M848.51 1407.32C872.59 1417.64 898.93 1421.33 926 1421.33C930.54 1421.33 935.11 1421.22 939.69 1421.03C937.16 1420.23 934.65 1419.35 932.15 1418.4C904.51 1413.01 876.65 1408.85 848.51 1407.32ZM1777.55 1294.41C1760.8 1313.37 1741.86 1330.35 1720.84 1344.64C1684.88 1369.1 1643.71 1383.7 1600.67 1389.3C1584.19 1391.45 1567.65 1392.34 1551.09 1392.34C1520.25 1392.34 1489.38 1389.23 1458.82 1385.28C1409.84 1378.94 1361.08 1370.28 1311.71 1367.45C1303.02 1366.95 1294.39 1366.7 1285.8 1366.7C1244.98 1366.7 1205.26 1372.43 1165.74 1384.86C1152.73 1388.95 1139.23 1393.59 1125.4 1398.27C1126.53 1398.26 1127.65 1398.25 1128.78 1398.25C1158.16 1398.25 1187.37 1401.56 1216.82 1407.87C1265.17 1418.23 1312.03 1434.26 1359.46 1448.02C1404.94 1461.22 1451.46 1472.57 1499.02 1473.73C1501.51 1473.79 1504 1473.82 1506.49 1473.82C1547.33 1473.82 1587.58 1465.59 1624.62 1448C1691.24 1416.36 1744.06 1359.72 1777.55 1294.41ZM212.22 789.4C209.58 804.71 206.13 819.97 201.71 835.18C174.26 929.59 104.46 1008.15 87.85 1106.17C80.9 1147.2 85.87 1189.8 105.12 1226.94C117.48 1250.78 134.58 1271.72 154.54 1289.53C151.17 1274.08 149.63 1258.18 149.85 1242.24C151.25 1142.84 208.19 1054.51 220.85 957.01C228.24 900.15 223.01 844.5 212.22 789.4ZM1801.22 229.03C1810.56 256.17 1815.2 285.02 1814.95 313.49C1814.57 356.38 1801.48 396.04 1784.63 435.07C1765.63 479.08 1742.26 523.44 1738.92 572.13C1736.26 610.78 1747.11 647.88 1761.8 683.25C1773.3 637.43 1802.2 598.33 1826.97 558.94C1849.61 522.95 1868.62 485.76 1875.56 443.43C1888.02 367.44 1865.6 283.2 1805.39 232.46C1804.01 231.29 1802.62 230.15 1801.22 229.03ZM474.33 28.15C444.68 28.15 415.19 31.99 386.62 40.86C319.06 61.81 268.62 111.64 236.99 172.62C250.56 161.47 265.53 151.74 281.91 143.73C326.55 121.92 375.84 113.39 425.41 113.39C462.34 113.39 499.42 118.13 534.84 125.64C635.82 147.04 730.75 190.8 832.59 208.83C864.48 214.48 896.48 216.97 928.47 216.97C956.17 216.97 983.85 215.1 1011.41 211.8C980.79 206.91 950.53 199.68 920.82 189.54C822.95 156.12 735.84 98.34 639.33 61.71C587.4 42.01 530.6 28.15 474.33 28.15Z" />
					<path id="&lt;Path&gt;" class="shp1" d="M425.41 113.39C375.84 113.39 326.55 121.92 281.91 143.73C265.53 151.74 250.56 161.47 236.99 172.62C229.72 186.65 223.44 201.26 218.18 216.25C152.56 403.13 244.89 599.91 212.22 789.4C223.01 844.5 228.24 900.15 220.85 957.01C208.19 1054.51 151.25 1142.84 149.85 1242.24C149.63 1258.18 151.17 1274.08 154.54 1289.53C163.33 1297.37 172.68 1304.6 182.42 1311.21C252.81 1358.95 335.9 1370.71 419 1370.71C426.81 1370.71 434.61 1370.6 442.41 1370.42C500.91 1369.01 559.92 1364.23 618.68 1364.23C660.36 1364.23 701.91 1366.63 743.09 1374.34C774.14 1380.16 804.29 1389.38 833.94 1400.08C838.69 1402.79 843.55 1405.19 848.51 1407.32C876.65 1408.85 904.51 1413.01 932.15 1418.4C934.65 1419.35 937.16 1420.23 939.69 1421.03C983.95 1419.16 1029.49 1408.86 1069.9 1402.72C1088.54 1399.88 1107.01 1398.42 1125.4 1398.27C1139.23 1393.59 1152.73 1388.95 1165.74 1384.86C1205.26 1372.43 1244.98 1366.7 1285.8 1366.7C1294.39 1366.7 1303.02 1366.95 1311.71 1367.45C1361.08 1370.28 1409.84 1378.94 1458.82 1385.28C1489.38 1389.23 1520.25 1392.34 1551.09 1392.34C1567.65 1392.34 1584.19 1391.45 1600.67 1389.3C1643.71 1383.7 1684.88 1369.1 1720.84 1344.64C1741.86 1330.35 1760.8 1313.37 1777.55 1294.41C1781.15 1287.38 1784.54 1280.25 1787.68 1273.04C1827.15 1182.68 1829.28 1080 1813.33 984.01C1804.91 933.28 1790.33 884.44 1775.83 835.22C1761.79 787.54 1749.6 736.98 1760.81 687.38C1761.12 686 1761.45 684.62 1761.8 683.25C1747.11 647.88 1736.26 610.78 1738.92 572.13C1742.26 523.44 1765.63 479.08 1784.63 435.07C1801.48 396.04 1814.57 356.38 1814.95 313.49C1815.2 285.02 1810.56 256.17 1801.22 229.03C1747.21 185.88 1677.54 174.64 1609.02 174.64C1584.67 174.64 1560.47 176.06 1537.16 177.97C1433.4 186.48 1330.93 206.01 1227.27 215.44C1193.82 218.48 1160.11 220.36 1126.49 220.36C1087.9 220.36 1049.39 217.88 1011.41 211.8C983.85 215.1 956.17 216.97 928.47 216.97C896.48 216.97 864.48 214.48 832.59 208.83C730.75 190.8 635.82 147.04 534.84 125.64C499.42 118.13 462.34 113.39 425.41 113.39Z" />
				</g>
				<g id="&lt;Group&gt;">
					<g id="&lt;Group&gt;">
						<path id="&lt;Path&gt;" class="shp2" d="M279.64 851.34C279.58 866.52 279.02 881.78 285.05 896.05C297.41 925.25 325.82 941.48 354.16 952.16C360.79 954.66 367.5 956.94 374.22 959.19C376.09 961.82 380.04 963.11 382.93 960.07C401.41 940.69 404.42 912.58 400.44 887.17C395.58 856.1 379.75 828.02 374.18 797.1C369.02 768.47 371.61 736.99 354.47 711.86C339.6 690.05 315.29 678.31 294.96 662.53C285.29 655.02 276.16 646.34 270.9 635.09C265.11 622.69 265.14 605.79 250.67 599.49C235.22 592.76 225.08 608 217.99 619.18C210.45 631.07 203.3 643.36 199.21 656.91C180.3 719.51 245.71 759.62 270.36 808.31C277.29 821.98 279.69 836.14 279.64 851.34Z" />
						<path id="&lt;Path&gt;" class="shp3" d="M341.8 898.95C337 895.75 331.95 892.93 326.68 890.52C320.12 887.53 314.72 897.44 321.35 900.46C331.21 904.96 340.09 910.87 347.98 918.21C358 947.99 370.27 976.86 388.66 1002.68C405.13 1025.79 425.97 1045.81 451.46 1058.65C457.93 1061.91 463.3 1051.99 456.8 1048.72C410.79 1025.53 382.61 979.24 364.95 932.49C363.19 927.81 361.5 923.1 359.87 918.36C360.5 916.55 360.25 914.43 358.5 912.68C358.23 912.4 357.95 912.14 357.68 911.87C352.33 895.72 347.62 879.36 342.88 863.02C343.25 862.45 343.54 861.78 343.71 860.97C349.98 830.41 351.83 799.07 349.06 767.99C348.42 760.78 337.14 760.98 337.78 768.21C339.91 792.04 339.32 815.95 335.98 839.57C328.95 816.28 321.23 793.23 310.87 771.08C297.76 743.02 280.31 716.7 256.79 696.28C251.33 691.54 243.57 699.73 249.08 704.51C264.62 718 277.1 733.83 287.47 751.04C282.01 747.42 276.56 743.81 271.1 740.19C265.06 736.18 259.74 746.14 265.76 750.13C276.79 757.43 287.81 764.74 298.83 772.04C310.98 797.05 319.77 823.99 327.55 850.42C332.29 866.5 336.84 882.79 341.8 898.95Z" />
					</g>
					<g id="&lt;Group&gt;">
						<path id="&lt;Path&gt;" class="shp4" d="M155.49 926.99C164.68 943.68 179.38 953.52 195.17 963.33C203.14 968.29 211.03 973.44 217.28 980.54C222.77 986.8 226.71 994.19 229.97 1001.81C236.53 1017.17 240.22 1033.6 246.82 1048.96C253.57 1064.69 263.95 1078.57 279.1 1087.03C311.65 1105.19 350.8 1096.96 380.34 1076.83C395.48 1066.51 410.48 1053.58 418.22 1036.58C425.09 1021.5 424.27 1004.96 417.61 989.96C402.2 955.23 365.05 941.9 332.26 928.95C314.08 921.77 295.38 913.51 281.33 899.5C274.54 892.73 269.37 884.91 265.9 875.97C262.67 867.66 260.75 858.91 257.93 850.46C255.04 841.84 251.42 833.52 245.52 826.49C239.98 819.89 232.63 815 224.95 811.22C208.88 803.31 191.01 798.99 177.88 786.12C164.47 772.97 155.85 755.95 144 741.53C134.44 729.88 116.29 712.04 99.53 719.28C92.32 722.39 88.16 729.41 89.21 737.16C89.43 738.78 90.14 739.94 91.1 740.69C85.85 771.41 107.76 801.02 122.26 826.69C131.55 843.14 136.29 860.33 140.26 878.66C143.82 895.11 147.29 912.1 155.49 926.99Z" />
						<path id="&lt;Path&gt;" class="shp3" d="M235.5 850.2C233.04 842.98 221.34 845.5 223.82 852.78C232.75 879.06 237.83 906.42 238.8 934.1C230.47 923.05 222.61 911.65 215.11 900.03C196.47 871.15 179.93 840.99 163.47 810.84C159.78 804.08 149.15 809.58 152.84 816.34C181.85 869.46 211.37 923.24 251.68 968.83C271.6 991.37 294.24 1010.79 318.78 1028.13C319.03 1028.31 319.28 1028.48 319.53 1028.66C306.79 1027.81 294.05 1026.96 281.3 1026.11C273.61 1025.59 273.16 1037.55 280.84 1038.06C296.74 1039.12 312.65 1040.18 328.56 1041.24C331.11 1041.41 332.87 1040.2 333.79 1038.5C353.37 1051.79 373.23 1064.72 391.56 1079.73C415.95 1099.69 437.62 1123.71 449.28 1153.37C452.1 1160.54 462.69 1154.97 459.9 1147.87C438.49 1093.38 387.27 1060.39 340.91 1028.89C316.04 1011.99 292.18 994.17 271.27 972.43C264.08 964.97 257.24 957.2 250.67 949.2C250.82 948.68 250.91 948.12 250.91 947.5C251.29 914.44 246.14 881.5 235.5 850.2Z" />
					</g>
					<g id="&lt;Group&gt;">
						<path id="&lt;Path&gt;" class="shp5" d="M1749.8 563.53C1749.86 578.7 1750.42 593.96 1744.39 608.24C1732.03 637.44 1703.62 653.66 1675.28 664.35C1668.65 666.84 1661.94 669.12 1655.23 671.37C1653.35 674.01 1649.4 675.29 1646.51 672.26C1628.04 652.87 1625.02 624.77 1629 599.36C1633.87 568.29 1649.69 540.2 1655.26 509.28C1660.42 480.66 1657.84 449.18 1674.97 424.05C1689.84 402.23 1714.15 390.5 1734.48 374.71C1744.15 367.21 1753.29 358.52 1758.54 347.27C1764.33 334.87 1764.3 317.97 1778.77 311.67C1794.22 304.94 1804.36 320.18 1811.45 331.37C1818.99 343.25 1826.14 355.54 1830.23 369.09C1849.14 431.69 1783.73 471.8 1759.08 520.5C1752.15 534.17 1749.75 548.32 1749.8 563.53Z" />
						<path id="&lt;Path&gt;" class="shp3" d="M1687.64 611.13C1692.44 607.93 1697.49 605.11 1702.76 602.71C1709.32 599.71 1714.72 609.62 1708.1 612.64C1698.23 617.14 1689.36 623.05 1681.46 630.39C1671.44 660.18 1659.17 689.05 1640.78 714.86C1624.31 737.97 1603.47 757.99 1577.98 770.84C1571.52 774.1 1566.14 764.18 1572.65 760.9C1618.65 737.71 1646.84 691.42 1664.49 644.68C1666.26 639.99 1667.94 635.28 1669.57 630.55C1668.94 628.73 1669.19 626.62 1670.94 624.86C1671.21 624.59 1671.49 624.32 1671.76 624.05C1677.11 607.91 1681.83 591.55 1686.56 575.2C1686.19 574.64 1685.9 573.96 1685.73 573.16C1679.46 542.6 1677.61 511.25 1680.38 480.17C1681.03 472.97 1692.31 473.16 1691.66 480.4C1689.53 504.22 1690.12 528.14 1693.46 551.76C1700.49 528.46 1708.21 505.41 1718.57 483.27C1731.69 455.2 1749.13 428.89 1772.65 408.47C1778.11 403.72 1785.87 411.92 1780.37 416.7C1764.83 430.19 1752.34 446.02 1741.97 463.22C1747.43 459.61 1752.88 455.99 1758.34 452.37C1764.39 448.37 1769.7 458.32 1763.68 462.31C1752.66 469.62 1741.63 476.92 1730.61 484.23C1718.46 509.24 1709.67 536.18 1701.89 562.6C1697.16 578.69 1692.6 594.97 1687.64 611.13Z" />
					</g>
					<g id="&lt;Group&gt;">
						<path id="&lt;Path&gt;" class="shp6" d="M1848.69 654.66C1839.51 671.35 1824.8 681.19 1809.01 691C1801.04 695.96 1793.15 701.11 1786.91 708.21C1781.41 714.47 1777.47 721.86 1774.21 729.48C1767.65 744.84 1763.96 761.27 1757.37 776.63C1750.61 792.36 1740.23 806.24 1725.08 814.7C1692.53 832.86 1653.39 824.63 1623.85 804.5C1608.7 794.18 1593.7 781.25 1585.96 764.25C1579.1 749.17 1579.91 732.63 1586.57 717.63C1601.99 682.9 1639.13 669.57 1671.93 656.62C1690.11 649.44 1708.81 641.18 1722.85 627.17C1729.64 620.4 1734.81 612.58 1738.28 603.64C1741.51 595.33 1743.43 586.58 1746.26 578.13C1749.14 569.51 1752.76 561.19 1758.66 554.16C1764.2 547.56 1771.56 542.67 1779.23 538.89C1795.3 530.98 1813.17 526.66 1826.3 513.79C1839.71 500.64 1848.34 483.62 1860.18 469.2C1869.75 457.55 1887.89 439.71 1904.65 446.95C1911.86 450.06 1916.02 457.08 1914.97 464.83C1914.75 466.45 1914.05 467.61 1913.09 468.36C1918.34 499.08 1896.42 528.69 1881.92 554.36C1872.63 570.81 1867.89 588 1863.92 606.33C1860.36 622.78 1856.89 639.77 1848.69 654.66Z" />
						<path id="&lt;Path&gt;" class="shp3" d="M1768.69 577.87C1771.14 570.65 1782.84 573.17 1780.37 580.45C1771.43 606.73 1766.35 634.09 1765.38 661.77C1773.71 650.72 1781.57 639.32 1789.07 627.7C1807.71 598.82 1824.25 568.66 1840.72 538.51C1844.41 531.75 1855.04 537.25 1851.34 544.01C1822.33 597.13 1792.81 650.91 1752.5 696.5C1732.58 719.03 1709.94 738.46 1685.4 755.8C1685.15 755.98 1684.9 756.15 1684.65 756.33C1697.39 755.48 1710.14 754.63 1722.88 753.78C1730.58 753.26 1731.03 765.22 1723.35 765.73C1707.44 766.79 1691.53 767.85 1675.63 768.91C1673.07 769.08 1671.32 767.87 1670.39 766.17C1650.81 779.46 1630.95 792.39 1612.62 807.4C1588.23 827.36 1566.56 851.38 1554.9 881.04C1552.09 888.21 1541.49 882.64 1544.28 875.54C1565.7 821.05 1616.91 788.06 1663.27 756.56C1688.15 739.66 1712.01 721.84 1732.92 700.1C1740.1 692.64 1746.95 684.87 1753.51 676.87C1753.37 676.35 1753.28 675.79 1753.27 675.17C1752.89 642.11 1758.04 609.17 1768.69 577.87Z" />
					</g>
					<g id="&lt;Group&gt;">
						<path id="&lt;Path&gt;" class="shp7" d="M1625.64 327.68L396.47 327.68C380.28 327.68 367.14 340.81 367.14 357.01L367.14 1171.61C367.14 1187.8 380.28 1200.94 396.47 1200.94L1625.64 1200.94C1641.84 1200.94 1654.98 1187.8 1654.98 1171.61L1654.98 357.01C1654.98 340.81 1641.84 327.68 1625.64 327.68Z" />
						<path id="&lt;Path&gt;" class="shp8" d="M1491.66 1099.73L1002.54 1099.73L1002.54 808.26L1491.66 808.26L1491.66 1099.73Z" />
						<path id="&lt;Path&gt;" class="shp9" d="M963.54 787.48L474.42 787.48L474.42 496.01L963.54 496.01L963.54 787.48Z" />
						<path id="&lt;Path&gt;" class="shp10" d="M1522.33 917.25L1288.82 917.25C1277.32 917.25 1268.01 907.93 1268.01 896.44L1268.01 517.66C1268.01 506.17 1277.32 496.85 1288.82 496.85L1522.33 496.85C1533.82 496.85 1543.14 506.17 1543.14 517.66L1543.14 896.44C1543.14 907.93 1533.82 917.25 1522.33 917.25Z" />
						<path id="&lt;Path&gt;" class="shp11" d="M1507.3 521.47L1306.09 521.47C1297.38 521.47 1290.33 528.53 1290.33 537.23L1290.33 676.26C1290.33 684.96 1297.38 692.02 1306.09 692.02L1507.3 692.02C1516 692.02 1523.06 684.96 1523.06 676.26L1523.06 537.23C1523.06 528.53 1516 521.47 1507.3 521.47Z" />
						<g id="&lt;Group&gt;">
							<path id="&lt;Path&gt;" class="shp12" d="M1507.3 723.73L1306.09 723.73C1297.38 723.73 1290.33 730.78 1290.33 739.49L1290.33 878.51C1290.33 887.22 1297.38 894.27 1306.09 894.27L1507.3 894.27C1516 894.27 1523.06 887.22 1523.06 878.51L1523.06 739.49C1523.06 730.78 1516 723.73 1507.3 723.73Z" />
							<g id="&lt;Group&gt;">
								<path id="&lt;Path&gt;" class="shp13" d="M1342.59 789.86L1317.04 789.86L1317.04 764.31L1342.59 764.31L1342.59 789.86Z" />
								<path id="&lt;Path&gt;" class="shp14" d="M1381.03 789.86L1355.48 789.86L1355.48 764.31L1381.03 764.31L1381.03 789.86Z" />
								<path id="&lt;Path&gt;" class="shp13" d="M1419.47 789.86L1393.92 789.86L1393.92 764.31L1419.47 764.31L1419.47 789.86Z" />
								<path id="&lt;Path&gt;" class="shp14" d="M1457.91 789.86L1432.36 789.86L1432.36 764.31L1457.91 764.31L1457.91 789.86Z" />
								<path id="&lt;Path&gt;" class="shp13" d="M1496.34 789.86L1470.79 789.86L1470.79 764.31L1496.34 764.31L1496.34 789.86Z" />
							</g>
							<path id="&lt;Path&gt;" class="shp15" d="M1507.3 723.73L1306.09 723.73C1297.38 723.73 1290.33 730.78 1290.33 739.49L1290.33 744.2L1523.06 744.2L1523.06 739.49C1523.06 730.78 1516 723.73 1507.3 723.73Z" />
						</g>
						<g id="&lt;Group&gt;">
							<path id="&lt;Path&gt;" class="shp10" d="M520.36 449.54L438.06 449.54C431.04 449.54 425.34 455.24 425.34 462.26L425.34 808.53C425.34 815.56 431.04 821.25 438.06 821.25L520.36 821.25C527.39 821.25 533.08 815.56 533.08 808.53L533.08 462.26C533.08 455.24 527.39 449.54 520.36 449.54Z" />
							<path id="&lt;Path&gt;" class="shp16" d="M519.82 449.54L438.6 449.54C431.28 449.54 425.34 455.48 425.34 462.8L425.34 478.53L533.08 478.53L533.08 462.8C533.08 455.48 527.15 449.54 519.82 449.54Z" />
							<path id="&lt;Path&gt;" class="shp17" d="M473.65 530.29L436.02 530.29L436.02 492.67L473.65 492.67L473.65 530.29Z" />
							<path id="&lt;Path&gt;" class="shp17" d="M520.14 573.45L482.52 573.45L482.52 535.82L520.14 535.82L520.14 573.45Z" />
							<path id="&lt;Path&gt;" class="shp17" d="M473.65 612.07L436.02 612.07L436.02 574.45L473.65 574.45L473.65 612.07Z" />
							<path id="&lt;Path&gt;" class="shp17" d="M520.14 655.22L482.52 655.22L482.52 617.6L520.14 617.6L520.14 655.22Z" />
							<path id="&lt;Path&gt;" class="shp17" d="M473.65 693.85L436.02 693.85L436.02 656.22L473.65 656.22L473.65 693.85Z" />
							<path id="&lt;Path&gt;" class="shp17" d="M520.14 737L482.52 737L482.52 699.38L520.14 699.38L520.14 737Z" />
						</g>
						<g id="&lt;Group&gt;">
							<path id="&lt;Path&gt;" class="shp10" d="M1217.5 1039.55L785.27 1039.55C779.55 1039.55 774.92 1044.18 774.92 1049.89L774.92 1118.86C774.92 1124.57 779.55 1129.21 785.27 1129.21L1217.5 1129.21C1223.21 1129.21 1227.85 1124.57 1227.85 1118.86L1227.85 1049.89C1227.85 1044.18 1223.21 1039.55 1217.5 1039.55Z" />
							<path id="&lt;Path&gt;" class="shp18" d="M1222.87 1104.35L791.54 1104.35L791.54 1068.81L1222.87 1068.81L1222.87 1104.35Z" />
							<path id="&lt;Path&gt;" class="shp16" d="M1217.42 1039.55L785.35 1039.55C779.59 1039.55 774.92 1044.21 774.92 1049.97L774.92 1054.88L1227.85 1054.88L1227.85 1049.97C1227.85 1044.21 1223.18 1039.55 1217.42 1039.55Z" />
							<g id="&lt;Group&gt;">
								<path id="&lt;Path&gt;" class="shp19" d="M791.54 1104.35L786.49 1113.93L791.54 1113.93L796.59 1113.93L791.54 1104.35Z" />
								<path id="&lt;Path&gt;" class="shp19" d="M871.68 1104.35L866.62 1113.93L871.68 1113.93L876.73 1113.93L871.68 1104.35Z" />
								<path id="&lt;Path&gt;" class="shp19" d="M984.91 1104.35L979.86 1113.93L984.91 1113.93L989.96 1113.93L984.91 1104.35Z" />
								<path id="&lt;Path&gt;" class="shp19" d="M1222.87 1104.35L1217.82 1113.93L1222.87 1113.93L1227.92 1113.93L1222.87 1104.35Z" />
							</g>
							<path id="&lt;Path&gt;" class="shp19" d="M801.82 1104.35L800.43 1104.35L800.43 1068.81L801.82 1068.81L801.82 1104.35Z" />
							<path id="&lt;Path&gt;" class="shp19" d="M814.54 1104.35L813.14 1104.35L813.14 1068.81L814.54 1068.81L814.54 1104.35Z" />
							<path id="&lt;Path&gt;" class="shp19" d="M821.51 1104.35L820.11 1104.35L820.11 1068.81L821.51 1068.81L821.51 1104.35Z" />
							<path id="&lt;Path&gt;" class="shp19" d="M826.03 1104.35L824.64 1104.35L824.64 1068.81L826.03 1068.81L826.03 1104.35Z" />
							<path id="&lt;Path&gt;" class="shp19" d="M872.37 1104.35L870.98 1104.35L870.98 1068.81L872.37 1068.81L872.37 1104.35Z" />
							<path id="&lt;Path&gt;" class="shp19" d="M985.6 1104.35L984.21 1104.35L984.21 1068.81L985.6 1068.81L985.6 1104.35Z" />
							<path id="&lt;Path&gt;" class="shp19" d="M996.06 1104.35L994.66 1104.35L994.66 1068.81L996.06 1068.81L996.06 1104.35Z" />
							<path id="&lt;Path&gt;" class="shp19" d="M1001.84 1104.35L1000.44 1104.35L1000.44 1068.81L1001.84 1068.81L1001.84 1104.35Z" />
							<path id="&lt;Path&gt;" class="shp19" d="M1097.79 1104.35L1096.4 1104.35L1096.4 1068.81L1097.79 1068.81L1097.79 1104.35Z" />
							<path id="&lt;Path&gt;" class="shp19" d="M1089.43 1104.35L1088.03 1104.35L1088.03 1068.81L1089.43 1068.81L1089.43 1104.35Z" />
							<path id="&lt;Path&gt;" class="shp19" d="M1084.55 1104.35L1083.16 1104.35L1083.16 1068.81L1084.55 1068.81L1084.55 1104.35Z" />
							<path id="&lt;Path&gt;" class="shp19" d="M1104.76 1104.35L1103.36 1104.35L1103.36 1068.81L1104.76 1068.81L1104.76 1104.35Z" />
						</g>
						<g id="&lt;Group&gt;">
							<path id="&lt;Path&gt;" class="shp10" d="M1210.86 522.41L661.78 522.41C656.91 522.41 652.96 518.47 652.96 513.6L652.96 443.47C652.96 438.6 656.91 434.65 661.78 434.65L1210.86 434.65C1215.73 434.65 1219.68 438.6 1219.68 443.47L1219.68 513.6C1219.68 518.47 1215.73 522.41 1210.86 522.41Z" />
							<g id="&lt;Group&gt;">
								<path id="&lt;Path&gt;" class="shp11" d="M759.94 478.53C759.94 494.71 746.83 507.82 730.65 507.82C714.48 507.82 701.36 494.71 701.36 478.53C701.36 462.36 714.48 449.24 730.65 449.24C746.83 449.24 759.94 462.36 759.94 478.53Z" />
								<path id="&lt;Path&gt;" class="shp12" d="M842.21 478.53C842.21 494.71 829.09 507.82 812.92 507.82C796.74 507.82 783.63 494.71 783.63 478.53C783.63 462.36 796.74 449.24 812.92 449.24C829.09 449.24 842.21 462.36 842.21 478.53Z" />
								<path id="&lt;Path&gt;" class="shp3" d="M924.47 478.53C924.47 494.71 911.36 507.82 895.19 507.82C879.01 507.82 865.9 494.71 865.9 478.53C865.9 462.36 879.01 449.24 895.19 449.24C911.36 449.24 924.47 462.36 924.47 478.53Z" />
								<path id="&lt;Path&gt;" class="shp20" d="M1006.74 478.53C1006.74 494.71 993.63 507.82 977.45 507.82C961.28 507.82 948.17 494.71 948.17 478.53C948.17 462.36 961.28 449.24 977.45 449.24C993.63 449.24 1006.74 462.36 1006.74 478.53Z" />
								<path id="&lt;Path&gt;" class="shp21" d="M1089.01 478.53C1089.01 494.71 1075.9 507.82 1059.72 507.82C1043.55 507.82 1030.43 494.71 1030.43 478.53C1030.43 462.36 1043.55 449.24 1059.72 449.24C1075.9 449.24 1089.01 462.36 1089.01 478.53Z" />
								<path id="&lt;Path&gt;" class="shp22" d="M1171.28 478.53C1171.28 494.71 1158.16 507.82 1141.99 507.82C1125.81 507.82 1112.7 494.71 1112.7 478.53C1112.7 462.36 1125.81 449.24 1141.99 449.24C1158.16 449.24 1171.28 462.36 1171.28 478.53Z" />
							</g>
							<path id="&lt;Path&gt;" class="shp23" d="M665.55 478.53L678.05 486.55L678.05 478.53L678.05 470.52L665.55 478.53Z" />
							<path id="&lt;Path&gt;" class="shp23" d="M1201.51 478.53L1189.01 470.52L1189.01 478.53L1189.01 486.55L1201.51 478.53Z" />
						</g>
						<path id="&lt;Path&gt;" class="shp3" d="M1625.15 327.45L396.97 327.45C380.5 327.45 367.14 340.8 367.14 357.28L367.14 395.24L1654.98 395.24L1654.98 357.28C1654.98 340.8 1641.62 327.45 1625.15 327.45Z" />
						<path id="&lt;Path&gt;" class="shp7" d="M1519.35 361.34C1519.35 366.73 1514.98 371.1 1509.59 371.1C1504.2 371.1 1499.83 366.73 1499.83 361.34C1499.83 355.96 1504.2 351.59 1509.59 351.59C1514.98 351.59 1519.35 355.96 1519.35 361.34Z" />
						<path id="&lt;Path&gt;" class="shp11" d="M1559.17 361.34C1559.17 366.73 1554.8 371.1 1549.42 371.1C1544.03 371.1 1539.66 366.73 1539.66 361.34C1539.66 355.96 1544.03 351.59 1549.42 351.59C1554.8 351.59 1559.17 355.96 1559.17 361.34Z" />
						<path id="&lt;Path&gt;" class="shp21" d="M1599 361.34C1599 366.73 1594.63 371.1 1589.24 371.1C1583.85 371.1 1579.48 366.73 1579.48 361.34C1579.48 355.96 1583.85 351.59 1589.24 351.59C1594.63 351.59 1599 355.96 1599 361.34Z" />
						<g id="&lt;Group&gt;">
							<g id="&lt;Group&gt;">
								<path id="&lt;Path&gt;" class="shp21" d="M1169.56 904.92L703.57 904.92C696.86 904.92 691.42 899.48 691.42 892.77L691.42 601.81C691.42 595.1 696.86 589.66 703.57 589.66L1169.56 589.66C1176.27 589.66 1181.71 595.1 1181.71 601.81L1181.71 892.77C1181.71 899.48 1176.27 904.92 1169.56 904.92Z" />
								<path id="&lt;Path&gt;" class="shp20" d="M1042.74 696.62L940.7 804.16C933.14 812.14 920.98 813.64 911.71 807.74L810.48 743.39C799.11 736.16 784.26 737.65 774.55 746.99L691.42 826.91L691.42 887.99C691.42 897.34 699 904.92 708.35 904.92L1164.78 904.92C1174.13 904.92 1181.71 897.34 1181.71 887.99L1181.71 751.6L1078.67 691.49C1066.95 684.66 1052.08 686.78 1042.74 696.62Z" />
								<path id="&lt;Path&gt;" class="shp3" d="M787.36 648.98C787.36 667.36 772.47 682.25 754.1 682.25C735.72 682.25 720.83 667.36 720.83 648.98C720.83 630.61 735.72 615.72 754.1 615.72C772.47 615.72 787.36 630.61 787.36 648.98Z" />
							</g>
							<g id="&lt;Group&gt;">
								<g id="&lt;Group&gt;">
									<path id="&lt;Path&gt;" class="shp3" d="M1205.13 931.06L1199.13 931.06C1198.86 931.06 1198.63 930.83 1198.63 930.56C1198.63 930.28 1198.86 930.06 1199.13 930.06L1204.63 930.06L1204.63 924.56C1204.63 924.28 1204.86 924.06 1205.13 924.06C1205.41 924.06 1205.63 924.28 1205.63 924.56L1205.63 930.56C1205.63 930.83 1205.41 931.06 1205.13 931.06Z" />
									<path id="&lt;Compound Path&gt;" class="shp3" d="M1186.92 931.06L1174.71 931.06C1174.43 931.06 1174.21 930.83 1174.21 930.56C1174.21 930.28 1174.43 930.06 1174.71 930.06L1186.92 930.06C1187.2 930.06 1187.42 930.28 1187.42 930.56C1187.42 930.83 1187.2 931.06 1186.92 931.06ZM1162.5 931.06L1150.28 931.06C1150.01 931.06 1149.78 930.83 1149.78 930.56C1149.78 930.28 1150.01 930.06 1150.28 930.06L1162.5 930.06C1162.77 930.06 1163 930.28 1163 930.56C1163 930.83 1162.77 931.06 1162.5 931.06ZM1138.07 931.06L1125.86 931.06C1125.58 931.06 1125.36 930.83 1125.36 930.56C1125.36 930.28 1125.58 930.06 1125.86 930.06L1138.07 930.06C1138.35 930.06 1138.57 930.28 1138.57 930.56C1138.57 930.83 1138.35 931.06 1138.07 931.06ZM1113.65 931.06L1101.44 931.06C1101.16 931.06 1100.94 930.83 1100.94 930.56C1100.94 930.28 1101.16 930.06 1101.44 930.06L1113.65 930.06C1113.92 930.06 1114.15 930.28 1114.15 930.56C1114.15 930.83 1113.92 931.06 1113.65 931.06ZM1089.22 931.06L1077.01 931.06C1076.73 931.06 1076.51 930.83 1076.51 930.56C1076.51 930.28 1076.73 930.06 1077.01 930.06L1089.22 930.06C1089.5 930.06 1089.72 930.28 1089.72 930.56C1089.72 930.83 1089.5 931.06 1089.22 931.06ZM1064.8 931.06L1052.59 931.06C1052.31 931.06 1052.09 930.83 1052.09 930.56C1052.09 930.28 1052.31 930.06 1052.59 930.06L1064.8 930.06C1065.08 930.06 1065.3 930.28 1065.3 930.56C1065.3 930.83 1065.08 931.06 1064.8 931.06ZM1040.38 931.06L1028.16 931.06C1027.89 931.06 1027.66 930.83 1027.66 930.56C1027.66 930.28 1027.89 930.06 1028.16 930.06L1040.38 930.06C1040.65 930.06 1040.88 930.28 1040.88 930.56C1040.88 930.83 1040.65 931.06 1040.38 931.06ZM1015.95 931.06L1003.74 931.06C1003.46 931.06 1003.24 930.83 1003.24 930.56C1003.24 930.28 1003.46 930.06 1003.74 930.06L1015.95 930.06C1016.23 930.06 1016.45 930.28 1016.45 930.56C1016.45 930.83 1016.23 931.06 1015.95 931.06ZM991.53 931.06L979.31 931.06C979.04 931.06 978.81 930.83 978.81 930.56C978.81 930.28 979.04 930.06 979.31 930.06L991.53 930.06C991.8 930.06 992.03 930.28 992.03 930.56C992.03 930.83 991.8 931.06 991.53 931.06ZM967.1 931.06L954.89 931.06C954.61 931.06 954.39 930.83 954.39 930.56C954.39 930.28 954.61 930.06 954.89 930.06L967.1 930.06C967.38 930.06 967.6 930.28 967.6 930.56C967.6 930.83 967.38 931.06 967.1 931.06ZM942.68 931.06L930.47 931.06C930.19 931.06 929.97 930.83 929.97 930.56C929.97 930.28 930.19 930.06 930.47 930.06L942.68 930.06C942.95 930.06 943.18 930.28 943.18 930.56C943.18 930.83 942.95 931.06 942.68 931.06ZM918.25 931.06L906.04 931.06C905.77 931.06 905.54 930.83 905.54 930.56C905.54 930.28 905.77 930.06 906.04 930.06L918.25 930.06C918.53 930.06 918.75 930.28 918.75 930.56C918.75 930.83 918.53 931.06 918.25 931.06ZM893.83 931.06L881.62 931.06C881.34 931.06 881.12 930.83 881.12 930.56C881.12 930.28 881.34 930.06 881.62 930.06L893.83 930.06C894.11 930.06 894.33 930.28 894.33 930.56C894.33 930.83 894.11 931.06 893.83 931.06ZM869.41 931.06L857.19 931.06C856.92 931.06 856.69 930.83 856.69 930.56C856.69 930.28 856.92 930.06 857.19 930.06L869.41 930.06C869.68 930.06 869.91 930.28 869.91 930.56C869.91 930.83 869.68 931.06 869.41 931.06ZM844.98 931.06L832.77 931.06C832.49 931.06 832.27 930.83 832.27 930.56C832.27 930.28 832.49 930.06 832.77 930.06L844.98 930.06C845.26 930.06 845.48 930.28 845.48 930.56C845.48 930.83 845.26 931.06 844.98 931.06ZM820.56 931.06L808.35 931.06C808.07 931.06 807.85 930.83 807.85 930.56C807.85 930.28 808.07 930.06 808.35 930.06L820.56 930.06C820.83 930.06 821.06 930.28 821.06 930.56C821.06 930.83 820.83 931.06 820.56 931.06ZM796.13 931.06L783.92 931.06C783.65 931.06 783.42 930.83 783.42 930.56C783.42 930.28 783.65 930.06 783.92 930.06L796.13 930.06C796.41 930.06 796.63 930.28 796.63 930.56C796.63 930.83 796.41 931.06 796.13 931.06ZM771.71 931.06L759.5 931.06C759.22 931.06 759 930.83 759 930.56C759 930.28 759.22 930.06 759.5 930.06L771.71 930.06C771.99 930.06 772.21 930.28 772.21 930.56C772.21 930.83 771.99 931.06 771.71 931.06ZM747.29 931.06L735.07 931.06C734.8 931.06 734.57 930.83 734.57 930.56C734.57 930.28 734.8 930.06 735.07 930.06L747.29 930.06C747.56 930.06 747.79 930.28 747.79 930.56C747.79 930.83 747.56 931.06 747.29 931.06ZM722.86 931.06L710.65 931.06C710.37 931.06 710.15 930.83 710.15 930.56C710.15 930.28 710.37 930.06 710.65 930.06L722.86 930.06C723.14 930.06 723.36 930.28 723.36 930.56C723.36 930.83 723.14 931.06 722.86 931.06ZM698.44 931.06L686.22 931.06C685.95 931.06 685.72 930.83 685.72 930.56C685.72 930.28 685.95 930.06 686.22 930.06L698.44 930.06C698.71 930.06 698.94 930.28 698.94 930.56C698.94 930.83 698.71 931.06 698.44 931.06Z" />
									<path id="&lt;Path&gt;" class="shp3" d="M674.01 931.06L668.01 931.06C667.74 931.06 667.51 930.83 667.51 930.56L667.51 924.56C667.51 924.28 667.74 924.06 668.01 924.06C668.29 924.06 668.51 924.28 668.51 924.56L668.51 930.06L674.01 930.06C674.29 930.06 674.51 930.28 674.51 930.56C674.51 930.83 674.29 931.06 674.01 931.06Z" />
									<path id="&lt;Compound Path&gt;" class="shp3" d="M668.01 912.83C667.74 912.83 667.51 912.61 667.51 912.33L667.51 900.11C667.51 899.83 667.74 899.61 668.01 899.61C668.29 899.61 668.51 899.83 668.51 900.11L668.51 912.33C668.51 912.61 668.29 912.83 668.01 912.83ZM668.01 888.38C667.74 888.38 667.51 888.16 667.51 887.88L667.51 875.66C667.51 875.38 667.74 875.16 668.01 875.16C668.29 875.16 668.51 875.38 668.51 875.66L668.51 887.88C668.51 888.16 668.29 888.38 668.01 888.38ZM668.01 863.93C667.74 863.93 667.51 863.71 667.51 863.43L667.51 851.21C667.51 850.93 667.74 850.71 668.01 850.71C668.29 850.71 668.51 850.93 668.51 851.21L668.51 863.43C668.51 863.71 668.29 863.93 668.01 863.93ZM668.01 839.48C667.74 839.48 667.51 839.26 667.51 838.98L667.51 826.75C667.51 826.48 667.74 826.25 668.01 826.25C668.29 826.25 668.51 826.48 668.51 826.75L668.51 838.98C668.51 839.26 668.29 839.48 668.01 839.48ZM668.01 815.03C667.74 815.03 667.51 814.81 667.51 814.53L667.51 802.3C667.51 802.03 667.74 801.8 668.01 801.8C668.29 801.8 668.51 802.03 668.51 802.3L668.51 814.53C668.51 814.81 668.29 815.03 668.01 815.03ZM668.01 790.58C667.74 790.58 667.51 790.36 667.51 790.08L667.51 777.85C667.51 777.58 667.74 777.35 668.01 777.35C668.29 777.35 668.51 777.58 668.51 777.85L668.51 790.08C668.51 790.36 668.29 790.58 668.01 790.58ZM668.01 766.13C667.74 766.13 667.51 765.91 667.51 765.63L667.51 753.4C667.51 753.13 667.74 752.9 668.01 752.9C668.29 752.9 668.51 753.13 668.51 753.4L668.51 765.63C668.51 765.91 668.29 766.13 668.01 766.13ZM668.01 741.68C667.74 741.68 667.51 741.46 667.51 741.18L667.51 728.95C667.51 728.68 667.74 728.45 668.01 728.45C668.29 728.45 668.51 728.68 668.51 728.95L668.51 741.18C668.51 741.46 668.29 741.68 668.01 741.68ZM668.01 717.23C667.74 717.23 667.51 717.01 667.51 716.73L667.51 704.5C667.51 704.23 667.74 704 668.01 704C668.29 704 668.51 704.23 668.51 704.5L668.51 716.73C668.51 717.01 668.29 717.23 668.01 717.23ZM668.01 692.78C667.74 692.78 667.51 692.56 667.51 692.28L667.51 680.05C667.51 679.78 667.74 679.55 668.01 679.55C668.29 679.55 668.51 679.78 668.51 680.05L668.51 692.28C668.51 692.56 668.29 692.78 668.01 692.78ZM668.01 668.33C667.74 668.33 667.51 668.11 667.51 667.83L667.51 655.6C667.51 655.33 667.74 655.1 668.01 655.1C668.29 655.1 668.51 655.33 668.51 655.6L668.51 667.83C668.51 668.11 668.29 668.33 668.01 668.33ZM668.01 643.88C667.74 643.88 667.51 643.66 667.51 643.38L667.51 631.15C667.51 630.88 667.74 630.65 668.01 630.65C668.29 630.65 668.51 630.88 668.51 631.15L668.51 643.38C668.51 643.66 668.29 643.88 668.01 643.88ZM668.01 619.43C667.74 619.43 667.51 619.21 667.51 618.93L667.51 606.7C667.51 606.43 667.74 606.2 668.01 606.2C668.29 606.2 668.51 606.43 668.51 606.7L668.51 618.93C668.51 619.21 668.29 619.43 668.01 619.43ZM668.01 594.98C667.74 594.98 667.51 594.75 667.51 594.48L667.51 582.25C667.51 581.98 667.74 581.75 668.01 581.75C668.29 581.75 668.51 581.98 668.51 582.25L668.51 594.48C668.51 594.75 668.29 594.98 668.01 594.98Z" />
									<path id="&lt;Path&gt;" class="shp3" d="M668.01 570.53C667.74 570.53 667.51 570.31 667.51 570.03L667.51 564.03C667.51 563.75 667.74 563.53 668.01 563.53L674.01 563.53C674.29 563.53 674.51 563.75 674.51 564.03C674.51 564.31 674.29 564.53 674.01 564.53L668.51 564.53L668.51 570.03C668.51 570.31 668.29 570.53 668.01 570.53Z" />
									<path id="&lt;Compound Path&gt;" class="shp3" d="M1186.92 564.53L1174.71 564.53C1174.43 564.53 1174.21 564.31 1174.21 564.03C1174.21 563.75 1174.43 563.53 1174.71 563.53L1186.92 563.53C1187.2 563.53 1187.42 563.75 1187.42 564.03C1187.42 564.31 1187.2 564.53 1186.92 564.53ZM1162.5 564.53L1150.28 564.53C1150.01 564.53 1149.78 564.31 1149.78 564.03C1149.78 563.75 1150.01 563.53 1150.28 563.53L1162.5 563.53C1162.77 563.53 1163 563.75 1163 564.03C1163 564.31 1162.77 564.53 1162.5 564.53ZM1138.07 564.53L1125.86 564.53C1125.58 564.53 1125.36 564.31 1125.36 564.03C1125.36 563.75 1125.58 563.53 1125.86 563.53L1138.07 563.53C1138.35 563.53 1138.57 563.75 1138.57 564.03C1138.57 564.31 1138.35 564.53 1138.07 564.53ZM1113.65 564.53L1101.44 564.53C1101.16 564.53 1100.94 564.31 1100.94 564.03C1100.94 563.75 1101.16 563.53 1101.44 563.53L1113.65 563.53C1113.92 563.53 1114.15 563.75 1114.15 564.03C1114.15 564.31 1113.92 564.53 1113.65 564.53ZM1089.22 564.53L1077.01 564.53C1076.74 564.53 1076.51 564.31 1076.51 564.03C1076.51 563.75 1076.74 563.53 1077.01 563.53L1089.22 563.53C1089.5 563.53 1089.72 563.75 1089.72 564.03C1089.72 564.31 1089.5 564.53 1089.22 564.53ZM1064.8 564.53L1052.59 564.53C1052.31 564.53 1052.09 564.31 1052.09 564.03C1052.09 563.75 1052.31 563.53 1052.59 563.53L1064.8 563.53C1065.08 563.53 1065.3 563.75 1065.3 564.03C1065.3 564.31 1065.08 564.53 1064.8 564.53ZM1040.38 564.53L1028.16 564.53C1027.89 564.53 1027.66 564.31 1027.66 564.03C1027.66 563.75 1027.89 563.53 1028.16 563.53L1040.38 563.53C1040.65 563.53 1040.88 563.75 1040.88 564.03C1040.88 564.31 1040.65 564.53 1040.38 564.53ZM1015.95 564.53L1003.74 564.53C1003.46 564.53 1003.24 564.31 1003.24 564.03C1003.24 563.75 1003.46 563.53 1003.74 563.53L1015.95 563.53C1016.23 563.53 1016.45 563.75 1016.45 564.03C1016.45 564.31 1016.23 564.53 1015.95 564.53ZM991.53 564.53L979.31 564.53C979.04 564.53 978.81 564.31 978.81 564.03C978.81 563.75 979.04 563.53 979.31 563.53L991.53 563.53C991.8 563.53 992.03 563.75 992.03 564.03C992.03 564.31 991.8 564.53 991.53 564.53ZM967.1 564.53L954.89 564.53C954.61 564.53 954.39 564.31 954.39 564.03C954.39 563.75 954.61 563.53 954.89 563.53L967.1 563.53C967.38 563.53 967.6 563.75 967.6 564.03C967.6 564.31 967.38 564.53 967.1 564.53ZM942.68 564.53L930.47 564.53C930.19 564.53 929.97 564.31 929.97 564.03C929.97 563.75 930.19 563.53 930.47 563.53L942.68 563.53C942.95 563.53 943.18 563.75 943.18 564.03C943.18 564.31 942.95 564.53 942.68 564.53ZM918.25 564.53L906.04 564.53C905.77 564.53 905.54 564.31 905.54 564.03C905.54 563.75 905.77 563.53 906.04 563.53L918.25 563.53C918.53 563.53 918.75 563.75 918.75 564.03C918.75 564.31 918.53 564.53 918.25 564.53ZM893.83 564.53L881.62 564.53C881.34 564.53 881.12 564.31 881.12 564.03C881.12 563.75 881.34 563.53 881.62 563.53L893.83 563.53C894.11 563.53 894.33 563.75 894.33 564.03C894.33 564.31 894.11 564.53 893.83 564.53ZM869.41 564.53L857.19 564.53C856.92 564.53 856.69 564.31 856.69 564.03C856.69 563.75 856.92 563.53 857.19 563.53L869.41 563.53C869.68 563.53 869.91 563.75 869.91 564.03C869.91 564.31 869.68 564.53 869.41 564.53ZM844.98 564.53L832.77 564.53C832.49 564.53 832.27 564.31 832.27 564.03C832.27 563.75 832.49 563.53 832.77 563.53L844.98 563.53C845.26 563.53 845.48 563.75 845.48 564.03C845.48 564.31 845.26 564.53 844.98 564.53ZM820.56 564.53L808.35 564.53C808.07 564.53 807.85 564.31 807.85 564.03C807.85 563.75 808.07 563.53 808.35 563.53L820.56 563.53C820.83 563.53 821.06 563.75 821.06 564.03C821.06 564.31 820.83 564.53 820.56 564.53ZM796.13 564.53L783.92 564.53C783.65 564.53 783.42 564.31 783.42 564.03C783.42 563.75 783.65 563.53 783.92 563.53L796.13 563.53C796.41 563.53 796.63 563.75 796.63 564.03C796.63 564.31 796.41 564.53 796.13 564.53ZM771.71 564.53L759.5 564.53C759.22 564.53 759 564.31 759 564.03C759 563.75 759.22 563.53 759.5 563.53L771.71 563.53C771.99 563.53 772.21 563.75 772.21 564.03C772.21 564.31 771.99 564.53 771.71 564.53ZM747.29 564.53L735.07 564.53C734.8 564.53 734.57 564.31 734.57 564.03C734.57 563.75 734.8 563.53 735.07 563.53L747.29 563.53C747.56 563.53 747.79 563.75 747.79 564.03C747.79 564.31 747.56 564.53 747.29 564.53ZM722.86 564.53L710.65 564.53C710.37 564.53 710.15 564.31 710.15 564.03C710.15 563.75 710.37 563.53 710.65 563.53L722.86 563.53C723.14 563.53 723.36 563.75 723.36 564.03C723.36 564.31 723.14 564.53 722.86 564.53ZM698.44 564.53L686.22 564.53C685.95 564.53 685.72 564.31 685.72 564.03C685.72 563.75 685.95 563.53 686.22 563.53L698.44 563.53C698.71 563.53 698.94 563.75 698.94 564.03C698.94 564.31 698.71 564.53 698.44 564.53Z" />
									<path id="&lt;Path&gt;" class="shp3" d="M1205.13 570.53C1204.86 570.53 1204.63 570.31 1204.63 570.03L1204.63 564.53L1199.13 564.53C1198.86 564.53 1198.63 564.31 1198.63 564.03C1198.63 563.75 1198.86 563.53 1199.13 563.53L1205.13 563.53C1205.41 563.53 1205.63 563.75 1205.63 564.03L1205.63 570.03C1205.63 570.31 1205.41 570.53 1205.13 570.53Z" />
									<path id="&lt;Compound Path&gt;" class="shp3" d="M1205.13 912.83C1204.86 912.83 1204.63 912.61 1204.63 912.33L1204.63 900.11C1204.63 899.83 1204.86 899.61 1205.13 899.61C1205.41 899.61 1205.63 899.83 1205.63 900.11L1205.63 912.33C1205.63 912.61 1205.41 912.83 1205.13 912.83ZM1205.13 888.38C1204.86 888.38 1204.63 888.16 1204.63 887.88L1204.63 875.66C1204.63 875.38 1204.86 875.16 1205.13 875.16C1205.41 875.16 1205.63 875.38 1205.63 875.66L1205.63 887.88C1205.63 888.16 1205.41 888.38 1205.13 888.38ZM1205.13 863.93C1204.86 863.93 1204.63 863.71 1204.63 863.43L1204.63 851.21C1204.63 850.93 1204.86 850.71 1205.13 850.71C1205.41 850.71 1205.63 850.93 1205.63 851.21L1205.63 863.43C1205.63 863.71 1205.41 863.93 1205.13 863.93ZM1205.13 839.48C1204.86 839.48 1204.63 839.26 1204.63 838.98L1204.63 826.75C1204.63 826.48 1204.86 826.25 1205.13 826.25C1205.41 826.25 1205.63 826.48 1205.63 826.75L1205.63 838.98C1205.63 839.26 1205.41 839.48 1205.13 839.48ZM1205.13 815.03C1204.86 815.03 1204.63 814.81 1204.63 814.53L1204.63 802.3C1204.63 802.03 1204.86 801.8 1205.13 801.8C1205.41 801.8 1205.63 802.03 1205.63 802.3L1205.63 814.53C1205.63 814.81 1205.41 815.03 1205.13 815.03ZM1205.13 790.58C1204.86 790.58 1204.63 790.36 1204.63 790.08L1204.63 777.86C1204.63 777.58 1204.86 777.36 1205.13 777.36C1205.41 777.36 1205.63 777.58 1205.63 777.86L1205.63 790.08C1205.63 790.36 1205.41 790.58 1205.13 790.58ZM1205.13 766.13C1204.86 766.13 1204.63 765.91 1204.63 765.63L1204.63 753.4C1204.63 753.13 1204.86 752.9 1205.13 752.9C1205.41 752.9 1205.63 753.13 1205.63 753.4L1205.63 765.63C1205.63 765.91 1205.41 766.13 1205.13 766.13ZM1205.13 741.68C1204.86 741.68 1204.63 741.46 1204.63 741.18L1204.63 728.95C1204.63 728.68 1204.86 728.45 1205.13 728.45C1205.41 728.45 1205.63 728.68 1205.63 728.95L1205.63 741.18C1205.63 741.46 1205.41 741.68 1205.13 741.68ZM1205.13 717.23C1204.86 717.23 1204.63 717.01 1204.63 716.73L1204.63 704.5C1204.63 704.23 1204.86 704 1205.13 704C1205.41 704 1205.63 704.23 1205.63 704.5L1205.63 716.73C1205.63 717.01 1205.41 717.23 1205.13 717.23ZM1205.13 692.78C1204.86 692.78 1204.63 692.56 1204.63 692.28L1204.63 680.05C1204.63 679.78 1204.86 679.55 1205.13 679.55C1205.41 679.55 1205.63 679.78 1205.63 680.05L1205.63 692.28C1205.63 692.56 1205.41 692.78 1205.13 692.78ZM1205.13 668.33C1204.86 668.33 1204.63 668.11 1204.63 667.83L1204.63 655.6C1204.63 655.33 1204.86 655.1 1205.13 655.1C1205.41 655.1 1205.63 655.33 1205.63 655.6L1205.63 667.83C1205.63 668.11 1205.41 668.33 1205.13 668.33ZM1205.13 643.88C1204.86 643.88 1204.63 643.66 1204.63 643.38L1204.63 631.15C1204.63 630.88 1204.86 630.65 1205.13 630.65C1205.41 630.65 1205.63 630.88 1205.63 631.15L1205.63 643.38C1205.63 643.66 1205.41 643.88 1205.13 643.88ZM1205.13 619.43C1204.86 619.43 1204.63 619.21 1204.63 618.93L1204.63 606.7C1204.63 606.43 1204.86 606.2 1205.13 606.2C1205.41 606.2 1205.63 606.43 1205.63 606.7L1205.63 618.93C1205.63 619.21 1205.41 619.43 1205.13 619.43ZM1205.13 594.98C1204.86 594.98 1204.63 594.76 1204.63 594.48L1204.63 582.25C1204.63 581.98 1204.86 581.75 1205.13 581.75C1205.41 581.75 1205.63 581.98 1205.63 582.25L1205.63 594.48C1205.63 594.76 1205.41 594.98 1205.13 594.98Z" />
								</g>
								<path id="&lt;Path&gt;" class="shp3" d="M679.35 573.43L660.55 573.43L660.55 554.63L679.35 554.63L679.35 573.43Z" />
								<path id="&lt;Path&gt;" class="shp3" d="M679.35 939.95L660.55 939.95L660.55 921.16L679.35 921.16L679.35 939.95Z" />
								<path id="&lt;Path&gt;" class="shp3" d="M1212.09 573.43L1193.29 573.43L1193.29 554.63L1212.09 554.63L1212.09 573.43Z" />
								<path id="&lt;Path&gt;" class="shp3" d="M679.35 756.69L660.55 756.69L660.55 737.89L679.35 737.89L679.35 756.69Z" />
								<path id="&lt;Path&gt;" class="shp3" d="M1212.09 756.69L1193.29 756.69L1193.29 737.89L1212.09 737.89L1212.09 756.69Z" />
								<path id="&lt;Path&gt;" class="shp3" d="M1212.09 939.95L1193.29 939.95L1193.29 921.16L1212.09 921.16L1212.09 939.95Z" />
								<g id="&lt;Group&gt;">
									<path id="&lt;Path&gt;" class="shp3" d="M945.97 573.43L927.17 573.43L927.17 554.63L945.97 554.63L945.97 573.43Z" />
									<path id="&lt;Path&gt;" class="shp3" d="M945.97 939.95L927.17 939.95L927.17 921.16L945.97 921.16L945.97 939.95Z" />
								</g>
							</g>
						</g>
						<g id="&lt;Group&gt;">
							<path id="&lt;Path&gt;" class="shp10" d="M1176.03 963.84L694.31 963.84C691.95 963.84 690.03 965.76 690.03 968.12L690.03 1006.84C690.03 1009.21 691.95 1011.13 694.31 1011.13L1176.03 1011.13C1178.4 1011.13 1180.32 1009.21 1180.32 1006.84L1180.32 968.12C1180.32 965.76 1178.4 963.84 1176.03 963.84Z" />
							<path id="&lt;Path&gt;" class="shp24" d="M1169.08 999.49L698.97 999.49L698.97 985.21L1169.08 985.21L1169.08 999.49Z" />
							<path id="&lt;Path&gt;" class="shp16" d="M1176.23 963.84L694.12 963.84C691.86 963.84 690.03 965.67 690.03 967.93L690.03 976.09L1180.32 976.09L1180.32 967.93C1180.32 965.67 1178.49 963.84 1176.23 963.84Z" />
						</g>
						<g id="&lt;Group&gt;">
							<path id="&lt;Path&gt;" class="shp21" d="M1717.09 817.42C1717.09 852.11 1688.97 880.23 1654.28 880.23C1619.59 880.23 1591.46 852.11 1591.46 817.42C1591.46 782.72 1619.59 754.6 1654.28 754.6C1688.97 754.6 1717.09 782.72 1717.09 817.42Z" />
							<g id="&lt;Group&gt;">
								<path id="&lt;Compound Path&gt;" fill-rule="evenodd" class="shp7" d="M1701.66 813L1701.66 821.83C1701.66 822.4 1701.23 822.87 1700.66 822.93L1685.64 824.4C1684.82 828.1 1683.36 831.56 1681.39 834.65L1690.97 846.32C1691.33 846.76 1691.3 847.39 1690.9 847.79L1687.78 850.92L1684.66 854.04C1684.26 854.44 1683.62 854.47 1683.18 854.11L1671.52 844.53C1668.42 846.5 1664.96 847.96 1661.26 848.78L1659.79 863.8C1659.73 864.36 1659.26 864.79 1658.7 864.79L1649.86 864.79C1649.3 864.79 1648.82 864.36 1648.77 863.8L1647.3 848.78C1643.6 847.96 1640.14 846.5 1637.04 844.53L1625.38 854.11C1624.94 854.47 1624.3 854.44 1623.9 854.04L1617.65 847.79C1617.25 847.39 1617.22 846.76 1617.58 846.32L1627.17 834.65C1625.19 831.56 1623.74 828.1 1622.92 824.4L1607.89 822.93C1607.33 822.87 1606.9 822.4 1606.9 821.83L1606.9 813C1606.9 812.43 1607.33 811.96 1607.89 811.91L1622.92 810.44C1623.74 806.74 1625.19 803.28 1627.17 800.18L1617.58 788.51C1617.22 788.08 1617.25 787.44 1617.65 787.04L1620.78 783.92L1623.9 780.79C1624.3 780.39 1624.94 780.36 1625.38 780.72L1637.04 790.31C1640.14 788.33 1643.6 786.88 1647.3 786.06L1648.77 771.03C1648.82 770.47 1649.3 770.04 1649.86 770.04L1658.7 770.04C1659.26 770.04 1659.73 770.47 1659.79 771.03L1661.26 786.06C1664.96 786.88 1668.42 788.33 1671.52 790.31L1683.18 780.72C1683.62 780.36 1684.26 780.39 1684.66 780.79L1687.78 783.92L1690.9 787.04C1691.3 787.44 1691.33 788.08 1690.97 788.51L1681.39 800.18C1683.36 803.28 1684.82 806.74 1685.64 810.44L1700.66 811.91C1701.23 811.96 1701.66 812.43 1701.66 813ZM1679.2 817.42C1679.2 803.65 1668.04 792.49 1654.28 792.49C1640.51 792.49 1629.35 803.65 1629.35 817.42C1629.35 831.18 1640.51 842.34 1654.28 842.34C1668.04 842.34 1679.2 831.18 1679.2 817.42Z" />
								<path id="&lt;Compound Path&gt;" fill-rule="evenodd" class="shp7" d="M1674.92 817.42C1674.92 828.81 1665.68 838.06 1654.28 838.06C1642.88 838.06 1633.64 828.81 1633.64 817.42C1633.64 806.02 1642.88 796.78 1654.28 796.78C1665.68 796.78 1674.92 806.02 1674.92 817.42ZM1671.66 817.42C1671.66 807.82 1663.88 800.03 1654.28 800.03C1644.68 800.03 1636.9 807.82 1636.9 817.42C1636.9 827.02 1644.68 834.8 1654.28 834.8C1663.88 834.8 1671.66 827.02 1671.66 817.42Z" />
							</g>
						</g>
						<g id="&lt;Group&gt;">
							<path id="&lt;Path&gt;" class="shp11" d="M1717.09 992.35C1717.09 1027.04 1688.97 1055.16 1654.28 1055.16C1619.59 1055.16 1591.46 1027.04 1591.46 992.35C1591.46 957.66 1619.59 929.53 1654.28 929.53C1688.97 929.53 1717.09 957.66 1717.09 992.35Z" />
							<g id="&lt;Group&gt;">
								<path id="&lt;Compound Path&gt;" fill-rule="evenodd" class="shp7" d="M1701.66 986.93L1701.66 997.77C1701.66 998.75 1700.91 999.57 1699.93 999.65L1686.73 1000.81C1686.69 1000.96 1686.65 1001.1 1686.61 1001.24L1697.46 1008.85C1698.27 1009.41 1698.51 1010.5 1698.02 1011.35L1695.31 1016.04L1692.6 1020.73C1692.11 1021.58 1691.05 1021.91 1690.16 1021.5L1678.14 1015.9C1678.04 1016 1677.93 1016.11 1677.83 1016.21L1683.43 1028.23C1683.84 1029.12 1683.51 1030.18 1682.66 1030.67L1677.97 1033.38L1673.28 1036.09C1672.43 1036.58 1671.34 1036.34 1670.78 1035.53L1663.17 1024.68C1663.03 1024.72 1662.89 1024.76 1662.74 1024.8L1661.58 1038C1661.5 1038.98 1660.68 1039.73 1659.7 1039.73L1648.86 1039.73C1647.88 1039.73 1647.06 1038.98 1646.98 1038L1645.82 1024.8C1645.67 1024.76 1645.53 1024.72 1645.39 1024.68L1637.78 1035.53C1637.22 1036.34 1636.13 1036.58 1635.28 1036.09L1630.59 1033.38L1625.9 1030.67C1625.05 1030.18 1624.71 1029.12 1625.13 1028.23L1630.73 1016.21C1630.62 1016.11 1630.52 1016 1630.42 1015.9L1618.4 1021.5C1617.51 1021.91 1616.45 1021.58 1615.96 1020.73L1610.54 1011.35C1610.05 1010.5 1610.29 1009.41 1611.09 1008.85L1621.95 1001.24C1621.91 1001.1 1621.87 1000.96 1621.83 1000.81L1608.63 999.65C1607.65 999.57 1606.9 998.75 1606.9 997.77L1606.9 986.93C1606.9 985.95 1607.65 985.13 1608.63 985.05L1621.83 983.89C1621.87 983.74 1621.91 983.6 1621.95 983.46L1611.09 975.85C1610.29 975.29 1610.05 974.2 1610.54 973.35L1615.96 963.97C1616.45 963.12 1617.51 962.78 1618.4 963.2L1630.42 968.8C1630.52 968.7 1630.62 968.59 1630.73 968.49L1625.13 956.47C1624.71 955.58 1625.05 954.52 1625.9 954.03L1630.59 951.32L1635.28 948.61C1636.13 948.12 1637.22 948.36 1637.78 949.16L1645.39 960.02C1645.53 959.98 1645.67 959.94 1645.82 959.9L1646.98 946.7C1647.06 945.72 1647.88 944.97 1648.86 944.97L1659.7 944.97C1660.68 944.97 1661.5 945.72 1661.58 946.7L1662.74 959.9C1662.89 959.94 1663.03 959.98 1663.17 960.02L1670.78 949.16C1671.34 948.36 1672.43 948.12 1673.28 948.61L1677.97 951.32L1682.66 954.03C1683.51 954.52 1683.84 955.58 1683.43 956.47L1677.83 968.49C1677.93 968.59 1678.04 968.7 1678.14 968.8L1690.16 963.2C1691.05 962.78 1692.11 963.12 1692.6 963.97L1695.31 968.66L1698.02 973.35C1698.51 974.2 1698.27 975.29 1697.46 975.85L1686.61 983.46C1686.65 983.6 1686.69 983.74 1686.73 983.89L1699.93 985.05C1700.91 985.13 1701.66 985.95 1701.66 986.93ZM1679.34 992.35C1679.34 978.51 1668.12 967.29 1654.28 967.29C1640.44 967.29 1629.22 978.51 1629.22 992.35C1629.22 1006.19 1640.44 1017.41 1654.28 1017.41C1668.12 1017.41 1679.34 1006.19 1679.34 992.35Z" />
							</g>
						</g>
						<g id="&lt;Group&gt;">
							<path id="&lt;Path&gt;" class="shp25" d="M1341.6 608.33L1306.71 608.33L1306.71 573.43L1341.6 573.43L1341.6 608.33Z" />
							<path id="&lt;Path&gt;" class="shp26" d="M1396.63 608.33L1361.73 608.33L1361.73 573.43L1396.63 573.43L1396.63 608.33Z" />
							<path id="&lt;Path&gt;" class="shp25" d="M1451.65 608.33L1416.76 608.33L1416.76 573.43L1451.65 573.43L1451.65 608.33Z" />
							<path id="&lt;Path&gt;" class="shp26" d="M1506.68 608.33L1471.78 608.33L1471.78 573.43L1506.68 573.43L1506.68 608.33Z" />
							<path id="&lt;Path&gt;" class="shp26" d="M1341.6 659.19L1306.71 659.19L1306.71 624.3L1341.6 624.3L1341.6 659.19Z" />
							<path id="&lt;Path&gt;" class="shp25" d="M1396.63 659.19L1361.73 659.19L1361.73 624.3L1396.63 624.3L1396.63 659.19Z" />
							<path id="&lt;Path&gt;" class="shp26" d="M1451.65 659.19L1416.76 659.19L1416.76 624.3L1451.65 624.3L1451.65 659.19Z" />
							<path id="&lt;Path&gt;" class="shp25" d="M1506.68 659.19L1471.78 659.19L1471.78 624.3L1506.68 624.3L1506.68 659.19Z" />
						</g>
						<path id="&lt;Path&gt;" class="shp26" d="M1507.3 521.47L1306.09 521.47C1297.38 521.47 1290.33 528.53 1290.33 537.23L1290.33 540.33L1523.06 540.33L1523.06 537.23C1523.06 528.53 1516 521.47 1507.3 521.47Z" />
					</g>
					<g id="&lt;Group&gt;">
					</g>
				</g>
			</g>
		</g>
	</g>
</svg>