<svg version="1.2" baseProfile="tiny-ps" xmlns="http://www.w3.org/2000/svg" viewBox="0 0 1224 958" width="1224" height="958">
	<title>696-ai</title>
	<defs>
		<clipPath clipPathUnits="userSpaceOnUse" id="cp1">
			<path d="M984.13 199.35L984.13 566.5C984.13 583.83 973.95 598.81 959.22 605.73C953.61 608.39 947.38 609.86 940.8 609.86L267.65 609.86C243.74 609.86 224.28 590.41 224.28 566.5L224.28 199.35C224.28 175.44 243.74 155.99 267.65 155.99L940.8 155.99C964.7 155.99 984.13 175.44 984.13 199.35Z" />
		</clipPath>
		<clipPath clipPathUnits="userSpaceOnUse" id="cp2">
			<path d="M356.78 369.78C371.31 362.18 390.57 355.11 411.69 355.11C432.72 355.11 451.91 363.56 466.43 371.11L466.43 290.63L356.78 290.63L356.78 369.78Z" />
		</clipPath>
		<clipPath clipPathUnits="userSpaceOnUse" id="cp3">
			<path d="M371.85 339.85C371.85 360.33 388.45 376.93 408.93 376.93C429.41 376.93 446.01 360.33 446.01 339.85C446.01 319.37 429.41 302.77 408.93 302.77C388.45 302.77 371.85 319.37 371.85 339.85Z" />
		</clipPath>
		<clipPath clipPathUnits="userSpaceOnUse" id="cp4">
			<path d="M151.22 662.58C151.22 715.54 194.16 758.48 247.12 758.48C300.08 758.48 343.02 715.54 343.02 662.58C343.02 609.62 300.08 566.68 247.12 566.68C194.16 566.68 151.22 609.62 151.22 662.58Z" />
		</clipPath>
		<clipPath clipPathUnits="userSpaceOnUse" id="cp5">
			<path d="M1098.18 448.74L844.8 448.74L844.8 385.65L1098.18 385.65L1098.18 448.74Z" />
		</clipPath>
		<clipPath clipPathUnits="userSpaceOnUse" id="cp6">
			<path d="M1089.15 755.9L857.98 755.9C842.13 755.9 829.28 743.05 829.28 727.2L829.28 386.43C829.28 370.58 842.13 357.73 857.98 357.73L1089.15 357.73C1105 357.73 1117.85 370.58 1117.85 386.43L1117.85 727.2C1117.85 743.05 1105 755.9 1089.15 755.9Z" />
		</clipPath>
	</defs>
	<style>
		tspan { white-space:pre }
		.shp0 { fill: #355389 } 
		.shp1 { fill: #466eb6 } 
		.shp2 { fill: #86b1f2 } 
		.shp3 { fill: #efefef } 
		.shp4 { fill: #f8a492 } 
		.shp5 { fill: #f47458 } 
		.shp6 { fill: #fae0b2 } 
		.shp7 { fill: #50bfa5 } 
		.shp8 { fill: #3c8f7c } 
		.shp9 { fill: #b75742 } 
		.shp10 { fill: #11442f } 
		.shp11 { opacity: 0.4;mix-blend-mode: multiply;fill: #000000 } 
		.shp12 { fill: #13375b } 
		.shp13 { fill: #fe875e } 
		.shp14 { fill: #ffffff } 
		.shp15 { fill: #9bc1f9 } 
		.shp16 { fill: #d8553f } 
		.shp17 { fill: #f98591 } 
		.shp18 { fill: #fec65e } 
		.shp19 { fill: #f7f07f } 
		.shp20 { mix-blend-mode: soft-light;fill: #f7f07f } 
		.shp21 { mix-blend-mode: soft-light;fill: #ffffff } 
		.shp22 { fill: #171c51 } 
		.shp23 { fill: #f8c558 } 
		.shp24 { fill: #587cf8 } 
		.shp25 { fill: #d1d1d1 } 
		.shp26 { fill: #9e9e9e } 
		.shp27 { fill: #f4f4f4 } 
		.shp28 { fill: #ff9b48 } 
		.shp29 { fill: #f48c7f } 
		.shp30 { fill: #cccccc } 
		.shp31 { fill: #444444 } 
		.shp32 { fill: #f79c8d } 
		.shp33 { fill: #e5bd83 } 
	</style>
	<g id="OBJECT">
		<g id="&lt;Group&gt;">
			<g id="Object 1 ">
				<g id="&lt;Group&gt;">
					<path id="&lt;Path&gt;" class="shp0" d="M1181.9 781.22L38.5 781.22C38.5 768.36 48.93 757.94 61.79 757.94L1158.62 757.94C1171.48 757.94 1181.9 768.36 1181.9 781.22Z" />
					<g id="&lt;Group&gt;">
						<path id="&lt;Path&gt;" class="shp1" d="M964.68 137.2L940.8 137.2C975.11 137.2 1002.93 165.02 1002.93 199.36L1002.93 618.74C1002.93 653.04 975.11 680.9 940.8 680.9L964.68 680.9C998.98 680.9 1026.81 653.04 1026.81 618.74L1026.81 199.36C1026.81 165.02 998.98 137.2 964.68 137.2Z" />
						<path id="&lt;Path&gt;" class="shp2" d="M459.92 727.48C451.53 727.48 444.7 734.35 444.7 742.71C444.7 746.88 446.39 750.7 449.15 753.46C451.9 756.21 455.72 757.94 459.92 757.94L755.9 757.94C764.29 757.94 771.12 751.08 771.12 742.71C771.12 738.54 769.4 734.72 766.64 731.96C763.89 729.21 760.09 727.48 755.9 727.48L747.97 727.48L727.7 727.48L568.86 727.48L459.92 727.48Z" />
						<path id="&lt;Path&gt;" class="shp1" d="M780.96 727.48L755.9 727.48C760.09 727.48 763.89 729.21 766.64 731.96C769.4 734.72 771.12 738.54 771.12 742.71C771.12 751.08 764.29 757.94 755.9 757.94L780.96 757.94C785.16 757.94 788.95 756.21 791.71 753.46C794.46 750.7 796.19 746.88 796.19 742.71C796.19 734.35 789.36 727.48 780.96 727.48Z" />
						<path id="&lt;Path&gt;" class="shp0" d="M703.36 680.9L727.7 727.48L747.97 727.48L723.59 680.9L703.36 680.9Z" />
						<path id="&lt;Path&gt;" class="shp1" d="M544.51 680.9L568.86 727.48L727.7 727.48L703.36 680.9L544.51 680.9Z" />
						<path id="&lt;Compound Path&gt;" fill-rule="evenodd" class="shp2" d="M267.62 137.2L940.8 137.2C975.11 137.2 1002.93 165.02 1002.93 199.36L1002.93 618.74C1002.93 653.04 975.11 680.9 940.8 680.9L267.62 680.9C233.31 680.9 205.49 653.04 205.49 618.74L205.49 199.36C205.49 165.02 233.31 137.2 267.62 137.2ZM267.65 609.87L940.8 609.87C964.71 609.87 984.13 590.42 984.13 566.51L984.13 199.36C984.13 175.45 964.71 156 940.8 156L267.65 156C243.75 156 224.29 175.45 224.29 199.36L224.29 566.51C224.29 590.42 243.75 609.87 267.65 609.87Z" />
						<path id="&lt;Path&gt;" class="shp3" d="M984.13 199.35L984.13 566.5C984.13 583.83 973.95 598.81 959.22 605.73C953.61 608.39 947.38 609.87 940.8 609.87L267.65 609.87C243.74 609.87 224.28 590.41 224.28 566.5L224.28 199.35C224.28 177.83 240.06 159.91 260.65 156.55C262.93 156.18 265.26 155.99 267.65 155.99L940.8 155.99C943.18 155.99 945.52 156.18 947.8 156.55C968.38 159.91 984.13 177.83 984.13 199.35Z" />
						<g id="&lt;Clip Group&gt;" clip-path="url(#cp1)">
							<g id="&lt;Group&gt;">
								<g id="&lt;Group&gt;">
									<path id="&lt;Path&gt;" class="shp4" d="M616.63 949.08C617.04 949.28 626.42 954.09 623.18 964.11L601.42 964.11C601.9 960.07 604.24 956.46 607.8 954.36C611.25 952.31 614.11 950.61 616.63 949.08Z" />
									<path id="&lt;Path&gt;" class="shp4" d="M713.83 934.96L713.83 950.3C700.54 950.14 694.63 944.16 696.09 932.37C704.06 931.85 708.83 931.18 709.67 931.05C709.74 931.04 709.78 931.03 709.82 931.02L709.89 931.02C712.07 931.02 713.83 932.78 713.83 934.96Z" />
									<path id="&lt;Path&gt;" class="shp5" d="M640.04 934.35C641.66 933.33 643.39 932.22 645.31 931.02C646.81 931.23 648.86 931.46 651.48 931.71C657.21 932.26 666.53 932.92 677.68 932.92C678.66 932.92 679.64 932.92 680.58 932.9C686.6 932.85 691.81 932.64 696.09 932.37C694.63 944.16 700.54 950.14 713.83 950.3L713.83 964.11L623.18 964.11C626.42 954.09 617.04 949.28 616.63 949.08C621.92 945.86 625.83 943.37 631.18 939.98C633.71 938.36 636.57 936.54 640.04 934.35Z" />
									<path id="&lt;Path&gt;" class="shp6" d="M860.08 919.77L860.08 931.02C860.05 931.02 860 931.03 859.94 931.05C858.41 931.21 844.55 932.71 830.84 932.9C829.9 932.92 828.93 932.92 827.94 932.92C816.21 932.92 806.5 932.19 800.88 931.63C798.71 931.4 797.01 931.2 795.8 931.02L795.8 919.77L855.2 919.77L860.08 919.77Z" />
									<path id="&lt;Path&gt;" class="shp7" d="M863.91 913.57L854.78 612.46L853.65 612.49C851.17 612.49 848.75 612.26 846.41 611.78C829.4 608.42 816.59 593.42 816.59 575.43L789.77 575.43L749.99 575.43L764.11 694.03L790.24 913.59L790.98 919.77L795.8 919.77L855.2 919.77L860.08 919.77L864.1 919.77L863.91 913.57Z" />
									<path id="&lt;Path&gt;" class="shp6" d="M709.82 919.77L709.82 931.02C709.78 931.02 709.74 931.03 709.67 931.05C708.14 931.21 694.28 932.71 680.58 932.9C679.64 932.92 678.66 932.92 677.68 932.92C666.53 932.92 657.21 932.26 651.48 931.71C648.94 931.46 646.96 931.23 645.53 931.02L645.53 919.77L648.48 919.77L709.82 919.77Z" />
									<path id="&lt;Path&gt;" class="shp8" d="M749.99 575.43L723.18 575.43C723.18 592.62 712.34 607.07 693.12 611.27C689.45 612.07 685.48 612.49 681.23 612.49L641.53 913.57L640.71 919.77L645.53 919.77L648.48 919.77L709.82 919.77L715.24 919.77L716.58 913.57L764.11 694.03L749.99 575.43Z" />
									<path id="&lt;Path&gt;" class="shp9" d="M713.83 964.11L713.83 964.61C713.83 967.36 711.61 969.59 708.86 969.59L605.25 969.59C604.17 969.59 603.18 969.15 602.48 968.44C601.77 967.73 601.33 966.75 601.33 965.67C601.33 965.15 601.36 964.63 601.42 964.11L623.18 964.11L713.83 964.11Z" />
									<g id="&lt;Group&gt;">
										<path id="&lt;Path&gt;" class="shp10" d="M749.99 575.43L754.55 738.2L764.11 694.03L749.99 575.43Z" />
										<path id="&lt;Path&gt;" class="shp10" d="M853.65 575.43L854.78 612.46L853.65 612.49C851.17 612.49 848.75 612.26 846.41 611.78C829.4 608.42 816.59 593.42 816.59 575.43L853.65 575.43Z" />
										<path id="&lt;Path&gt;" class="shp10" d="M686.11 575.43L723.18 575.43C723.18 592.62 712.34 607.07 693.12 611.27C689.45 612.07 685.48 612.49 681.23 612.49L686.11 575.43Z" />
										<path id="&lt;Path&gt;" class="shp11" d="M686.11 575.43L854.22 593.94L853.65 575.43L686.11 575.43Z" />
									</g>
									<g id="&lt;Group&gt;">
										<g id="&lt;Group&gt;">
											<g id="&lt;Group&gt;">
												<g id="&lt;Group&gt;">
													<path id="&lt;Path&gt;" class="shp5" d="M861.3 931.02L868.04 954.35L867.79 954.35C863.44 947.16 854.9 949.08 844.88 949.08L810.97 949.08C800.94 949.08 792.06 947.16 787.7 954.35L787.69 954.35L794.27 931.02L861.3 931.02Z" />
													<path id="&lt;Path&gt;" class="shp4" d="M870.78 964.81L870.78 966.44L784.72 966.44L784.72 964.81C784.72 961.03 785.8 957.48 787.69 954.35L787.7 954.35C792.06 947.16 801.83 949.08 811.86 949.08L845.77 949.08C855.79 949.08 863.44 947.16 867.79 954.35C869.71 957.48 870.78 961.03 870.78 964.81Z" />
													<path id="&lt;Path&gt;" class="shp9" d="M870.78 964.11L870.78 969.59L784.72 969.59L784.72 964.11L870.78 964.11Z" />
												</g>
											</g>
										</g>
										<g id="&lt;Group&gt;">
											<path id="&lt;Path&gt;" class="shp4" d="M845.97 935.24L808.4 935.24C808.07 935.24 807.81 934.98 807.81 934.65C807.81 934.32 808.07 934.06 808.4 934.06L845.97 934.06C846.3 934.06 846.56 934.32 846.56 934.65C846.56 934.98 846.3 935.24 845.97 935.24Z" />
										</g>
										<g id="&lt;Group&gt;">
											<path id="&lt;Path&gt;" class="shp4" d="M845.97 938.82L808.4 938.82C808.07 938.82 807.81 938.56 807.81 938.23C807.81 937.9 808.07 937.63 808.4 937.63L845.97 937.63C846.3 937.63 846.56 937.9 846.56 938.23C846.56 938.56 846.3 938.82 845.97 938.82Z" />
										</g>
										<g id="&lt;Group&gt;">
											<path id="&lt;Path&gt;" class="shp4" d="M845.97 942.4L808.4 942.4C808.07 942.4 807.81 942.13 807.81 941.81C807.81 941.48 808.07 941.21 808.4 941.21L845.97 941.21C846.3 941.21 846.56 941.48 846.56 941.81C846.56 942.13 846.3 942.4 845.97 942.4Z" />
										</g>
									</g>
								</g>
								<g id="&lt;Group&gt;">
									<path id="&lt;Path&gt;" class="shp6" d="M794.74 333.83L789.63 374.85L752.45 369.15L752.17 368.09L750.86 362.97L749.47 357.64L749.45 357.58L744.43 338.24L794.74 333.83Z" />
									<path id="&lt;Path&gt;" class="shp6" d="M797.6 318.78C796.76 342.18 782.06 363.8 758.67 362.96C735.28 362.12 717.18 362.24 712.88 315.74C710.73 292.43 733.37 274.06 756.76 274.91C780.16 275.75 798.44 295.39 797.6 318.78Z" />
									<path id="&lt;Path&gt;" class="shp12" d="M769.7 259.48C769.36 237.01 752.48 226.56 719.06 228.11C672.89 230.25 670.67 335.38 753.67 296.25C760.89 292.84 769.14 292.21 776.71 294.74C777.89 295.13 778.93 295.54 779.74 295.93C782.71 297.38 783.98 302.26 783.55 310.56C787.5 307.43 790.05 308.58 791.2 314.01C792.36 319.44 790.39 322.56 785.31 323.39L790.32 344.58C795.62 335.97 800.08 324.16 803.7 309.14C808.97 287.29 791.05 252.8 769.7 259.48Z" />
									<path id="&lt;Path&gt;" class="shp13" d="M753.43 373.91L750.86 362.97C768.84 364.44 781.06 359.71 787.51 348.8C787.39 363.65 776.03 372.02 753.43 373.91Z" />
								</g>
								<g id="&lt;Group&gt;">
									<g id="&lt;Group&gt;">
										<path id="&lt;Path&gt;" class="shp4" d="M648.95 944.07C648.79 944.07 648.64 944.01 648.52 943.89L639.62 934.77C639.39 934.53 639.39 934.16 639.63 933.93C639.86 933.7 640.24 933.7 640.47 933.94L649.37 943.07C649.6 943.3 649.6 943.68 649.36 943.91C649.25 944.02 649.1 944.07 648.95 944.07Z" />
									</g>
									<g id="&lt;Group&gt;">
										<path id="&lt;Path&gt;" class="shp4" d="M644.49 947.1C644.33 947.1 644.18 947.04 644.06 946.92L635.16 937.8C634.93 937.56 634.94 937.19 635.17 936.96C635.41 936.73 635.78 936.73 636.01 936.97L644.91 946.1C645.14 946.33 645.14 946.71 644.9 946.94C644.79 947.05 644.64 947.1 644.49 947.1Z" />
									</g>
									<g id="&lt;Group&gt;">
										<path id="&lt;Path&gt;" class="shp4" d="M640.04 949.66C639.89 949.66 639.73 949.6 639.62 949.48L630.75 940.4C630.52 940.17 630.5 939.77 630.73 939.54C630.97 939.31 631.32 939.29 631.55 939.52L631.6 939.56L640.47 948.65C640.7 948.89 640.69 949.26 640.46 949.49C640.34 949.61 640.19 949.66 640.04 949.66Z" />
									</g>
									<g id="&lt;Group&gt;">
										<g id="&lt;Group&gt;">
											<g id="&lt;Group&gt;">
												<path id="&lt;Path&gt;" class="shp10" d="M692.86 613.63C692.83 613.63 692.8 613.63 692.77 613.62C692.45 613.57 692.23 613.27 692.27 612.95L692.53 611.18C692.57 610.86 692.87 610.63 693.2 610.68C693.53 610.73 693.75 611.03 693.7 611.35L693.45 613.12C693.41 613.41 693.15 613.63 692.86 613.63Z" />
											</g>
											<g id="&lt;Group&gt;">
												<path id="&lt;Compound Path&gt;" class="shp10" d="M649.24 915.09C649.21 915.09 649.18 915.09 649.16 915.08C648.83 915.04 648.61 914.74 648.65 914.41L649.16 910.91C649.21 910.58 649.51 910.36 649.83 910.4C650.16 910.45 650.38 910.75 650.34 911.08L649.83 914.58C649.79 914.88 649.53 915.09 649.24 915.09ZM650.26 908.08C650.23 908.08 650.2 908.08 650.17 908.07C649.84 908.03 649.62 907.73 649.67 907.4L650.17 903.89C650.22 903.57 650.52 903.36 650.85 903.39C651.17 903.44 651.4 903.74 651.35 904.06L650.84 907.57C650.8 907.87 650.55 908.08 650.26 908.08ZM651.27 901.07C651.24 901.07 651.21 901.07 651.18 901.06C650.86 901.01 650.63 900.71 650.68 900.39L651.19 896.88C651.24 896.56 651.53 896.34 651.86 896.38C652.19 896.43 652.41 896.73 652.36 897.05L651.86 900.56C651.81 900.85 651.56 901.07 651.27 901.07ZM652.28 894.06C652.26 894.06 652.23 894.06 652.2 894.05C651.87 894 651.65 893.7 651.7 893.38L652.2 889.87C652.25 889.55 652.56 889.33 652.88 889.37C653.2 889.42 653.43 889.72 653.38 890.04L652.87 893.55C652.83 893.84 652.57 894.06 652.28 894.06ZM653.3 887.05C653.27 887.05 653.24 887.04 653.21 887.04C652.89 886.99 652.66 886.69 652.71 886.37L653.22 882.86C653.26 882.54 653.56 882.32 653.89 882.36C654.21 882.41 654.44 882.71 654.39 883.03L653.89 886.54C653.84 886.83 653.59 887.05 653.3 887.05ZM654.31 880.04C654.28 880.04 654.26 880.03 654.23 880.03C653.9 879.98 653.68 879.68 653.72 879.36L654.23 875.85C654.28 875.53 654.57 875.31 654.9 875.35C655.23 875.4 655.45 875.7 655.41 876.02L654.9 879.53C654.86 879.82 654.6 880.04 654.31 880.04ZM655.33 873.03C655.3 873.03 655.27 873.02 655.24 873.02C654.92 872.97 654.69 872.67 654.74 872.35L655.25 868.84C655.29 868.52 655.59 868.3 655.92 868.34C656.24 868.39 656.47 868.69 656.42 869.01L655.91 872.52C655.87 872.81 655.62 873.03 655.33 873.03ZM656.34 866.02C656.31 866.02 656.28 866.01 656.26 866.01C655.93 865.96 655.71 865.66 655.75 865.34L656.26 861.83C656.31 861.51 656.61 861.28 656.93 861.33C657.26 861.37 657.48 861.68 657.44 862L656.93 865.51C656.89 865.8 656.63 866.02 656.34 866.02ZM657.36 859C657.33 859 657.3 859 657.27 859C656.95 858.95 656.72 858.65 656.77 858.33L657.27 854.82C657.32 854.49 657.62 854.27 657.95 854.32C658.27 854.36 658.5 854.66 658.45 854.99L657.94 858.49C657.9 858.79 657.65 859 657.36 859ZM658.37 851.99C658.34 851.99 658.31 851.99 658.28 851.99C657.96 851.94 657.74 851.64 657.78 851.31L658.29 847.81C658.34 847.48 658.63 847.26 658.96 847.3C659.29 847.35 659.51 847.65 659.46 847.98L658.96 851.48C658.92 851.78 658.66 851.99 658.37 851.99ZM659.38 844.98C659.36 844.98 659.33 844.98 659.3 844.98C658.97 844.93 658.75 844.63 658.8 844.3L659.3 840.8C659.35 840.47 659.65 840.24 659.98 840.29C660.3 840.34 660.53 840.64 660.48 840.97L659.97 844.47C659.93 844.77 659.68 844.98 659.38 844.98ZM660.4 837.97C660.37 837.97 660.34 837.97 660.31 837.97C659.99 837.92 659.76 837.62 659.81 837.29L660.32 833.79C660.36 833.46 660.66 833.23 660.99 833.28C661.32 833.33 661.54 833.63 661.49 833.96L660.99 837.46C660.94 837.76 660.69 837.97 660.4 837.97ZM661.41 830.96C661.39 830.96 661.36 830.96 661.33 830.95C661 830.91 660.78 830.61 660.83 830.28L661.33 826.78C661.38 826.45 661.67 826.21 662.01 826.27C662.33 826.32 662.56 826.62 662.51 826.95L662 830.45C661.96 830.75 661.7 830.96 661.41 830.96ZM662.43 823.95C662.4 823.95 662.37 823.95 662.34 823.94C662.02 823.9 661.79 823.6 661.84 823.27L662.35 819.77C662.39 819.44 662.69 819.2 663.02 819.26C663.34 819.31 663.57 819.61 663.52 819.94L663.02 823.44C662.97 823.74 662.72 823.95 662.43 823.95ZM663.44 816.94C663.41 816.94 663.39 816.94 663.36 816.93C663.03 816.89 662.81 816.58 662.85 816.26L663.36 812.75C663.41 812.43 663.71 812.2 664.03 812.25C664.36 812.3 664.58 812.6 664.54 812.93L664.03 816.43C663.99 816.73 663.73 816.94 663.44 816.94ZM664.46 809.93C664.43 809.93 664.4 809.93 664.37 809.92C664.05 809.88 663.82 809.57 663.87 809.25L664.38 805.74C664.42 805.42 664.72 805.19 665.05 805.24C665.37 805.29 665.6 805.59 665.55 805.91L665.04 809.42C665 809.72 664.75 809.93 664.46 809.93ZM665.47 802.92C665.44 802.92 665.41 802.92 665.39 802.91C665.06 802.86 664.84 802.56 664.88 802.24L665.39 798.73C665.44 798.41 665.73 798.18 666.06 798.23C666.39 798.28 666.61 798.58 666.57 798.9L666.06 802.41C666.02 802.7 665.76 802.92 665.47 802.92ZM666.49 795.91C666.46 795.91 666.43 795.91 666.4 795.9C666.08 795.85 665.85 795.55 665.9 795.23L666.4 791.72C666.45 791.4 666.75 791.17 667.08 791.22C667.4 791.27 667.63 791.57 667.58 791.89L667.07 795.4C667.03 795.69 666.78 795.91 666.49 795.91ZM667.5 788.9C667.47 788.9 667.44 788.89 667.41 788.89C667.09 788.84 666.86 788.54 666.91 788.22L667.42 784.71C667.46 784.39 667.77 784.16 668.09 784.21C668.42 784.26 668.64 784.56 668.59 784.88L668.09 788.39C668.05 788.68 667.79 788.9 667.5 788.9ZM668.51 781.89C668.49 781.89 668.46 781.88 668.43 781.88C668.1 781.83 667.88 781.53 667.93 781.21L668.43 777.7C668.48 777.38 668.78 777.14 669.11 777.2C669.43 777.25 669.66 777.55 669.61 777.87L669.1 781.38C669.06 781.67 668.81 781.89 668.51 781.89ZM669.53 774.88C669.5 774.88 669.47 774.87 669.44 774.87C669.12 774.82 668.89 774.52 668.94 774.2L669.45 770.69C669.49 770.36 669.79 770.13 670.12 770.19C670.45 770.23 670.67 770.54 670.62 770.86L670.12 774.37C670.07 774.66 669.82 774.88 669.53 774.88ZM670.54 767.86C670.52 767.86 670.49 767.86 670.46 767.86C670.13 767.81 669.91 767.51 669.96 767.19L670.46 763.68C670.51 763.36 670.81 763.13 671.13 763.18C671.46 763.22 671.68 763.52 671.64 763.85L671.13 767.36C671.09 767.65 670.83 767.86 670.54 767.86ZM671.56 760.85C671.53 760.85 671.5 760.85 671.47 760.85C671.15 760.8 670.92 760.5 670.97 760.17L671.48 756.67C671.52 756.34 671.82 756.11 672.15 756.17C672.47 756.21 672.7 756.51 672.65 756.84L672.15 760.34C672.1 760.64 671.85 760.85 671.56 760.85ZM672.57 753.84C672.54 753.84 672.52 753.84 672.49 753.84C672.16 753.79 671.94 753.49 671.98 753.16L672.49 749.66C672.54 749.33 672.83 749.1 673.16 749.15C673.49 749.2 673.71 749.5 673.67 749.83L673.16 753.33C673.12 753.63 672.86 753.84 672.57 753.84ZM673.59 746.83C673.56 746.83 673.53 746.83 673.5 746.83C673.18 746.78 672.95 746.48 673 746.15L673.51 742.65C673.55 742.32 673.85 742.09 674.18 742.14C674.5 742.19 674.73 742.49 674.68 742.82L674.17 746.32C674.13 746.62 673.88 746.83 673.59 746.83ZM674.6 739.82C674.57 739.82 674.54 739.82 674.52 739.81C674.19 739.77 673.97 739.47 674.01 739.14L674.52 735.64C674.57 735.31 674.87 735.08 675.19 735.13C675.52 735.18 675.74 735.48 675.7 735.81L675.19 739.31C675.15 739.61 674.89 739.82 674.6 739.82ZM675.62 732.81C675.59 732.81 675.56 732.81 675.53 732.8C675.21 732.76 674.98 732.46 675.03 732.13L675.53 728.63C675.58 728.3 675.88 728.07 676.21 728.12C676.53 728.17 676.76 728.47 676.71 728.8L676.2 732.3C676.16 732.6 675.91 732.81 675.62 732.81ZM676.63 725.8C676.6 725.8 676.57 725.8 676.54 725.79C676.22 725.75 675.99 725.45 676.04 725.12L676.55 721.62C676.6 721.29 676.89 721.06 677.22 721.11C677.55 721.16 677.77 721.46 677.72 721.79L677.22 725.29C677.18 725.59 676.92 725.8 676.63 725.8ZM677.64 718.79C677.62 718.79 677.59 718.79 677.56 718.78C677.23 718.74 677.01 718.43 677.06 718.11L677.56 714.6C677.61 714.28 677.91 714.05 678.24 714.1C678.56 714.15 678.79 714.45 678.74 714.77L678.23 718.28C678.19 718.58 677.93 718.79 677.64 718.79ZM678.66 711.78C678.63 711.78 678.6 711.78 678.57 711.77C678.25 711.73 678.02 711.42 678.07 711.1L678.58 707.59C678.62 707.27 678.92 707.04 679.25 707.09C679.58 707.14 679.8 707.44 679.75 707.76L679.25 711.27C679.2 711.57 678.95 711.78 678.66 711.78ZM679.67 704.77C679.65 704.77 679.62 704.77 679.59 704.76C679.26 704.71 679.04 704.41 679.08 704.09L679.59 700.58C679.64 700.26 679.93 700.02 680.27 700.08C680.59 700.13 680.81 700.43 680.77 700.75L680.26 704.26C680.22 704.55 679.96 704.77 679.67 704.77ZM680.69 697.76C680.66 697.76 680.63 697.76 680.6 697.75C680.28 697.7 680.05 697.4 680.1 697.08L680.61 693.57C680.65 693.25 680.95 693.02 681.28 693.07C681.6 693.12 681.83 693.42 681.78 693.74L681.28 697.25C681.23 697.54 680.98 697.76 680.69 697.76ZM681.7 690.75C681.67 690.75 681.65 690.74 681.62 690.74C681.29 690.69 681.07 690.39 681.11 690.07L681.62 686.56C681.67 686.24 681.97 686 682.29 686.06C682.62 686.11 682.84 686.41 682.8 686.73L682.29 690.24C682.25 690.53 681.99 690.75 681.7 690.75ZM682.72 683.74C682.69 683.74 682.66 683.73 682.63 683.73C682.31 683.68 682.08 683.38 682.13 683.06L682.63 679.55C682.68 679.23 682.98 679 683.31 679.05C683.63 679.09 683.86 679.4 683.81 679.72L683.3 683.23C683.26 683.52 683.01 683.74 682.72 683.74ZM683.73 676.72C683.7 676.72 683.67 676.72 683.64 676.72C683.32 676.67 683.1 676.37 683.14 676.04L683.65 672.54C683.7 672.22 683.99 671.98 684.32 672.04C684.65 672.08 684.87 672.39 684.83 672.71L684.32 676.22C684.28 676.51 684.02 676.72 683.73 676.72ZM684.75 669.71C684.72 669.71 684.69 669.71 684.66 669.71C684.33 669.66 684.11 669.36 684.16 669.03L684.66 665.53C684.71 665.2 685.01 664.97 685.34 665.03C685.66 665.07 685.89 665.37 685.84 665.7L685.33 669.2C685.29 669.5 685.04 669.71 684.75 669.71ZM685.76 662.7C685.73 662.7 685.7 662.7 685.67 662.7C685.35 662.65 685.12 662.35 685.17 662.02L685.68 658.52C685.72 658.19 686.03 657.96 686.35 658.02C686.68 658.06 686.9 658.36 686.85 658.69L686.35 662.19C686.3 662.49 686.05 662.7 685.76 662.7ZM686.77 655.69C686.75 655.69 686.72 655.69 686.69 655.69C686.36 655.64 686.14 655.34 686.19 655.01L686.69 651.51C686.74 651.18 687.04 650.95 687.37 651C687.69 651.05 687.92 651.35 687.87 651.68L687.36 655.18C687.32 655.48 687.07 655.69 686.77 655.69ZM687.79 648.68C687.76 648.68 687.73 648.68 687.7 648.68C687.38 648.63 687.15 648.33 687.2 648L687.71 644.5C687.75 644.17 688.05 643.94 688.38 643.99C688.71 644.04 688.93 644.34 688.88 644.67L688.38 648.17C688.33 648.47 688.08 648.68 687.79 648.68ZM688.8 641.67C688.78 641.67 688.75 641.67 688.72 641.66C688.39 641.62 688.17 641.32 688.21 640.99L688.72 637.49C688.77 637.16 689.07 636.93 689.39 636.98C689.72 637.03 689.94 637.33 689.9 637.66L689.39 641.16C689.35 641.46 689.09 641.67 688.8 641.67ZM689.82 634.66C689.79 634.66 689.76 634.66 689.73 634.65C689.41 634.61 689.18 634.31 689.23 633.98L689.74 630.48C689.78 630.15 690.08 629.92 690.41 629.97C690.73 630.02 690.96 630.32 690.91 630.65L690.4 634.15C690.36 634.45 690.11 634.66 689.82 634.66ZM690.83 627.65C690.8 627.65 690.77 627.65 690.75 627.64C690.42 627.6 690.2 627.29 690.24 626.97L690.75 623.46C690.8 623.14 691.09 622.91 691.42 622.96C691.75 623.01 691.97 623.31 691.93 623.63L691.42 627.14C691.38 627.44 691.12 627.65 690.83 627.65ZM691.85 620.64C691.82 620.64 691.79 620.64 691.76 620.63C691.44 620.59 691.21 620.28 691.26 619.96L691.77 616.45C691.81 616.13 692.11 615.89 692.44 615.95C692.76 616 692.99 616.3 692.94 616.62L692.43 620.13C692.39 620.43 692.14 620.64 691.85 620.64Z" />
											</g>
											<g id="&lt;Group&gt;">
												<path id="&lt;Path&gt;" class="shp10" d="M648.48 920.36C648.45 920.36 648.43 920.36 648.4 920.35C648.07 920.31 647.85 920.01 647.89 919.68L648.15 917.92C648.2 917.59 648.49 917.38 648.82 917.41C649.15 917.46 649.37 917.76 649.32 918.09L649.07 919.85C649.03 920.15 648.77 920.36 648.48 920.36Z" />
											</g>
										</g>
										<g id="&lt;Group&gt;">
											<path id="&lt;Compound Path&gt;" class="shp10" d="M716.58 914.17L713.01 914.17C712.68 914.17 712.42 913.9 712.42 913.57C712.42 913.24 712.68 912.98 713.01 912.98L716.58 912.98C716.91 912.98 717.17 913.24 717.17 913.57C717.17 913.9 716.91 914.17 716.58 914.17ZM709.45 914.17L705.88 914.17C705.55 914.17 705.29 913.9 705.29 913.57C705.29 913.24 705.55 912.98 705.88 912.98L709.45 912.98C709.78 912.98 710.04 913.24 710.04 913.57C710.04 913.9 709.78 914.17 709.45 914.17ZM702.32 914.17L698.75 914.17C698.42 914.17 698.16 913.9 698.16 913.57C698.16 913.24 698.42 912.98 698.75 912.98L702.32 912.98C702.64 912.98 702.91 913.24 702.91 913.57C702.91 913.9 702.64 914.17 702.32 914.17ZM695.18 914.17L691.62 914.17C691.29 914.17 691.02 913.9 691.02 913.57C691.02 913.24 691.29 912.98 691.62 912.98L695.18 912.98C695.51 912.98 695.78 913.24 695.78 913.57C695.78 913.9 695.51 914.17 695.18 914.17ZM688.05 914.17L684.49 914.17C684.16 914.17 683.89 913.9 683.89 913.57C683.89 913.24 684.16 912.98 684.49 912.98L688.05 912.98C688.38 912.98 688.65 913.24 688.65 913.57C688.65 913.9 688.38 914.17 688.05 914.17ZM680.92 914.17L677.35 914.17C677.03 914.17 676.76 913.9 676.76 913.57C676.76 913.24 677.03 912.98 677.35 912.98L680.92 912.98C681.25 912.98 681.51 913.24 681.51 913.57C681.51 913.9 681.25 914.17 680.92 914.17ZM673.79 914.17L670.22 914.17C669.89 914.17 669.63 913.9 669.63 913.57C669.63 913.24 669.89 912.98 670.22 912.98L673.79 912.98C674.12 912.98 674.38 913.24 674.38 913.57C674.38 913.9 674.12 914.17 673.79 914.17ZM666.66 914.17L663.09 914.17C662.76 914.17 662.5 913.9 662.5 913.57C662.5 913.24 662.76 912.98 663.09 912.98L666.66 912.98C666.98 912.98 667.25 913.24 667.25 913.57C667.25 913.9 666.98 914.17 666.66 914.17ZM659.52 914.17L655.96 914.17C655.63 914.17 655.36 913.9 655.36 913.57C655.36 913.24 655.63 912.98 655.96 912.98L659.52 912.98C659.85 912.98 660.12 913.24 660.12 913.57C660.12 913.9 659.85 914.17 659.52 914.17ZM652.39 914.17L648.83 914.17C648.5 914.17 648.23 913.9 648.23 913.57C648.23 913.24 648.5 912.98 648.83 912.98L652.39 912.98C652.72 912.98 652.99 913.24 652.99 913.57C652.99 913.9 652.72 914.17 652.39 914.17ZM645.26 914.17L641.7 914.17C641.37 914.17 641.1 913.9 641.1 913.57C641.1 913.24 641.37 912.98 641.7 912.98L645.26 912.98C645.59 912.98 645.86 913.24 645.86 913.57C645.86 913.9 645.59 914.17 645.26 914.17Z" />
										</g>
										<g id="&lt;Group&gt;">
											<path id="&lt;Compound Path&gt;" class="shp10" d="M855.2 920.36C854.88 920.36 854.61 920.1 854.6 919.78L854.56 918.34C854.55 918.01 854.81 917.74 855.14 917.73C855.45 917.73 855.74 917.98 855.75 918.3L855.79 919.75C855.8 920.08 855.54 920.35 855.21 920.36C855.21 920.36 855.2 920.36 855.2 920.36ZM855.05 915.35C854.73 915.35 854.47 915.1 854.46 914.78L854.36 911.21C854.35 910.88 854.61 910.61 854.93 910.6C855.25 910.59 855.54 910.85 855.55 911.18L855.65 914.74C855.66 915.07 855.4 915.34 855.07 915.35C855.06 915.35 855.06 915.35 855.05 915.35ZM854.85 908.22C854.53 908.22 854.26 907.97 854.26 907.65L854.15 904.08C854.14 903.75 854.4 903.48 854.73 903.47C855.06 903.48 855.33 903.72 855.34 904.05L855.44 907.61C855.45 907.94 855.19 908.21 854.87 908.22C854.86 908.22 854.85 908.22 854.85 908.22ZM854.65 901.09C854.33 901.09 854.06 900.84 854.05 900.52L853.95 896.95C853.94 896.62 854.2 896.35 854.53 896.34C854.86 896.34 855.13 896.59 855.14 896.92L855.24 900.48C855.25 900.81 854.99 901.09 854.66 901.09C854.66 901.09 854.65 901.09 854.65 901.09ZM854.44 893.97C854.12 893.97 853.86 893.71 853.85 893.39L853.75 889.82C853.74 889.5 854 889.22 854.32 889.21C854.67 889.23 854.93 889.46 854.94 889.79L855.04 893.35C855.05 893.68 854.79 893.96 854.46 893.97C854.45 893.97 854.45 893.97 854.44 893.97ZM854.24 886.84C853.92 886.84 853.65 886.58 853.65 886.26L853.54 882.7C853.53 882.37 853.79 882.09 854.12 882.08C854.44 882.09 854.72 882.33 854.73 882.66L854.83 886.23C854.84 886.55 854.59 886.83 854.26 886.84C854.25 886.84 854.24 886.84 854.24 886.84ZM854.04 879.71C853.72 879.71 853.45 879.45 853.44 879.13L853.34 875.57C853.33 875.24 853.59 874.96 853.92 874.95C854.24 874.94 854.52 875.2 854.53 875.53L854.63 879.1C854.64 879.42 854.38 879.7 854.05 879.71C854.05 879.71 854.04 879.71 854.04 879.71ZM853.83 872.58C853.51 872.58 853.25 872.32 853.24 872L853.14 868.44C853.13 868.11 853.39 867.84 853.71 867.83C854.05 867.83 854.32 868.08 854.33 868.4L854.43 871.97C854.44 872.3 854.18 872.57 853.85 872.58C853.84 872.58 853.84 872.58 853.83 872.58ZM853.63 865.45C853.31 865.45 853.04 865.19 853.04 864.87L852.93 861.31C852.92 860.98 853.18 860.71 853.51 860.7C853.85 860.69 854.11 860.95 854.12 861.27L854.22 864.84C854.23 865.17 853.97 865.44 853.65 865.45C853.64 865.45 853.63 865.45 853.63 865.45ZM853.43 858.32C853.11 858.32 852.84 858.07 852.83 857.74L852.73 854.18C852.72 853.85 852.98 853.58 853.31 853.57C853.62 853.58 853.91 853.82 853.92 854.15L854.02 857.71C854.03 858.04 853.77 858.31 853.44 858.32C853.44 858.32 853.43 858.32 853.43 858.32ZM853.22 851.19C852.9 851.19 852.64 850.94 852.63 850.62L852.53 847.05C852.52 846.72 852.78 846.45 853.1 846.44C853.43 846.43 853.71 846.69 853.72 847.02L853.82 850.58C853.83 850.91 853.57 851.18 853.24 851.19C853.23 851.19 853.23 851.19 853.22 851.19ZM853.02 844.06C852.7 844.06 852.44 843.81 852.43 843.49L852.32 839.92C852.31 839.59 852.57 839.32 852.9 839.31C853.26 839.3 853.5 839.56 853.51 839.89L853.61 843.45C853.62 843.78 853.37 844.05 853.04 844.06C853.03 844.06 853.03 844.06 853.02 844.06ZM852.82 836.93C852.5 836.93 852.23 836.68 852.22 836.36L852.12 832.79C852.11 832.46 852.37 832.19 852.7 832.18C853.04 832.18 853.3 832.43 853.31 832.76L853.41 836.32C853.42 836.65 853.16 836.92 852.83 836.93C852.83 836.93 852.82 836.93 852.82 836.93ZM852.61 829.81C852.29 829.81 852.03 829.55 852.02 829.23L851.92 825.66C851.91 825.34 852.17 825.06 852.49 825.05C852.81 825.07 853.1 825.3 853.11 825.63L853.21 829.19C853.22 829.52 852.96 829.8 852.63 829.81C852.62 829.81 852.62 829.81 852.61 829.81ZM852.41 822.68C852.09 822.68 851.83 822.42 851.82 822.1L851.71 818.53C851.71 818.21 851.96 817.93 852.29 817.92C852.61 817.93 852.89 818.17 852.9 818.5L853 822.07C853.01 822.39 852.76 822.67 852.43 822.68C852.42 822.68 852.42 822.68 852.41 822.68ZM852.21 815.55C851.89 815.55 851.62 815.29 851.61 814.97L851.51 811.41C851.5 811.08 851.76 810.8 852.09 810.79C852.42 810.78 852.69 811.04 852.7 811.37L852.8 814.94C852.81 815.26 852.55 815.54 852.22 815.55C852.22 815.55 852.21 815.55 852.21 815.55ZM852 808.42C851.68 808.42 851.42 808.16 851.41 807.84L851.31 804.28C851.3 803.95 851.56 803.68 851.88 803.67C852.22 803.67 852.49 803.91 852.5 804.24L852.6 807.81C852.61 808.14 852.35 808.41 852.02 808.42C852.01 808.42 852.01 808.42 852 808.42ZM851.8 801.29C851.48 801.29 851.22 801.04 851.21 800.71L851.1 797.15C851.1 796.82 851.35 796.55 851.68 796.54C852.02 796.53 852.28 796.79 852.29 797.11L852.39 800.68C852.4 801.01 852.14 801.28 851.82 801.29C851.81 801.29 851.81 801.29 851.8 801.29ZM851.6 794.16C851.28 794.16 851.01 793.91 851 793.58L850.9 790.02C850.89 789.69 851.15 789.42 851.48 789.41C851.8 789.42 852.08 789.66 852.09 789.99L852.19 793.55C852.2 793.88 851.94 794.15 851.61 794.16C851.61 794.16 851.6 794.16 851.6 794.16ZM851.39 787.03C851.07 787.03 850.81 786.78 850.8 786.45L850.7 782.89C850.69 782.56 850.95 782.29 851.27 782.28C851.6 782.27 851.88 782.53 851.89 782.86L851.99 786.42C852 786.75 851.74 787.02 851.41 787.03C851.4 787.03 851.4 787.03 851.39 787.03ZM851.19 779.9C850.87 779.9 850.61 779.65 850.6 779.33L850.49 775.76C850.49 775.43 850.74 775.16 851.07 775.15C851.4 775.16 851.67 775.4 851.68 775.73L851.78 779.29C851.79 779.62 851.53 779.89 851.21 779.9C851.2 779.9 851.2 779.9 851.19 779.9ZM850.99 772.77C850.67 772.77 850.4 772.52 850.39 772.2L850.29 768.63C850.28 768.3 850.54 768.03 850.87 768.02C851.21 768 851.47 768.27 851.48 768.6L851.58 772.16C851.59 772.49 851.33 772.76 851 772.77C851 772.77 850.99 772.77 850.99 772.77ZM850.78 765.65C850.46 765.65 850.2 765.39 850.19 765.07L850.09 761.5C850.08 761.18 850.34 760.9 850.67 760.89C850.98 760.88 851.27 761.14 851.28 761.47L851.38 765.03C851.39 765.36 851.13 765.64 850.8 765.65C850.8 765.65 850.79 765.65 850.78 765.65ZM850.58 758.52C850.26 758.52 850 758.26 849.99 757.94L849.88 754.37C849.88 754.05 850.13 753.77 850.46 753.76C850.79 753.77 851.06 754.01 851.07 754.34L851.17 757.91C851.18 758.23 850.93 758.51 850.6 758.52C850.59 758.52 850.59 758.52 850.58 758.52ZM850.38 751.39C850.06 751.39 849.79 751.13 849.78 750.81L849.68 747.25C849.67 746.92 849.93 746.64 850.26 746.63C850.59 746.62 850.86 746.88 850.87 747.21L850.97 750.78C850.98 751.1 850.72 751.38 850.39 751.39C850.39 751.39 850.38 751.39 850.38 751.39ZM850.17 744.26C849.85 744.26 849.59 744 849.58 743.68L849.48 740.12C849.47 739.79 849.73 739.51 850.06 739.51C850.41 739.51 850.66 739.75 850.67 740.08L850.77 743.65C850.78 743.98 850.52 744.25 850.19 744.26C850.18 744.26 850.18 744.26 850.17 744.26ZM849.97 737.13C849.65 737.13 849.39 736.88 849.38 736.55L849.27 732.99C849.27 732.66 849.52 732.39 849.85 732.38C850.17 732.37 850.45 732.63 850.46 732.95L850.57 736.52C850.57 736.85 850.32 737.12 849.99 737.13C849.98 737.13 849.98 737.13 849.97 737.13ZM849.77 730C849.45 730 849.18 729.75 849.17 729.42L849.07 725.86C849.06 725.53 849.32 725.26 849.65 725.25C849.97 725.26 850.25 725.5 850.26 725.83L850.36 729.39C850.37 729.72 850.11 729.99 849.78 730C849.78 730 849.77 730 849.77 730ZM849.56 722.87C849.24 722.87 848.98 722.62 848.97 722.29L848.87 718.73C848.86 718.4 849.12 718.13 849.45 718.12C849.77 718.12 850.05 718.37 850.06 718.7L850.16 722.26C850.17 722.59 849.91 722.86 849.58 722.87C849.58 722.87 849.57 722.87 849.56 722.87ZM849.36 715.74C849.04 715.74 848.78 715.49 848.77 715.17L848.66 711.6C848.66 711.27 848.91 711 849.24 710.99C849.58 711.01 849.84 711.24 849.85 711.57L849.96 715.13C849.96 715.46 849.71 715.73 849.38 715.74C849.37 715.74 849.37 715.74 849.36 715.74ZM849.16 708.61C848.84 708.61 848.57 708.36 848.56 708.04L848.46 704.47C848.45 704.14 848.71 703.87 849.04 703.86C849.35 703.86 849.64 704.11 849.65 704.44L849.75 708C849.76 708.33 849.5 708.6 849.17 708.61C849.17 708.61 849.16 708.61 849.16 708.61ZM848.95 701.49C848.63 701.49 848.37 701.23 848.36 700.91L848.26 697.34C848.25 697.02 848.51 696.74 848.84 696.73C849.15 696.72 849.44 696.98 849.45 697.31L849.55 700.87C849.56 701.2 849.3 701.48 848.97 701.49C848.97 701.49 848.96 701.49 848.95 701.49ZM848.75 694.36C848.43 694.36 848.17 694.1 848.16 693.78L848.05 690.21C848.05 689.89 848.3 689.61 848.63 689.6C848.96 689.61 849.23 689.85 849.24 690.18L849.35 693.75C849.35 694.07 849.1 694.35 848.77 694.36C848.76 694.36 848.76 694.36 848.75 694.36ZM848.55 687.23C848.23 687.23 847.96 686.97 847.95 686.65L847.85 683.09C847.84 682.76 848.1 682.48 848.43 682.47C848.76 682.46 849.03 682.72 849.04 683.05L849.14 686.62C849.15 686.94 848.89 687.22 848.56 687.23C848.56 687.23 848.55 687.23 848.55 687.23ZM848.34 680.1C848.02 680.1 847.76 679.84 847.75 679.52L847.65 675.96C847.64 675.63 847.9 675.36 848.23 675.35C848.57 675.35 848.83 675.59 848.84 675.92L848.94 679.49C848.95 679.82 848.69 680.09 848.36 680.1C848.36 680.1 848.35 680.1 848.34 680.1ZM848.14 672.97C847.82 672.97 847.56 672.72 847.55 672.39L847.45 668.83C847.44 668.5 847.69 668.23 848.02 668.22C848.34 668.21 848.62 668.47 848.63 668.79L848.74 672.36C848.74 672.69 848.49 672.96 848.16 672.97C848.15 672.97 848.15 672.97 848.14 672.97ZM847.94 665.84C847.62 665.84 847.35 665.59 847.34 665.26L847.24 661.7C847.23 661.37 847.49 661.1 847.82 661.09C848.14 661.1 848.42 661.34 848.43 661.67L848.53 665.23C848.54 665.56 848.28 665.83 847.95 665.84C847.95 665.84 847.94 665.84 847.94 665.84ZM847.73 658.71C847.41 658.71 847.15 658.46 847.14 658.13L847.04 654.57C847.03 654.24 847.29 653.97 847.62 653.96C847.95 653.96 848.22 654.21 848.23 654.54L848.33 658.1C848.34 658.43 848.08 658.7 847.75 658.71C847.75 658.71 847.74 658.71 847.73 658.71ZM847.53 651.58C847.21 651.58 846.95 651.33 846.94 651.01L846.84 647.44C846.83 647.11 847.08 646.84 847.41 646.83C847.75 646.85 848.01 647.08 848.02 647.41L848.13 650.97C848.13 651.3 847.88 651.57 847.55 651.58C847.54 651.58 847.54 651.58 847.53 651.58ZM847.33 644.45C847.01 644.45 846.74 644.2 846.73 643.88L846.63 640.31C846.62 639.98 846.88 639.71 847.21 639.7C847.52 639.7 847.81 639.95 847.82 640.28L847.92 643.84C847.93 644.17 847.67 644.44 847.34 644.45C847.34 644.45 847.33 644.45 847.33 644.45ZM847.12 637.33C846.8 637.33 846.54 637.07 846.53 636.75L846.43 633.18C846.42 632.86 846.68 632.58 847.01 632.57C847.33 632.56 847.61 632.82 847.62 633.15L847.72 636.71C847.73 637.04 847.47 637.32 847.14 637.33C847.14 637.33 847.13 637.33 847.12 637.33ZM846.92 630.2C846.6 630.2 846.34 629.94 846.33 629.62L846.23 626.05C846.22 625.73 846.48 625.45 846.8 625.44C847.13 625.45 847.4 625.69 847.41 626.02L847.52 629.59C847.53 629.91 847.27 630.19 846.94 630.2C846.93 630.2 846.93 630.2 846.92 630.2ZM846.72 623.07C846.4 623.07 846.13 622.81 846.12 622.49L846.02 618.93C846.01 618.6 846.27 618.32 846.6 618.31C846.94 618.31 847.2 618.56 847.21 618.89L847.31 622.46C847.32 622.78 847.06 623.06 846.73 623.07C846.73 623.07 846.72 623.07 846.72 623.07ZM846.51 615.94C846.19 615.94 845.93 615.68 845.92 615.36L845.82 611.8C845.81 611.47 846.07 611.2 846.4 611.19C846.71 611.19 847 611.43 847.01 611.76L847.11 615.33C847.12 615.66 846.86 615.93 846.53 615.94C846.53 615.94 846.52 615.94 846.51 615.94Z" />
										</g>
										<g id="&lt;Group&gt;">
											<path id="&lt;Compound Path&gt;" class="shp10" d="M863.91 914.17L861.63 914.17C861.3 914.17 861.03 913.9 861.03 913.57C861.03 913.24 861.3 912.98 861.63 912.98L863.91 912.98C864.24 912.98 864.5 913.24 864.5 913.57C864.5 913.9 864.24 914.17 863.91 914.17ZM858.06 914.17L854.5 914.17C854.17 914.17 853.9 913.9 853.9 913.57C853.9 913.24 854.17 912.98 854.5 912.98L858.06 912.98C858.39 912.98 858.66 913.24 858.66 913.57C858.66 913.9 858.39 914.17 858.06 914.17ZM850.93 914.17L847.36 914.17C847.04 914.17 846.77 913.9 846.77 913.57C846.77 913.24 847.04 912.98 847.36 912.98L850.93 912.98C851.26 912.98 851.52 913.24 851.52 913.57C851.52 913.9 851.26 914.17 850.93 914.17ZM843.8 914.17L840.23 914.17C839.9 914.17 839.64 913.9 839.64 913.57C839.64 913.24 839.9 912.98 840.23 912.98L843.8 912.98C844.13 912.98 844.39 913.24 844.39 913.57C844.39 913.9 844.13 914.17 843.8 914.17ZM836.67 914.17L833.1 914.17C832.77 914.17 832.51 913.9 832.51 913.57C832.51 913.24 832.77 912.98 833.1 912.98L836.67 912.98C837 912.98 837.26 913.24 837.26 913.57C837.26 913.9 837 914.17 836.67 914.17ZM829.53 914.17L825.97 914.17C825.64 914.17 825.37 913.9 825.37 913.57C825.37 913.24 825.64 912.98 825.97 912.98L829.53 912.98C829.86 912.98 830.13 913.24 830.13 913.57C830.13 913.9 829.86 914.17 829.53 914.17ZM822.4 914.17L818.84 914.17C818.51 914.17 818.24 913.9 818.24 913.57C818.24 913.24 818.51 912.98 818.84 912.98L822.4 912.98C822.73 912.98 823 913.24 823 913.57C823 913.9 822.73 914.17 822.4 914.17ZM815.27 914.17L811.71 914.17C811.38 914.17 811.11 913.9 811.11 913.57C811.11 913.24 811.38 912.98 811.71 912.98L815.27 912.98C815.6 912.98 815.87 913.24 815.87 913.57C815.87 913.9 815.6 914.17 815.27 914.17ZM808.14 914.17L804.57 914.17C804.25 914.17 803.98 913.9 803.98 913.57C803.98 913.24 804.25 912.98 804.57 912.98L808.14 912.98C808.47 912.98 808.73 913.24 808.73 913.57C808.73 913.9 808.47 914.17 808.14 914.17ZM801.01 914.17L797.44 914.17C797.11 914.17 796.85 913.9 796.85 913.57C796.85 913.24 797.11 912.98 797.44 912.98L801.01 912.98C801.34 912.98 801.6 913.24 801.6 913.57C801.6 913.9 801.34 914.17 801.01 914.17ZM793.88 914.17L790.31 914.17C789.98 914.17 789.72 913.9 789.72 913.57C789.72 913.24 789.98 912.98 790.31 912.98L793.88 912.98C794.2 912.98 794.47 913.24 794.47 913.57C794.47 913.9 794.2 914.17 793.88 914.17Z" />
										</g>
									</g>
								</g>
								<g id="&lt;Group&gt;">
									<g id="&lt;Group&gt;">
										<g id="&lt;Group&gt;">
											<path id="&lt;Path&gt;" class="shp6" d="M565.16 422.04L573.77 429.81C579.6 435.06 588.66 434.59 593.92 428.77L597.01 425.34C602.27 419.51 601.8 410.44 595.97 405.19L587.36 397.42C581.53 392.17 572.47 392.63 567.22 398.46L564.12 401.89C558.87 407.72 559.33 416.78 565.16 422.04Z" />
											<path id="&lt;Path&gt;" class="shp6" d="M595.06 410.8C598.16 410.28 600.93 416.24 600.41 413.14L597.75 392.06C597.23 388.95 594.27 386.83 591.16 387.35C588.05 387.87 585.93 390.83 586.44 393.94L588.46 406.08C588.98 409.19 591.95 411.32 595.06 410.8Z" />
											<path id="&lt;Path&gt;" class="shp6" d="M587.53 405.29C589.64 402.95 589.45 399.31 587.11 397.2L577.97 388.95C575.63 386.84 571.99 387.03 569.88 389.37C567.77 391.71 567.95 395.35 570.29 397.46L579.44 405.71C581.78 407.82 585.42 407.63 587.53 405.29Z" />
											<path id="&lt;Path&gt;" class="shp6" d="M576.98 405.38C579.09 403.04 578.9 399.4 576.56 397.29L567.42 389.04C565.08 386.93 561.44 387.12 559.33 389.46L559.33 389.46C557.22 391.8 557.4 395.44 559.75 397.55L568.89 405.8C571.23 407.91 574.87 407.72 576.98 405.38Z" />
											<path id="&lt;Path&gt;" class="shp6" d="M574.37 412.67C576.48 410.33 576.29 406.68 573.95 404.57L564.81 396.33C562.47 394.22 558.83 394.41 556.72 396.75C554.61 399.09 554.79 402.73 557.13 404.84L566.27 413.09C568.62 415.2 572.26 415.01 574.37 412.67Z" />
											<path id="&lt;Path&gt;" class="shp6" d="M574.81 422.68C576.92 420.34 576.73 416.69 574.39 414.58L565.25 406.34C562.91 404.23 559.27 404.42 557.16 406.76C555.05 409.1 555.23 412.74 557.58 414.85L566.72 423.09C569.06 425.21 572.7 425.02 574.81 422.68Z" />
										</g>
										<g id="&lt;Group&gt;">
											<path id="&lt;Path&gt;" class="shp13" d="M581.84 404.14L568.65 390.95L569.49 390.11L582.68 403.3L581.84 404.14Z" />
										</g>
										<g id="&lt;Group&gt;">
											<path id="&lt;Path&gt;" class="shp13" d="M570.8 408.85L557.89 395.94L558.73 395.1L571.64 408.01L570.8 408.85Z" />
										</g>
										<g id="&lt;Group&gt;">
											<path id="&lt;Path&gt;" class="shp13" d="M569.2 417.61L558.1 406.52L558.95 405.67L570.04 416.77L569.2 417.61Z" />
										</g>
									</g>
									<path id="&lt;Path&gt;" class="shp1" d="M834.41 574.84L687.46 575.42C683.76 575.43 680.82 572.31 681.05 568.61L686.42 482.68L686.42 440.05C686.42 439.08 686.45 438.11 686.49 437.14C687.84 403.28 712.83 375.49 745.43 369.82C745.58 369.79 745.73 369.77 745.89 369.75C749.73 369.11 753.67 368.77 757.7 368.77L782.95 368.77C792.46 368.77 801.54 370.64 809.84 374.03C851.05 388.65 885.99 439.94 886 496.9C886.01 541.26 888.75 585.03 854.22 618.31C853.03 617.97 849.51 617.19 840.61 608.6C836.88 605 833.73 599.13 831.16 590.97C832.73 585.88 833.81 580.5 834.41 574.84Z" />
									<path id="&lt;Path&gt;" class="shp0" d="M805.92 438.87C811.29 450.77 815.99 465.97 820.01 484.45C824.02 502.93 822.89 533.06 816.59 574.84L834.41 574.84C839.15 547.73 840.55 525.83 838.6 509.16C835.68 484.15 825.88 462 805.92 438.87Z" />
									<path id="&lt;Path&gt;" class="shp0" d="M678.99 410.52C703.85 376.05 741.31 369.46 745.89 368.77C713.3 374.44 688.3 402.23 686.96 436.1C686.91 437.06 686.89 438.03 686.89 439.01L686.89 481.63C650.37 502.13 615.19 487.66 581.35 438.24L606.67 414.74C627.16 437.04 652.47 447.28 678.99 410.52Z" />
								</g>
								<g id="&lt;Group&gt;">
									<path id="&lt;Path&gt;" class="shp13" d="M804.19 624.51C807.02 625.5 810.11 624.01 811.1 621.18L813.23 615.08C814.22 612.26 812.73 609.16 809.9 608.18L809.9 608.18C807.07 607.19 803.98 608.68 802.99 611.51L800.86 617.6C799.87 620.43 801.37 623.52 804.19 624.51Z" />
									<g id="&lt;Group&gt;">
										<path id="&lt;Path&gt;" class="shp14" d="M847 583.2C849.74 585.26 850.29 589.14 848.23 591.87C846.18 594.6 842.3 595.16 839.56 593.1C836.83 591.05 836.28 587.16 838.33 584.43C840.39 581.7 844.27 581.15 847 583.2Z" />
									</g>
									<path id="&lt;Path&gt;" class="shp6" d="M838.01 600.96C837.84 597.81 835.11 595.38 831.97 595.56L812.61 596.65C809.46 596.83 807.03 599.55 807.21 602.7C807.39 605.85 810.11 608.27 813.26 608.1L832.62 607C835.76 606.82 838.19 604.1 838.01 600.96Z" />
									<path id="&lt;Path&gt;" class="shp6" d="M841.21 630.62L849.59 622.61C855.27 617.19 855.48 608.12 850.06 602.45L846.87 599.1C841.45 593.43 832.38 593.22 826.7 598.64L818.31 606.65C812.64 612.07 812.43 621.14 817.85 626.81L821.04 630.16C826.46 635.83 835.53 636.04 841.21 630.62Z" />
									<g id="&lt;Group&gt;">
										<path id="&lt;Path&gt;" class="shp6" d="M843.14 624.14C844.47 626.99 843.23 630.42 840.37 631.75L829.22 636.97C826.37 638.3 822.94 637.06 821.6 634.2C820.27 631.35 821.51 627.92 824.37 626.59L835.52 621.37C838.37 620.04 841.8 621.28 843.14 624.14Z" />
										<path id="&lt;Path&gt;" class="shp6" d="M835.26 623.97C836.6 626.82 835.35 630.25 832.5 631.59L821.35 636.8C818.49 638.14 815.06 636.89 813.73 634.04C812.39 631.18 813.64 627.75 816.49 626.42L827.64 621.2C830.5 619.87 833.93 621.11 835.26 623.97Z" />
										<path id="&lt;Path&gt;" class="shp6" d="M828.5 619.31C829.84 622.17 828.6 625.59 825.74 626.93L814.59 632.14C811.73 633.48 808.31 632.23 806.97 629.38C805.64 626.52 806.88 623.09 809.73 621.76L820.89 616.55C823.74 615.21 827.17 616.45 828.5 619.31Z" />
										<path id="&lt;Path&gt;" class="shp6" d="M822.6 611.71C823.94 614.56 822.69 617.99 819.84 619.33L808.69 624.54C805.83 625.88 802.4 624.63 801.07 621.78C799.73 618.92 800.98 615.49 803.83 614.16L814.98 608.95C817.84 607.61 821.27 608.85 822.6 611.71Z" />
									</g>
									<g id="&lt;Group&gt;">
										<path id="&lt;Path&gt;" class="shp13" d="M807.14 625.25L806.57 624.21L822.55 615.42L823.13 616.46L807.14 625.25Z" />
									</g>
									<g id="&lt;Group&gt;">
										<path id="&lt;Path&gt;" class="shp13" d="M813.53 633.11L813.02 632.03L826.94 625.41L827.46 626.48L813.53 633.11Z" />
									</g>
									<g id="&lt;Group&gt;">
										<path id="&lt;Path&gt;" class="shp13" d="M821.61 637.33L821.08 636.27L833.69 630.07L834.22 631.14L821.61 637.33Z" />
									</g>
								</g>
								<path id="&lt;Path&gt;" class="shp1" d="M854.22 618.31C878.26 611.09 888.88 575.74 886.05 512.26L837.63 505.03C840.01 542.85 837.94 571.19 831.41 590.04C833.2 603.56 840.8 612.98 854.22 618.31Z" />
							</g>
							<g id="&lt;Group&gt;">
								<path id="&lt;Path&gt;" class="shp15" d="M434.6 248.91L451.52 322.11L657.12 322.11L695.52 353.32L652.21 248.91L434.6 248.91Z" />
								<g id="&lt;Group&gt;">
									<g id="&lt;Group&gt;">
										<path id="&lt;Path&gt;" class="shp1" d="M634.07 273.72L489.89 273.72C487.84 273.72 486.18 272.07 486.18 270.02C486.18 267.97 487.84 266.31 489.89 266.31L634.07 266.31C636.12 266.31 637.78 267.97 637.78 270.02C637.78 272.07 636.12 273.72 634.07 273.72Z" />
									</g>
									<g id="&lt;Group&gt;">
										<path id="&lt;Path&gt;" class="shp1" d="M629.74 287.59L467.88 287.59C465.84 287.59 464.18 285.93 464.18 283.89C464.18 281.84 465.84 280.18 467.88 280.18L629.74 280.18C631.78 280.18 633.44 281.84 633.44 283.89C633.44 285.93 631.78 287.59 629.74 287.59Z" />
									</g>
									<g id="&lt;Group&gt;">
										<path id="&lt;Path&gt;" class="shp1" d="M625.67 300.61L463.82 300.61C461.77 300.61 460.11 298.95 460.11 296.91C460.11 294.86 461.77 293.2 463.82 293.2L625.67 293.2C627.72 293.2 629.38 294.86 629.38 296.91C629.38 298.95 627.72 300.61 625.67 300.61Z" />
									</g>
								</g>
							</g>
							<g id="&lt;Group&gt;">
								<path id="&lt;Path&gt;" class="shp16" d="M472.13 516.72L476.7 516.72C484.46 516.72 491.17 511.31 492.81 503.73L497.45 477.1L455.64 482.36L455.64 500.23C455.64 509.33 463.02 516.72 472.13 516.72Z" />
								<path id="&lt;Path&gt;" class="shp16" d="M363.97 519.95L368.54 519.95C376.3 519.95 383.01 514.54 384.65 506.96L389.29 485.59L347.48 485.59L347.48 503.46C347.48 512.56 354.86 519.95 363.97 519.95Z" />
								<path id="&lt;Path&gt;" class="shp16" d="M308.08 401.41C291.14 420.9 278.94 429.16 271.48 426.18C260.29 421.71 279.7 442.39 303.02 423.79C318.57 411.39 320.25 403.93 308.08 401.41Z" />
								<path id="&lt;Path&gt;" class="shp17" d="M513.78 409.51C510.29 396.66 503.19 384.88 493.36 374.91L512 357.31C513.95 355.81 513.37 352.73 511.01 352.03C495.74 347.52 478.46 353.95 470.44 357.64C453.18 348.02 432.2 342.37 409.57 342.37C350.66 342.37 302.91 380.59 302.91 427.72C302.91 451.51 315.07 473.03 334.7 488.51L334.7 515.19C334.7 519.07 337.84 522.21 341.72 522.21L363.39 522.21C366.7 522.21 369.55 519.91 370.25 516.68L372.2 507.69C383.83 511.17 396.42 513.07 409.57 513.07C421.83 513.07 433.6 511.41 444.56 508.37C445.67 516.39 452.54 522.58 460.87 522.58L465.45 522.58C473.21 522.58 479.92 517.17 481.56 509.59L485.36 487.77C496.97 478.39 505.87 466.87 511.06 454.01C521.35 451.87 536.16 447.41 538.22 439.18C541.21 427.22 538.6 410.6 538.25 408.5L513.78 409.51Z" />
								<path id="&lt;Path&gt;" class="shp16" d="M476.54 398.8C476.54 402.19 479.29 404.93 482.67 404.93C486.05 404.93 488.79 402.19 488.79 398.8C488.79 395.42 486.05 392.68 482.67 392.68C479.29 392.68 476.54 395.42 476.54 398.8Z" />
								<g id="&lt;Group&gt;">
									<path id="&lt;Path&gt;" class="shp16" d="M368.39 367.78C368.94 367.78 369.5 367.65 370.03 367.38C380.84 361.72 394.88 358.61 409.57 358.61C424.19 358.61 438.19 361.7 448.98 367.31C450.72 368.22 452.86 367.54 453.76 365.8C454.67 364.07 453.99 361.93 452.25 361.02C440.47 354.9 425.31 351.52 409.57 351.52C393.76 351.52 378.55 354.92 366.74 361.09C365.01 362 364.34 364.14 365.24 365.88C365.88 367.09 367.11 367.78 368.39 367.78Z" />
								</g>
								<g id="&lt;Clip Group&gt;" clip-path="url(#cp2)">
									<g id="&lt;Group&gt;">
										<path id="&lt;Path&gt;" class="shp18" d="M371.85 339.85C371.85 360.33 388.45 376.93 408.93 376.93C429.41 376.93 446.01 360.33 446.01 339.85C446.01 319.37 429.41 302.77 408.93 302.77C388.45 302.77 371.85 319.37 371.85 339.85Z" />
										<path id="&lt;Path&gt;" class="shp19" d="M377.04 339.85C377.04 346.74 379.23 353.13 382.95 358.35C383.47 359.07 384.01 359.77 384.59 360.45C385.75 361.82 387.03 363.1 388.4 364.25C389.04 364.79 389.69 365.3 390.37 365.78C391.71 366.75 393.13 367.61 394.62 368.35C395.3 368.7 396 369.02 396.72 369.32C399.6 370.51 402.69 371.3 405.92 371.6C406.77 371.68 407.63 371.73 408.5 371.73C408.64 371.74 408.79 371.74 408.93 371.74C426.55 371.74 440.82 357.46 440.82 339.85C440.82 333.8 439.14 328.15 436.22 323.34C435.78 322.6 435.3 321.88 434.8 321.19C432.94 318.61 430.7 316.32 428.17 314.41C427.56 313.95 426.92 313.5 426.28 313.08C424.89 312.19 423.44 311.39 421.92 310.71C421.16 310.37 420.39 310.07 419.6 309.79C417.93 309.19 416.19 308.73 414.39 308.42C413.52 308.27 412.64 308.16 411.75 308.08C410.82 308 409.88 307.95 408.93 307.95C391.32 307.95 377.04 322.23 377.04 339.85Z" />
										<g id="&lt;Group&gt;">
											<g id="&lt;Group&gt;">
												<path id="&lt;Path&gt;" class="shp18" d="M407.84 365.81L410.86 365.74L409.73 313.85L406.71 313.92L407.84 365.81Z" />
											</g>
											<g id="&lt;Group&gt;">
												<path id="&lt;Path&gt;" class="shp18" d="M408.99 360.38C409.07 360.38 409.15 360.38 409.23 360.38C415.1 360.25 418.21 354.3 418.34 354.05L415.66 352.66C415.63 352.71 413.22 357.27 409.17 357.36C407.2 357.4 405.63 356.74 404.52 355.39C403.38 354.01 402.75 351.99 402.7 349.52C402.61 345.22 404.35 343.06 409.35 341.25C414.76 339.3 417.43 335.56 417.32 330.12C417.25 327.32 416.46 324.71 415.09 322.78C413.45 320.48 411.06 319.25 408.34 319.31C402.76 319.43 400.23 323.44 400.12 323.61L402.69 325.19C402.76 325.09 404.51 322.41 408.4 322.33C410.14 322.29 411.56 323.03 412.63 324.53C413.64 325.95 414.25 328.02 414.3 330.18C414.39 334.3 412.49 336.91 408.33 338.41C403.97 339.98 399.53 342.54 399.68 349.58C399.75 352.74 400.62 355.41 402.19 357.31C403.85 359.32 406.2 360.38 408.99 360.38Z" />
											</g>
										</g>
										<g id="&lt;Clip Group&gt;" clip-path="url(#cp3)">
											<g id="&lt;Group&gt;">
												<path id="&lt;Path&gt;" class="shp20" d="M428.17 314.41C430.7 316.32 432.94 318.61 434.8 321.19C435.3 321.88 435.78 322.6 436.22 323.34L445.68 306.82L435.77 301.14L428.17 314.41Z" />
												<path id="&lt;Path&gt;" class="shp20" d="M387.84 384.82L397.75 390.5L408.5 371.73C407.63 371.73 406.77 371.68 405.92 371.6C402.69 371.3 399.6 370.51 396.72 369.32L387.84 384.82Z" />
												<path id="&lt;Path&gt;" class="shp21" d="M394.62 368.35C398.07 370.09 401.89 371.22 405.92 371.6L434.8 321.19C432.49 317.99 429.6 315.23 426.28 313.08L394.62 368.35Z" />
												<path id="&lt;Path&gt;" class="shp20" d="M414.39 308.42C416.19 308.73 417.93 309.19 419.6 309.79C420.39 310.07 421.16 310.37 421.92 310.71L429.08 298.22L422.42 294.41L414.39 308.42Z" />
												<path id="&lt;Path&gt;" class="shp20" d="M374.49 378.09L381.14 381.9L390.37 365.78C389.69 365.3 389.04 364.79 388.4 364.25C387.03 363.1 385.75 361.82 384.59 360.45L374.49 378.09Z" />
												<path id="&lt;Path&gt;" class="shp21" d="M382.95 358.35C384.51 360.54 386.35 362.53 388.4 364.25L419.6 309.79C417.11 308.9 414.48 308.32 411.75 308.08L382.95 358.35Z" />
											</g>
										</g>
									</g>
								</g>
							</g>
						</g>
						<path id="&lt;Path&gt;" class="shp1" d="M984.13 199.35L984.13 208.04L224.28 208.04L224.28 199.35C224.28 174.69 243.98 155.99 266.31 155.99L941.5 156C966.27 156 984.13 177.01 984.13 199.35Z" />
						<path id="&lt;Path&gt;" class="shp22" d="M278.29 182.3C278.29 187.75 273.87 192.17 268.42 192.17C262.96 192.17 258.54 187.75 258.54 182.3C258.54 176.84 262.96 172.42 268.42 172.42C273.87 172.42 278.29 176.84 278.29 182.3Z" />
						<path id="&lt;Path&gt;" class="shp22" d="M329.3 182.3C329.3 187.75 324.88 192.17 319.43 192.17C313.98 192.17 309.55 187.75 309.55 182.3C309.55 176.84 313.98 172.42 319.43 172.42C324.88 172.42 329.3 176.84 329.3 182.3Z" />
						<path id="&lt;Path&gt;" class="shp22" d="M377.72 182.3C377.72 187.75 373.3 192.17 367.84 192.17C362.39 192.17 357.97 187.75 357.97 182.3C357.97 176.84 362.39 172.42 367.84 172.42C373.3 172.42 377.72 176.84 377.72 182.3Z" />
						<g id="&lt;Group&gt;" style="mix-blend-mode: soft-light">
							<path id="&lt;Path&gt;" class="shp14" d="M545.73 609.86L416.12 609.86L269.93 155.99L399.55 155.99L545.73 609.86Z" />
							<path id="&lt;Path&gt;" class="shp14" d="M619.48 609.86L580.79 609.86L434.6 155.99L473.26 155.99L619.48 609.86Z" />
							<path id="&lt;Path&gt;" class="shp14" d="M925.51 609.86L795.9 609.86L649.71 155.99L779.33 155.99L925.51 609.86Z" />
							<path id="&lt;Path&gt;" class="shp14" d="M984.13 562.96L984.13 566.5C984.13 583.83 973.95 598.81 959.22 605.73L814.38 155.99L853.05 155.99L984.13 562.96Z" />
						</g>
					</g>
					<g id="&lt;Group&gt;">
						<g id="&lt;Group&gt;">
							<path id="&lt;Path&gt;" class="shp12" d="M242.61 301.42C252.83 305.51 258.3 322.6 259.04 344.5C259.78 366.4 272.23 395.17 258.57 402.59C244.91 410.01 221.97 392.27 204.28 407.84C192.48 418.23 177.99 423.9 160.8 424.85C150.08 416.35 146.83 399.95 151.05 375.66C157.38 339.21 181.47 351.92 192.23 336.83C203 321.74 208.09 287.61 242.61 301.42Z" />
							<g id="&lt;Group&gt;">
								<path id="&lt;Path&gt;" class="shp5" d="M236.79 371.63C212.97 366.64 201.45 368.04 202.2 375.82C202.69 380.81 218.14 403.15 218.49 405C218.73 406.36 219.05 407.74 219.32 409.11C219.62 410.48 219.91 411.85 220.27 413.24C220.61 414.62 220.93 416 221.32 417.38L222.53 421.58C222.72 422.27 222.95 422.98 223.2 423.69L223.92 425.81L224.65 427.93L225.51 430.11L226.39 432.28C226.54 432.64 226.67 432.99 226.84 433.36L227.36 434.48L228.43 436.72L228.96 437.83L229.23 438.38L229.68 439.22C230.33 440.37 230.98 441.53 231.73 442.6C232.49 443.66 233.29 444.7 234.11 445.69C234.97 446.62 235.85 447.53 236.75 448.4C237.66 449.23 238.59 449.97 239.54 450.71C243.33 453.5 247.16 455.29 250.78 456.52C251.68 456.79 252.6 457.13 253.47 457.34L256.09 457.99C257.78 458.33 259.49 458.64 261.12 458.82C264.4 459.23 267.55 459.38 270.58 459.33C276.66 459.26 277.42 430.91 273.37 429.88C271.34 429.38 269.46 428.75 267.76 428.1C267.35 427.93 266.9 427.79 266.53 427.59C266.16 427.41 265.78 427.23 265.4 427.07L264.4 426.52C264.05 426.35 263.83 426.14 263.53 425.96C262.82 425.47 262.28 424.38 261.91 422.69L261.55 421.39L261.36 420.74C261.3 420.51 261.25 420.26 261.2 420.02L260.88 418.56L260.54 417.12L260.25 415.56C260.07 414.51 259.85 413.53 259.69 412.43C259.31 410.28 258.57 402.84 257.64 392.97C256.65 382.42 248.97 374.29 236.79 371.63Z" />
								<g id="&lt;Group&gt;">
									<path id="&lt;Path&gt;" class="shp23" d="M169.14 456.53C168.53 448.56 163.61 433.07 163.19 420.75C162.34 395.12 162.98 370.39 204.12 370.17C204.17 370.16 204.23 370.15 204.28 370.14C207 369.68 209.01 369.48 209.96 369.39C210.23 369.37 210.43 369.36 210.57 369.35C229.79 368.8 243.58 370.8 245.24 384.77C246.26 393.29 253.28 397.01 254.57 406.19C256.24 418.11 252.87 420.11 249.81 430.04C248.19 435.28 254.48 455.62 268.66 491.06L166.45 493.03C169.22 481.35 170.12 469.18 169.14 456.53Z" />
									<path id="&lt;Path&gt;" class="shp24" d="M209.96 369.39C209.01 369.48 207 369.68 204.28 370.14C206.13 369.78 208.03 369.53 209.96 369.39Z" />
								</g>
								<g id="&lt;Group&gt;">
									<path id="&lt;Path&gt;" class="shp6" d="M205.16 347.04L231.68 351.6L228.16 361.64L228.15 361.68L227.18 364.45L226.26 367.1L226.06 367.65L222.87 368.02L224.98 370.07C224.29 372.84 221.16 374.23 215.6 374.23C210.03 374.23 206.26 372.86 204.28 370.14L205.16 347.04Z" />
									<path id="&lt;Path&gt;" class="shp6" d="M204.31 338.93C203.73 351.38 210.58 361.67 222.53 365.23C231.68 367.96 238.75 364.13 249.42 341.04C254.66 329.72 240.38 318.01 227.93 317.43C215.47 316.84 204.9 326.47 204.31 338.93Z" />
									<path id="&lt;Path&gt;" class="shp13" d="M224.07 371.54C224.46 371.22 224.77 370.73 224.98 370.07C225.21 369.35 225.83 367.99 226.85 365.97C217.31 364.85 211.42 361.09 209.2 354.72C207.5 362.57 212.46 368.18 224.07 371.54Z" />
								</g>
							</g>
							<path id="&lt;Path&gt;" class="shp5" d="M184.77 374.59C154.58 374.23 164.04 446.27 186.28 455.85C204.54 463.71 219.17 466.31 230.19 463.64L230.4 447.15C230.24 447.08 197.93 441.97 197.15 431.75C195.45 409.37 212.05 376.51 184.77 374.59L184.77 374.59Z" />
							<g id="&lt;Group&gt;">
								<path id="&lt;Path&gt;" class="shp25" d="M263.35 470.38L223.28 470.36C224.12 470.36 224.89 470.65 225.45 471.12C226 471.58 226.34 472.22 226.34 472.93C226.34 474.35 224.96 475.51 223.28 475.51L305.67 475.56C307.35 475.56 308.73 474.4 308.74 472.99C308.74 472.27 308.39 471.63 307.84 471.17C307.28 470.7 306.52 470.41 305.67 470.41L263.35 470.38Z" />
								<path id="&lt;Path&gt;" class="shp26" d="M178.37 470.33C176.95 470.33 175.79 471.48 175.79 472.9C175.79 473.61 176.07 474.25 176.54 474.72C177.01 475.18 177.66 475.48 178.36 475.48L223.8 475.51C225.22 475.51 226.38 474.35 226.38 472.93C226.38 472.22 226.09 471.58 225.62 471.12C225.15 470.65 224.51 470.36 223.8 470.36L179.32 470.33L178.37 470.33Z" />
								<path id="&lt;Path&gt;" class="shp25" d="M221.08 469.01C221.78 469.86 222.8 470.35 223.9 470.36L227.15 470.36C226.05 470.36 225.03 469.86 224.33 469.01C223.64 468.15 223.37 467.05 223.6 465.97L234.4 414.54C234.75 412.86 236.26 411.64 237.97 411.65L234.72 411.64C233.01 411.64 231.51 412.86 231.15 414.53L220.35 465.97C220.12 467.05 220.39 468.15 221.08 469.01Z" />
								<path id="&lt;Path&gt;" class="shp27" d="M224.33 469.01C225.03 469.86 226.05 470.36 227.15 470.36L305.34 470.41C307.05 470.41 308.55 469.19 308.91 467.52L319.71 416.08C319.93 415 319.66 413.91 318.97 413.05C318.28 412.19 317.25 411.7 316.15 411.7L237.97 411.65C236.26 411.64 234.75 412.86 234.4 414.54L223.6 465.97C223.37 467.05 223.64 468.15 224.33 469.01Z" />
								<path id="&lt;Path&gt;" class="shp14" d="M267.41 441.03C267.41 443.37 269.31 445.27 271.65 445.27C273.99 445.27 275.89 443.37 275.89 441.03C275.89 438.69 274 436.79 271.65 436.79C269.31 436.79 267.41 438.68 267.41 441.03Z" />
							</g>
							<path id="&lt;Path&gt;" class="shp12" d="M203.94 333.62C222.7 339.86 237.11 337.95 247.17 327.89C240.77 335.16 235.36 338.4 230.94 337.63C237.21 339.57 242.62 336.98 247.17 329.84C248.43 336.41 250.69 340.36 253.96 341.7C256.94 323.41 250.55 313.13 234.79 310.85C211.15 307.45 205.09 322.8 203.94 333.62Z" />
							<g id="&lt;Group&gt;">
								<path id="&lt;Path&gt;" class="shp6" d="M368.19 563.31C372.82 568.31 376.05 570.3 377.87 569.3L349.47 587.98L343.41 579.61L368.19 563.31Z" />
								<path id="&lt;Path&gt;" class="shp12" d="M387.94 565.8L379.96 568.57C378.29 569.15 376.45 569.07 374.84 568.34L371.03 566.05L363.12 578.84L346.05 583.26L347.73 585.58L356.71 583.05L349.3 587.93C348.06 588.75 347.71 590.41 348.53 591.65L350.77 595.06C351.64 596.38 353.42 596.75 354.73 595.88L363.22 590.3L363.23 585.78L369.32 586.28L396.01 568.72C396.54 568.38 396.58 567.62 396.09 567.22C393.8 565.37 390.72 564.84 387.94 565.8Z" />
							</g>
							<g id="&lt;Group&gt;">
								<path id="&lt;Path&gt;" class="shp6" d="M311.45 609.73C312.57 616.45 314.17 619.89 316.25 620.05L282.25 620.05L281.79 609.73L311.45 609.73Z" />
								<path id="&lt;Path&gt;" class="shp12" d="M326.58 622.66L318.39 620.59C316.68 620.15 315.19 619.08 314.25 617.58L312.32 613.58L298.68 619.91L281.99 614.23L282.12 617.09L291.01 619.91L282.14 619.91C280.65 619.91 279.45 621.12 279.45 622.6L279.45 626.68C279.45 628.26 280.73 629.54 282.31 629.54L292.47 629.54L294.96 625.77L299.77 629.54L331.72 629.54C332.35 629.54 332.8 628.93 332.61 628.33C331.71 625.53 329.43 623.38 326.58 622.66Z" />
							</g>
							<path id="&lt;Path&gt;" class="shp0" d="M297.25 531.79L313.8 609.73L280.21 609.73L253 527.37C259.5 524.4 267.34 520.97 276.52 517.08C290.29 511.24 293.75 523.14 297.25 531.79Z" />
							<path id="&lt;Path&gt;" class="shp1" d="M167.14 510.9L167.15 510.9C171.16 534.08 182.72 539.75 213.32 536.21C238.89 533.26 258.77 527.33 272.97 518.44L339.57 579.9L368.06 559.72C356.58 545.12 343.34 528.81 328.34 510.78C304.53 482.16 299.44 466.19 254.54 476.95C226.83 483.58 205.51 483.96 185.45 488.54L185.44 488.54C177.72 490.3 171.39 491.8 166.45 493.03C165.91 498.96 166.12 505.03 167.14 510.9Z" />
							<path id="&lt;Path&gt;" class="shp10" d="M167.14 510.9L167.15 510.9C182.98 511.91 189.08 504.45 185.45 488.54L185.44 488.54C177.72 490.3 171.39 491.8 166.45 493.03C165.91 498.96 166.12 505.03 167.14 510.9Z" />
							<path id="&lt;Path&gt;" class="shp10" d="M365.83 556.6L336.33 577.84C334.94 578.84 334.62 580.79 335.62 582.18C336.62 583.58 338.58 583.89 339.97 582.89L369.47 561.66C370.86 560.66 371.18 558.7 370.18 557.31C369.18 555.92 367.22 555.6 365.83 556.6Z" />
							<path id="&lt;Path&gt;" class="shp10" d="M314.62 603.5L278.28 603.5C276.56 603.5 275.16 604.9 275.16 606.62C275.16 608.33 276.56 609.73 278.28 609.73L314.62 609.73C316.34 609.73 317.74 608.33 317.74 606.62C317.74 604.9 316.34 603.5 314.62 603.5Z" />
						</g>
					</g>
					<g id="&lt;Group&gt;">
						<g id="&lt;Group&gt;">
							<path id="&lt;Path&gt;" class="shp18" d="M74.02 736.26L74.02 713.16L268.83 713.16L268.83 736.26L74.02 736.26Z" />
							<path id="&lt;Path&gt;" class="shp19" d="M174.77 713.16L190.36 713.16L190.36 736.26L174.77 736.26L174.77 713.16Z" />
							<path id="&lt;Path&gt;" class="shp19" d="M122.21 713.16L134.01 713.16L134.01 736.26L122.21 736.26L122.21 713.16Z" />
							<path id="&lt;Path&gt;" class="shp28" d="M234.65 713.16L268.83 713.16L268.83 736.26L234.65 736.26L234.65 713.16Z" />
							<path id="&lt;Path&gt;" class="shp20" d="M74.02 733.83L74.02 713.16L268.83 713.16L268.83 733.83L74.02 733.83Z" />
						</g>
						<g id="&lt;Group&gt;">
							<path id="&lt;Path&gt;" class="shp18" d="M56.61 758.61L56.61 735.5L251.42 735.5L251.42 758.61L56.61 758.61Z" />
							<path id="&lt;Path&gt;" class="shp19" d="M157.36 735.5L172.95 735.5L172.95 758.6L157.36 758.6L157.36 735.5Z" />
							<path id="&lt;Path&gt;" class="shp19" d="M104.79 735.5L116.6 735.5L116.6 758.6L104.79 758.6L104.79 735.5Z" />
							<path id="&lt;Path&gt;" class="shp28" d="M217.24 735.5L251.41 735.5L251.41 758.6L217.24 758.6L217.24 735.5Z" />
							<path id="&lt;Path&gt;" class="shp20" d="M56.61 756.17L56.61 735.5L251.41 735.5L251.41 756.17L56.61 756.17Z" />
						</g>
						<g id="&lt;Group&gt;">
							<path id="&lt;Path&gt;" class="shp18" d="M56.61 713.16L56.61 690.05L251.42 690.05L251.42 713.16L56.61 713.16Z" />
							<path id="&lt;Path&gt;" class="shp19" d="M157.36 690.05L172.95 690.05L172.95 713.16L157.36 713.16L157.36 690.05Z" />
							<path id="&lt;Path&gt;" class="shp19" d="M104.79 690.05L116.6 690.05L116.6 713.16L104.79 713.16L104.79 690.05Z" />
							<path id="&lt;Path&gt;" class="shp28" d="M217.23 690.05L251.41 690.05L251.41 713.16L217.23 713.16L217.23 690.05Z" />
							<path id="&lt;Path&gt;" class="shp20" d="M56.61 710.72L56.61 690.05L251.41 690.05L251.41 710.72L56.61 710.72Z" />
						</g>
						<g id="&lt;Group&gt;">
							<path id="&lt;Path&gt;" class="shp18" d="M86.5 691.01L86.5 667.91L281.3 667.91L281.3 691.01L86.5 691.01Z" />
							<path id="&lt;Path&gt;" class="shp19" d="M187.24 667.91L202.83 667.91L202.83 691.01L187.24 691.01L187.24 667.91Z" />
							<path id="&lt;Path&gt;" class="shp19" d="M134.68 667.91L146.48 667.91L146.48 691.01L134.68 691.01L134.68 667.91Z" />
							<path id="&lt;Path&gt;" class="shp28" d="M247.12 667.91L281.3 667.91L281.3 691.01L247.12 691.01L247.12 667.91Z" />
							<path id="&lt;Path&gt;" class="shp20" d="M86.5 688.58L86.5 667.91L281.3 667.91L281.3 688.58L86.5 688.58Z" />
						</g>
						<g id="&lt;Group&gt;">
							<path id="&lt;Path&gt;" class="shp18" d="M59.95 644.82L59.95 621.72L254.76 621.72L254.76 644.82L59.95 644.82Z" />
							<path id="&lt;Path&gt;" class="shp19" d="M160.7 621.72L176.29 621.72L176.29 644.82L160.7 644.82L160.7 621.72Z" />
							<path id="&lt;Path&gt;" class="shp19" d="M108.14 621.72L119.94 621.72L119.94 644.82L108.14 644.82L108.14 621.72Z" />
							<path id="&lt;Path&gt;" class="shp28" d="M220.58 621.72L254.76 621.72L254.76 644.82L220.58 644.82L220.58 621.72Z" />
							<path id="&lt;Path&gt;" class="shp20" d="M59.95 642.39L59.95 621.72L254.76 621.72L254.76 642.39L59.95 642.39Z" />
						</g>
						<g id="&lt;Group&gt;">
							<path id="&lt;Path&gt;" class="shp18" d="M67.56 667.93L67.56 644.83L262.37 644.83L262.37 667.93L67.56 667.93Z" />
							<path id="&lt;Path&gt;" class="shp19" d="M168.31 644.82L183.9 644.82L183.9 667.93L168.31 667.93L168.31 644.82Z" />
							<path id="&lt;Path&gt;" class="shp19" d="M115.75 644.82L127.55 644.82L127.55 667.93L115.75 667.93L115.75 644.82Z" />
							<path id="&lt;Path&gt;" class="shp28" d="M228.19 644.82L262.37 644.82L262.37 667.93L228.19 667.93L228.19 644.82Z" />
							<path id="&lt;Path&gt;" class="shp20" d="M67.56 665.5L67.56 644.82L262.37 644.82L262.37 665.5L67.56 665.5Z" />
						</g>
						<g id="&lt;Group&gt;">
							<path id="&lt;Path&gt;" class="shp18" d="M81.44 621.72L81.44 598.62L276.24 598.62L276.24 621.72L81.44 621.72Z" />
							<path id="&lt;Path&gt;" class="shp19" d="M182.18 598.61L197.77 598.61L197.77 621.72L182.18 621.72L182.18 598.61Z" />
							<path id="&lt;Path&gt;" class="shp19" d="M129.62 598.61L141.42 598.61L141.42 621.72L129.62 621.72L129.62 598.61Z" />
							<path id="&lt;Path&gt;" class="shp28" d="M242.06 598.61L276.24 598.61L276.24 621.72L242.06 621.72L242.06 598.61Z" />
							<path id="&lt;Path&gt;" class="shp20" d="M81.44 619.29L81.44 598.61L276.24 598.61L276.24 619.29L81.44 619.29Z" />
						</g>
						<g id="&lt;Group&gt;">
							<path id="&lt;Path&gt;" class="shp18" d="M75.55 598.49L75.55 575.39L270.35 575.39L270.35 598.49L75.55 598.49Z" />
							<path id="&lt;Path&gt;" class="shp19" d="M176.29 575.39L191.88 575.39L191.88 598.49L176.29 598.49L176.29 575.39Z" />
							<path id="&lt;Path&gt;" class="shp19" d="M123.73 575.39L135.53 575.39L135.53 598.49L123.73 598.49L123.73 575.39Z" />
							<path id="&lt;Path&gt;" class="shp28" d="M236.17 575.39L270.35 575.39L270.35 598.49L236.17 598.49L236.17 575.39Z" />
							<path id="&lt;Path&gt;" class="shp20" d="M75.55 596.06L75.55 575.39L270.35 575.39L270.35 596.06L75.55 596.06Z" />
						</g>
						<g id="&lt;Group&gt;">
							<path id="&lt;Path&gt;" class="shp18" d="M62.78 576.64L62.78 553.53L257.59 553.53L257.59 576.64L62.78 576.64Z" />
							<path id="&lt;Path&gt;" class="shp19" d="M163.53 553.53L179.12 553.53L179.12 576.64L163.53 576.64L163.53 553.53Z" />
							<path id="&lt;Path&gt;" class="shp19" d="M110.96 553.53L122.77 553.53L122.77 576.64L110.96 576.64L110.96 553.53Z" />
							<path id="&lt;Path&gt;" class="shp28" d="M223.41 553.53L257.58 553.53L257.58 576.64L223.41 576.64L223.41 553.53Z" />
							<path id="&lt;Path&gt;" class="shp20" d="M62.78 574.2L62.78 553.53L257.58 553.53L257.58 574.2L62.78 574.2Z" />
						</g>
						<g id="&lt;Group&gt;">
							<path id="&lt;Path&gt;" class="shp18" d="M77.37 553.41L77.37 530.31L272.17 530.31L272.17 553.41L77.37 553.41Z" />
							<path id="&lt;Path&gt;" class="shp19" d="M178.11 530.31L193.7 530.31L193.7 553.41L178.11 553.41L178.11 530.31Z" />
							<path id="&lt;Path&gt;" class="shp19" d="M125.55 530.31L137.35 530.31L137.35 553.41L125.55 553.41L125.55 530.31Z" />
							<path id="&lt;Path&gt;" class="shp28" d="M237.99 530.31L272.17 530.31L272.17 553.41L237.99 553.41L237.99 530.31Z" />
							<path id="&lt;Path&gt;" class="shp20" d="M77.37 550.98L77.37 530.31L272.17 530.31L272.17 550.98L77.37 550.98Z" />
						</g>
						<g id="&lt;Group&gt;">
							<path id="&lt;Path&gt;" class="shp18" d="M151.22 662.58C151.22 715.54 194.16 758.48 247.12 758.48C300.08 758.48 343.02 715.54 343.02 662.58C343.02 609.62 300.08 566.68 247.12 566.68C194.16 566.68 151.22 609.62 151.22 662.58Z" />
							<path id="&lt;Path&gt;" class="shp19" d="M164.64 662.58C164.64 680.42 170.3 696.93 179.92 710.42C181.26 712.3 182.67 714.11 184.16 715.86C187.16 719.42 190.47 722.71 194.03 725.7C195.67 727.08 197.37 728.4 199.12 729.66C202.58 732.15 206.26 734.37 210.1 736.3C211.87 737.2 213.69 738.03 215.54 738.79C222.99 741.89 230.98 743.92 239.34 744.69C241.54 744.91 243.76 745.03 246 745.05C246.38 745.06 246.75 745.06 247.12 745.06C292.68 745.06 329.6 708.14 329.6 662.58C329.6 646.94 325.25 632.33 317.7 619.88C316.55 617.97 315.32 616.12 314.02 614.33C309.22 607.66 303.43 601.74 296.88 596.8C295.29 595.59 293.66 594.45 291.98 593.36C288.41 591.04 284.64 588.98 280.71 587.23C278.76 586.35 276.76 585.56 274.73 584.83C270.39 583.29 265.89 582.1 261.25 581.3C259 580.91 256.71 580.62 254.4 580.42C252 580.2 249.57 580.1 247.12 580.1C201.56 580.1 164.64 617.02 164.64 662.58Z" />
							<g id="&lt;Group&gt;">
								<g id="&lt;Group&gt;">
									<path id="&lt;Path&gt;" class="shp18" d="M244.3 729.73L252.11 729.56L249.18 595.35L241.38 595.52L244.3 729.73Z" />
								</g>
								<g id="&lt;Group&gt;">
									<path id="&lt;Path&gt;" class="shp18" d="M247.27 715.68C247.48 715.68 247.69 715.68 247.9 715.68C263.07 715.34 271.13 699.96 271.46 699.3L264.52 695.73C264.45 695.85 258.21 707.64 247.73 707.87C242.63 707.98 238.59 706.26 235.7 702.77C232.77 699.22 231.14 693.97 231 687.59C230.76 676.47 235.26 670.88 248.21 666.21C262.18 661.17 269.11 651.49 268.81 637.42C268.65 630.18 266.6 623.44 263.04 618.43C258.82 612.49 252.62 609.3 245.59 609.45C231.16 609.77 224.61 620.14 224.34 620.58L230.99 624.67C231.16 624.4 235.7 617.48 245.76 617.26C250.25 617.17 253.92 619.08 256.68 622.96C259.3 626.65 260.88 631.98 261 637.59C261.23 648.22 256.32 654.98 245.56 658.86C234.28 662.93 222.8 669.54 223.19 687.76C223.37 695.92 225.62 702.83 229.68 707.75C233.98 712.95 240.05 715.68 247.27 715.68Z" />
								</g>
							</g>
							<g id="&lt;Clip Group&gt;" clip-path="url(#cp4)">
								<g id="&lt;Group&gt;">
									<path id="&lt;Path&gt;" class="shp20" d="M296.88 596.8C303.43 601.74 309.22 607.66 314.02 614.33C315.32 616.12 316.55 617.97 317.7 619.88L342.17 577.16L316.54 562.48L296.88 596.8Z" />
									<path id="&lt;Path&gt;" class="shp20" d="M192.57 778.9L218.2 793.59L246 745.05C243.76 745.03 241.54 744.91 239.34 744.69C230.98 743.92 222.99 741.89 215.54 738.79L192.57 778.9Z" />
									<path id="&lt;Path&gt;" class="shp21" d="M210.1 736.3C219.04 740.81 228.9 743.73 239.34 744.69L314.02 614.33C308.05 606.04 300.57 598.92 291.98 593.36L210.1 736.3Z" />
									<path id="&lt;Path&gt;" class="shp20" d="M261.25 581.3C265.89 582.1 270.39 583.29 274.73 584.83C276.76 585.56 278.76 586.35 280.71 587.23L299.22 554.92L282.01 545.06L261.25 581.3Z" />
									<path id="&lt;Path&gt;" class="shp20" d="M158.04 761.47L175.25 771.33L199.12 729.66C197.37 728.4 195.67 727.08 194.03 725.7C190.47 722.71 187.16 719.42 184.16 715.86L158.04 761.47Z" />
									<path id="&lt;Path&gt;" class="shp21" d="M179.92 710.42C183.97 716.1 188.71 721.23 194.03 725.7L274.73 584.83C268.29 582.54 261.47 581.03 254.4 580.42L179.92 710.42Z" />
								</g>
							</g>
						</g>
					</g>
					<g id="&lt;Group&gt;">
						<path id="&lt;Path&gt;" class="shp12" d="M1104.4 755.9L873.24 755.9C857.39 755.9 844.54 743.05 844.54 727.2L844.54 386.43C844.54 370.58 857.39 357.73 873.24 357.73L1104.4 357.73C1120.25 357.73 1133.1 370.58 1133.1 386.43L1133.1 727.2C1133.1 743.05 1120.25 755.9 1104.4 755.9Z" />
						<path id="&lt;Path&gt;" class="shp0" d="M1089.15 755.9L857.98 755.9C842.13 755.9 829.28 743.05 829.28 727.2L829.28 386.43C829.28 370.58 842.13 357.73 857.98 357.73L1089.15 357.73C1105 357.73 1117.85 370.58 1117.85 386.43L1117.85 727.2C1117.85 743.05 1105 755.9 1089.15 755.9Z" />
						<path id="&lt;Path&gt;" class="shp3" d="M1098.18 385.65L1098.18 448.74L844.79 448.74L844.79 385.65L1098.18 385.65Z" />
						<g id="&lt;Group&gt;">
							<path id="&lt;Path&gt;" class="shp29" d="M883.58 488.04L854.1 488.04C848.96 488.04 844.8 483.87 844.8 478.73C844.8 473.59 848.96 469.42 854.1 469.42L883.58 469.42C888.72 469.42 892.89 473.59 892.89 478.73C892.89 483.87 888.72 488.04 883.58 488.04Z" />
							<path id="&lt;Path&gt;" class="shp29" d="M934.9 488.04L905.43 488.04C900.29 488.04 896.12 483.87 896.12 478.73C896.12 473.59 900.29 469.42 905.43 469.42L934.9 469.42C940.04 469.42 944.21 473.59 944.21 478.73C944.21 483.87 940.04 488.04 934.9 488.04Z" />
							<path id="&lt;Path&gt;" class="shp29" d="M986.22 488.04L956.75 488.04C951.61 488.04 947.44 483.87 947.44 478.73C947.44 473.59 951.61 469.42 956.75 469.42L986.22 469.42C991.37 469.42 995.53 473.59 995.53 478.73C995.53 483.87 991.37 488.04 986.22 488.04Z" />
							<path id="&lt;Path&gt;" class="shp29" d="M1037.55 488.04L1008.07 488.04C1002.93 488.04 998.76 483.87 998.76 478.73C998.76 473.59 1002.93 469.42 1008.07 469.42L1037.55 469.42C1042.69 469.42 1046.85 473.59 1046.85 478.73C1046.85 483.87 1042.69 488.04 1037.55 488.04Z" />
							<path id="&lt;Path&gt;" class="shp29" d="M1088.87 488.04L1059.39 488.04C1054.25 488.04 1050.09 483.87 1050.09 478.73C1050.09 473.59 1054.25 469.42 1059.39 469.42L1088.87 469.42C1094.01 469.42 1098.18 473.59 1098.18 478.73C1098.18 483.87 1094.01 488.04 1088.87 488.04Z" />
						</g>
						<g id="&lt;Group&gt;">
							<path id="&lt;Path&gt;" class="shp3" d="M892.63 547.25L844.54 547.25L844.54 499.16L892.63 499.16L892.63 547.25Z" />
							<path id="&lt;Path&gt;" class="shp3" d="M942.96 547.25L894.87 547.25L894.87 499.16L942.96 499.16L942.96 547.25Z" />
							<path id="&lt;Path&gt;" class="shp3" d="M995.27 547.5L947.44 547.5L947.44 499.41L988.81 499.41L995.27 499.41L995.27 540.52L995.27 547.5Z" />
							<path id="&lt;Path&gt;" class="shp30" d="M1040.13 547.5L1005.49 547.5C1001.77 547.5 998.76 544.5 998.76 540.78L998.76 506.14C998.76 502.42 1001.77 499.41 1005.49 499.41L1040.13 499.41C1043.85 499.41 1046.85 502.42 1046.85 506.14L1046.85 540.78C1046.85 544.5 1043.85 547.5 1040.13 547.5Z" />
							<path id="&lt;Path&gt;" class="shp30" d="M1091.46 547.5L1056.81 547.5C1053.1 547.5 1050.09 544.5 1050.09 540.78L1050.09 506.14C1050.09 502.42 1053.1 499.41 1056.81 499.41L1091.46 499.41C1095.17 499.41 1098.18 502.42 1098.18 506.14L1098.18 540.78C1098.18 544.5 1095.17 547.5 1091.46 547.5Z" />
							<path id="&lt;Path&gt;" class="shp3" d="M892.63 606.71L844.54 606.71L844.54 558.62L892.63 558.62L892.63 606.71Z" />
							<path id="&lt;Path&gt;" class="shp3" d="M943.95 606.71L895.86 606.71L895.86 558.62L943.95 558.62L943.95 606.71Z" />
							<path id="&lt;Path&gt;" class="shp3" d="M995.27 606.71L947.18 606.71L947.18 558.62L995.27 558.62L995.27 606.71Z" />
							<path id="&lt;Path&gt;" class="shp30" d="M1040.13 606.97L1005.49 606.97C1001.77 606.97 998.76 603.96 998.76 600.25L998.76 565.6C998.76 561.89 1001.77 558.88 1005.49 558.88L1040.13 558.88C1043.85 558.88 1046.85 561.89 1046.85 565.6L1046.85 600.25C1046.85 603.96 1043.85 606.97 1040.13 606.97Z" />
							<path id="&lt;Path&gt;" class="shp30" d="M1091.46 606.97L1056.81 606.97C1053.1 606.97 1050.09 603.96 1050.09 600.25L1050.09 565.6C1050.09 561.89 1053.1 558.88 1056.81 558.88L1091.46 558.88C1095.17 558.88 1098.18 561.89 1098.18 565.6L1098.18 600.25C1098.18 603.96 1095.17 606.97 1091.46 606.97Z" />
							<path id="&lt;Path&gt;" class="shp3" d="M892.63 668.33L844.54 668.33L844.54 620.24L892.63 620.24L892.63 668.33Z" />
							<path id="&lt;Path&gt;" class="shp3" d="M943.95 668.33L895.86 668.33L895.86 620.24L943.95 620.24L943.95 668.33Z" />
							<path id="&lt;Path&gt;" class="shp3" d="M995.27 668.33L947.18 668.33L947.18 620.24L995.27 620.24L995.27 668.33Z" />
							<path id="&lt;Path&gt;" class="shp30" d="M1040.13 668.59L1005.49 668.59C1001.77 668.59 998.76 665.58 998.76 661.87L998.76 627.22C998.76 623.51 1001.77 620.5 1005.49 620.5L1040.13 620.5C1043.85 620.5 1046.85 623.51 1046.85 627.22L1046.85 661.87C1046.85 665.58 1043.85 668.59 1040.13 668.59Z" />
							<path id="&lt;Path&gt;" class="shp30" d="M1091.46 668.59L1056.81 668.59C1053.1 668.59 1050.09 665.58 1050.09 661.87L1050.09 627.22C1050.09 623.51 1053.1 620.5 1056.81 620.5L1091.46 620.5C1095.17 620.5 1098.18 623.51 1098.18 627.22L1098.18 661.87C1098.18 665.58 1095.17 668.59 1091.46 668.59Z" />
							<path id="&lt;Path&gt;" class="shp3" d="M892.89 729.78L844.8 729.78L844.8 681.69L892.89 681.69L892.89 729.78Z" />
							<path id="&lt;Path&gt;" class="shp3" d="M943.95 729.53L895.86 729.53L895.86 681.43L943.95 681.43L943.95 729.53Z" />
							<path id="&lt;Path&gt;" class="shp3" d="M995.27 729.53L947.18 729.53L947.18 681.43L995.27 681.43L995.27 729.53Z" />
							<path id="&lt;Path&gt;" class="shp30" d="M1040.13 729.78L1005.49 729.78C1001.77 729.78 998.76 726.77 998.76 723.06L998.76 688.42C998.76 684.7 1001.77 681.69 1005.49 681.69L1040.13 681.69C1043.85 681.69 1046.85 684.7 1046.85 688.42L1046.85 723.06C1046.85 726.77 1043.85 729.78 1040.13 729.78Z" />
							<path id="&lt;Path&gt;" class="shp30" d="M1091.46 729.78L1056.81 729.78C1053.1 729.78 1050.09 726.77 1050.09 723.06L1050.09 688.42C1050.09 684.7 1053.1 681.69 1056.81 681.69L1091.46 681.69C1095.17 681.69 1098.18 684.7 1098.18 688.42L1098.18 723.06C1098.18 726.77 1095.17 729.78 1091.46 729.78Z" />
							<g id="&lt;Group&gt;">
								<path id="&lt;Compound Path&gt;" class="shp31" d="M868.4 515.53L864.18 515.53L864.18 512.66C865.33 512.66 866.25 512.57 866.95 512.37C867.65 512.17 868.2 511.85 868.62 511.4C869.04 510.94 869.4 510.29 869.72 509.43L872.44 509.43L872.44 535.13L868.4 535.13L868.4 515.53Z" />
							</g>
							<g id="&lt;Group&gt;">
								<path id="&lt;Compound Path&gt;" class="shp31" d="M913 532.34C913 530.51 913.3 528.93 913.89 527.63C914.47 526.32 915.52 524.87 917.04 523.27C918.54 521.68 919.57 520.32 920.14 519.2C920.72 518.07 921.01 516.9 921.01 515.67C921.01 514.57 920.83 513.81 920.48 513.38C920.12 512.95 919.6 512.74 918.92 512.74C917.52 512.74 916.82 513.58 916.82 515.27L916.82 518.02L913 518.02L913 515.53C913 513.45 913.52 511.85 914.55 510.74C915.57 509.62 917.07 509.07 919.03 509.07C920.98 509.07 922.48 509.62 923.5 510.74C924.53 511.85 925.05 513.45 925.05 515.53C925.05 517.09 924.67 518.62 923.93 520.12C923.18 521.61 921.89 523.32 920.05 525.26C918.85 526.53 918.05 527.56 917.63 528.36C917.21 529.15 917.01 530.01 917.01 530.91L917.01 531.46L924.68 531.46L924.68 535.13L913 535.13L913 532.34Z" />
							</g>
							<g id="&lt;Group&gt;">
								<path id="&lt;Compound Path&gt;" class="shp31" d="M966.75 534.11C965.73 533.01 965.23 531.43 965.23 529.37L965.23 527.28L969.04 527.28L969.04 529.55C969.04 531.24 969.74 532.09 971.14 532.09C971.82 532.09 972.34 531.87 972.7 531.44C973.05 531.02 973.23 530.26 973.23 529.19L973.23 527.09C973.23 525.92 973.02 525.08 972.61 524.58C972.19 524.08 971.52 523.83 970.59 523.83L969.23 523.83L969.23 520.16L970.7 520.16C971.5 520.16 972.11 519.95 972.51 519.53C972.92 519.11 973.12 518.42 973.12 517.44L973.12 515.57C973.12 514.68 972.94 514.04 972.57 513.62C972.2 513.2 971.71 513 971.1 513C969.8 513 969.15 513.79 969.15 515.38L969.15 517.07L965.34 517.07L965.34 515.71C965.34 513.66 965.84 512.08 966.86 510.98C967.88 509.88 969.34 509.32 971.25 509.32C973.18 509.32 974.65 509.87 975.65 510.96C976.66 512.05 977.16 513.62 977.16 515.68L977.16 516.59C977.16 517.99 976.93 519.11 976.46 519.95C976 520.8 975.27 521.4 974.29 521.77L974.29 521.84C975.35 522.24 976.11 522.87 976.57 523.75C977.04 524.63 977.27 525.76 977.27 527.13L977.27 529.41C977.27 531.46 976.76 533.04 975.74 534.12C974.73 535.21 973.23 535.76 971.25 535.76C969.26 535.76 967.77 535.21 966.75 534.11Z" />
							</g>
							<g id="&lt;Group&gt;">
								<path id="&lt;Compound Path&gt;" fill-rule="evenodd" class="shp31" d="M869.5 590.8L861.79 590.8L861.79 587.13L869.13 569.76L873.54 569.76L873.54 587.13L875.45 587.13L875.45 590.8L873.54 590.8L873.54 595.46L869.5 595.46L869.5 590.8ZM869.5 587.13L869.5 577.1L869.43 577.1L865.46 587.13L869.5 587.13Z" />
							</g>
							<g id="&lt;Group&gt;">
								<path id="&lt;Compound Path&gt;" class="shp31" d="M914.51 594.16C913.48 593.05 912.97 591.45 912.97 589.37L912.97 587.35L916.79 587.35L916.79 589.66C916.79 591.33 917.48 592.16 918.88 592.16C920.27 592.16 920.97 591.33 920.97 589.66L920.97 583.9C920.97 582.21 920.27 581.36 918.88 581.36C917.48 581.36 916.79 582.21 916.79 583.9L916.79 584.12L912.97 584.12L913.7 569.76L924.35 569.76L924.35 573.43L917.3 573.43L916.97 579.56L917.04 579.56C917.8 578.32 918.96 577.69 920.53 577.69C922 577.69 923.11 578.19 923.87 579.2C924.63 580.2 925.01 581.66 925.01 583.57L925.01 589.37C925.01 591.45 924.5 593.05 923.47 594.16C922.44 595.27 920.95 595.83 918.99 595.83C917.03 595.83 915.54 595.27 914.51 594.16Z" />
							</g>
							<g id="&lt;Group&gt;">
								<path id="&lt;Compound Path&gt;" fill-rule="evenodd" class="shp31" d="M966.92 594.4C965.86 593.27 965.34 591.68 965.34 589.63L965.34 576.34C965.34 571.88 967.39 569.65 971.5 569.65C973.46 569.65 974.96 570.21 975.98 571.32C977.01 572.44 977.53 574.03 977.53 576.11L977.53 576.59L973.71 576.59L973.71 575.86C973.71 574.17 973.01 573.32 971.61 573.32C970.86 573.32 970.29 573.56 969.93 574.02C969.56 574.49 969.38 575.31 969.38 576.48L969.38 581.4L969.45 581.4C970.16 579.91 971.38 579.16 973.12 579.16C974.59 579.16 975.7 579.66 976.46 580.67C977.22 581.67 977.6 583.13 977.6 585.04L977.6 589.63C977.6 591.68 977.07 593.27 976.02 594.4C974.97 595.52 973.45 596.09 971.47 596.09C969.48 596.09 967.97 595.52 966.92 594.4ZM973.56 589.92L973.56 585.37C973.56 583.68 972.86 582.83 971.47 582.83C970.07 582.83 969.38 583.68 969.38 585.37L969.38 589.92C969.38 591.58 970.07 592.42 971.47 592.42C972.86 592.42 973.56 591.58 973.56 589.92Z" />
							</g>
							<g id="&lt;Group&gt;">
								<path id="&lt;Compound Path&gt;" class="shp31" d="M870.64 635.49L862.49 635.49L862.49 631.81L874.6 631.81L874.6 635.34L868.29 657.51L864.18 657.51L870.64 635.49Z" />
							</g>
							<g id="&lt;Group&gt;">
								<path id="&lt;Compound Path&gt;" fill-rule="evenodd" class="shp31" d="M914.23 656.25C913.14 655.16 912.6 653.59 912.6 651.53L912.6 649.25C912.6 647.98 912.81 646.91 913.22 646.04C913.64 645.17 914.31 644.49 915.24 644L915.24 643.93C914.39 643.47 913.76 642.82 913.35 642C912.95 641.18 912.75 640.14 912.75 638.86L912.75 637.8C912.75 635.74 913.28 634.17 914.34 633.08C915.41 631.99 916.93 631.45 918.92 631.45C920.9 631.45 922.42 631.99 923.49 633.08C924.55 634.17 925.08 635.74 925.08 637.8L925.08 638.86C925.08 641.31 924.25 643 922.59 643.93L922.59 644C923.52 644.49 924.19 645.17 924.61 646.04C925.02 646.91 925.23 647.98 925.23 649.25L925.23 651.53C925.23 653.59 924.68 655.16 923.6 656.25C922.51 657.34 920.95 657.88 918.92 657.88C916.88 657.88 915.32 657.34 914.23 656.25ZM921.19 651.31L921.19 648.85C921.19 646.92 920.43 645.95 918.92 645.95C917.4 645.95 916.64 646.92 916.64 648.85L916.64 651.31C916.64 653.24 917.4 654.21 918.92 654.21C920.43 654.21 921.19 653.24 921.19 651.31ZM921.04 639.71L921.04 637.69C921.04 635.98 920.33 635.12 918.92 635.12C917.49 635.12 916.79 635.98 916.79 637.69L916.79 639.71C916.79 641.42 917.49 642.28 918.92 642.28C920.33 642.28 921.04 641.42 921.04 639.71Z" />
							</g>
							<g id="&lt;Group&gt;">
								<path id="&lt;Compound Path&gt;" fill-rule="evenodd" class="shp31" d="M966.73 656.47C965.7 655.36 965.19 653.76 965.19 651.68L965.19 651.2L969.01 651.2L969.01 651.94C969.01 653.62 969.71 654.47 971.1 654.47C971.86 654.47 972.42 654.24 972.79 653.77C973.16 653.31 973.34 652.49 973.34 651.31L973.34 646.39L973.27 646.39C972.56 647.88 971.33 648.63 969.6 648.63C968.13 648.63 967.01 648.13 966.25 647.13C965.5 646.12 965.12 644.67 965.12 642.76L965.12 638.17C965.12 636.11 965.64 634.52 966.69 633.39C967.75 632.27 969.26 631.71 971.25 631.71C973.23 631.71 974.75 632.27 975.8 633.39C976.85 634.52 977.38 636.11 977.38 638.17L977.38 651.46C977.38 655.91 975.32 658.14 971.21 658.14C969.25 658.14 967.76 657.58 966.73 656.47ZM973.34 642.43L973.34 637.87C973.34 636.21 972.64 635.38 971.25 635.38C969.85 635.38 969.15 636.21 969.15 637.87L969.15 642.43C969.15 644.12 969.85 644.96 971.25 644.96C972.64 644.96 973.34 644.12 973.34 642.43Z" />
							</g>
							<g id="&lt;Group&gt;">
								<path id="&lt;Compound Path&gt;" fill-rule="evenodd" class="shp31" d="M864.03 716.87C862.98 715.74 862.45 714.15 862.45 712.09L862.45 698.58C862.45 696.53 862.98 694.94 864.03 693.81C865.08 692.68 866.6 692.12 868.58 692.12C870.57 692.12 872.08 692.68 873.14 693.81C874.19 694.94 874.71 696.53 874.71 698.58L874.71 712.09C874.71 714.15 874.19 715.74 873.14 716.87C872.08 717.99 870.57 718.55 868.58 718.55C866.6 718.55 865.08 717.99 864.03 716.87ZM870.68 712.35L870.68 698.33C870.68 696.64 869.98 695.79 868.58 695.79C867.19 695.79 866.49 696.64 866.49 698.33L866.49 712.35C866.49 714.04 867.19 714.88 868.58 714.88C869.98 714.88 870.68 714.04 870.68 712.35Z" />
							</g>
							<g id="&lt;Group&gt;">
								<path id="&lt;Compound Path&gt;" class="shp31" d="M918.25 714.3L922.14 714.3L922.14 718.19L918.25 718.19L918.25 714.3Z" />
							</g>
							<g id="&lt;Group&gt;">
								<path id="&lt;Compound Path&gt;" class="shp31" d="M965.37 701.19L977.34 701.19L977.34 704.05L965.37 704.05L965.37 701.19ZM965.37 707.14L977.34 707.14L977.34 710L965.37 710L965.37 707.14Z" />
							</g>
						</g>
						<g id="&lt;Clip Group&gt;" clip-path="url(#cp5)">
							<g id="&lt;Group&gt;">
								<path id="&lt;Compound Path&gt;" class="shp31" d="M964.01 418.98L964.01 406.46L965.8 404.67L969.38 408.25L969.38 417.19L965.8 420.77L964.01 418.98ZM964.01 435.09L964.01 422.56L965.8 420.77L969.38 424.35L969.38 433.3L965.8 436.88L964.01 435.09ZM970.28 407.35L966.7 403.77L968.49 401.98L981.02 401.98L982.81 403.77L979.23 407.35L970.28 407.35ZM968.49 439.57L966.7 437.78L970.28 434.2L979.23 434.2L982.81 437.78L981.02 439.57L968.49 439.57ZM980.12 417.19L980.12 408.25L983.7 404.67L985.49 406.46L985.49 418.98L983.7 420.77L980.12 417.19ZM980.12 433.3L980.12 424.35L983.7 420.77L985.49 422.56L985.49 435.09L983.7 436.88L980.12 433.3Z" />
								<path id="&lt;Compound Path&gt;" class="shp31" d="M999.53 439.57L996.85 436.88L999.53 434.2L1001.32 434.2L1004.01 436.88L1001.32 439.57L999.53 439.57Z" />
								<path id="&lt;Compound Path&gt;" class="shp31" d="M1015.36 418.98L1015.36 406.46L1017.15 404.67L1020.73 408.25L1020.73 417.19L1017.15 420.77L1015.36 418.98ZM1015.36 435.09L1015.36 422.56L1017.15 420.77L1020.73 424.35L1020.73 433.3L1017.15 436.88L1015.36 435.09ZM1021.63 407.35L1018.05 403.77L1019.84 401.98L1032.36 401.98L1034.15 403.77L1030.57 407.35L1021.63 407.35ZM1019.84 439.57L1018.05 437.78L1021.63 434.2L1030.57 434.2L1034.15 437.78L1032.36 439.57L1019.84 439.57ZM1031.47 417.19L1031.47 408.25L1035.05 404.67L1036.84 406.46L1036.84 418.98L1035.05 420.77L1031.47 417.19ZM1031.47 433.3L1031.47 424.35L1035.05 420.77L1036.84 422.56L1036.84 435.09L1035.05 436.88L1031.47 433.3Z" />
								<path id="&lt;Compound Path&gt;" class="shp31" d="M1041.03 418.98L1041.03 406.46L1042.82 404.67L1046.4 408.25L1046.4 417.19L1042.82 420.77L1041.03 418.98ZM1041.03 435.09L1041.03 422.56L1042.82 420.77L1046.4 424.35L1046.4 433.3L1042.82 436.88L1041.03 435.09ZM1047.3 407.35L1043.72 403.77L1045.51 401.98L1058.04 401.98L1059.83 403.77L1056.25 407.35L1047.3 407.35ZM1045.51 439.57L1043.72 437.78L1047.3 434.2L1056.25 434.2L1059.83 437.78L1058.04 439.57L1045.51 439.57ZM1057.14 417.19L1057.14 408.25L1060.72 404.67L1062.51 406.46L1062.51 418.98L1060.72 420.77L1057.14 417.19ZM1057.14 433.3L1057.14 424.35L1060.72 420.77L1062.51 422.56L1062.51 435.09L1060.72 436.88L1057.14 433.3Z" />
								<path id="&lt;Compound Path&gt;" class="shp31" d="M1066.71 418.98L1066.71 406.46L1068.5 404.67L1072.08 408.25L1072.08 417.19L1068.5 420.77L1066.71 418.98ZM1072.97 407.35L1069.39 403.77L1071.18 401.98L1083.71 401.98L1085.5 403.77L1081.92 407.35L1072.97 407.35ZM1071.18 439.57L1069.39 437.78L1072.97 434.2L1081.92 434.2L1085.5 437.78L1083.71 439.57L1071.18 439.57ZM1072.97 423.46L1070.29 420.77L1072.97 418.09L1081.92 418.09L1084.61 420.77L1081.92 423.46L1072.97 423.46ZM1082.82 433.3L1082.82 424.35L1086.4 420.77L1088.18 422.56L1088.18 435.09L1086.4 436.88L1082.82 433.3Z" />
							</g>
							<g id="&lt;Group&gt;" style="mix-blend-mode: soft-light">
								<path id="&lt;Path&gt;" class="shp14" d="M889.43 454.13L868.33 454.13L844.54 380.26L865.63 380.26L889.43 454.13Z" />
								<path id="&lt;Path&gt;" class="shp14" d="M901.43 454.13L895.13 454.13L871.34 380.26L877.63 380.26L901.43 454.13Z" />
								<path id="&lt;Path&gt;" class="shp14" d="M951.24 454.13L930.14 454.13L906.35 380.26L927.45 380.26L951.24 454.13Z" />
								<path id="&lt;Path&gt;" class="shp14" d="M960.78 446.5L960.78 447.07C960.78 449.89 959.12 452.33 956.73 453.46L933.15 380.26L939.44 380.26L960.78 446.5Z" />
								<path id="&lt;Path&gt;" class="shp14" d="M1026.82 454.13L1005.73 454.13L981.94 380.26L1003.03 380.26L1026.82 454.13Z" />
								<path id="&lt;Path&gt;" class="shp14" d="M1038.83 454.13L1032.53 454.13L1008.74 380.26L1015.03 380.26L1038.83 454.13Z" />
								<path id="&lt;Path&gt;" class="shp14" d="M1088.64 454.13L1067.54 454.13L1043.75 380.26L1064.84 380.26L1088.64 454.13Z" />
								<path id="&lt;Path&gt;" class="shp14" d="M1098.18 446.5L1098.18 447.07C1098.18 449.89 1096.52 452.33 1094.12 453.46L1070.55 380.26L1076.84 380.26L1098.18 446.5Z" />
							</g>
						</g>
						<g id="&lt;Clip Group&gt;" clip-path="url(#cp6)">
							<g id="&lt;Group&gt;" style="mix-blend-mode: soft-light">
								<path id="&lt;Path&gt;" class="shp14" d="M915.95 314.29L938.93 385.65L867.16 385.65L844.79 314.29L915.95 314.29Z" />
								<path id="&lt;Path&gt;" class="shp14" d="M1012.68 385.65L974 385.65L951.02 314.29L989.69 314.29L1012.68 385.65Z" />
								<path id="&lt;Path&gt;" class="shp14" d="M959.25 448.74L1062.17 768.31L987.09 768.31L886.93 448.74L959.25 448.74Z" />
								<path id="&lt;Path&gt;" class="shp14" d="M1135.95 768.31L1097.25 768.31L994.32 448.74L1033 448.74L1135.95 768.31Z" />
							</g>
						</g>
					</g>
					<g id="&lt;Group&gt;">
						<g id="&lt;Group&gt;">
							<path id="&lt;Path&gt;" class="shp6" d="M377.51 723.64C380.46 733.25 380.4 743.96 377.34 755.75L361.96 754.47L318.24 751.13L318.24 751.12C319.13 746.46 319.57 741.41 319.57 735.95C319.57 730.94 319.13 725.88 318.24 720.78L361.33 722.82L377.51 723.64Z" />
							<path id="&lt;Path&gt;" class="shp32" d="M382.12 716.89C387.83 730.16 387.83 745.38 382.12 762.55L317.08 758.26C315.68 758.16 314.59 756.5 314.63 754.53C314.69 752.59 315.84 751.06 317.21 751.06C317.25 751.06 317.28 751.06 317.32 751.06L318.24 751.13L361.96 754.47L377.34 755.75C380.4 743.96 380.46 733.25 377.51 723.64L361.33 722.82L318.24 720.78L317.19 720.72C315.81 720.65 314.72 719.06 314.72 717.12C314.72 715.15 315.87 713.53 317.27 713.53C317.31 713.53 317.34 713.53 317.38 713.53L382.12 716.89Z" />
							<path id="&lt;Path&gt;" class="shp5" d="M576.11 710.65L569.9 710.65L382.12 716.89L317.38 713.53L506.34 709.78L576.11 710.65Z" />
							<path id="&lt;Path&gt;" class="shp5" d="M576.11 710.65C582.13 728.45 582.47 743.96 577.11 757.17L569.9 757.17L382.12 762.55C387.83 745.38 387.83 730.16 382.12 716.89L569.9 710.65L576.11 710.65Z" />
						</g>
						<path id="&lt;Path&gt;" class="shp33" d="M378.51 732.78C371.74 733.1 364.99 732.88 358.26 732.54C351.52 732.14 344.8 731.61 338.1 730.54C344.87 730.22 351.62 730.44 358.35 730.79C365.09 731.19 371.81 731.72 378.51 732.78Z" />
						<path id="&lt;Path&gt;" class="shp33" d="M343.96 743.6C340.19 743.94 336.46 743.74 332.75 743.42C329.04 743.04 325.35 742.53 321.71 741.49C325.48 741.15 329.2 741.34 332.92 741.67C336.62 742.05 340.32 742.56 343.96 743.6Z" />
						<path id="&lt;Path&gt;" class="shp23" d="M348.94 749.23C346.14 744.89 346.66 735.03 349.9 731.01C355.59 731.31 361.27 731.61 366.96 731.91C363.73 735.92 363.21 745.79 366 750.13C362.49 748.78 359.09 747.06 355.94 745.14C353.41 746.76 351.11 748.18 348.94 749.23Z" />
						<path id="&lt;Path&gt;" class="shp23" d="M397.98 762.04C403.34 748.83 403.02 733.6 397 716.37L414.55 716.37C420.57 733.6 420.9 748.83 415.54 762.04L397.98 762.04Z" />
						<path id="&lt;Path&gt;" class="shp23" d="M545.47 758.02C550.83 744.81 550.5 729.59 544.48 712.35L562.04 712.35C568.06 729.59 568.39 744.81 563.03 758.02L545.47 758.02Z" />
					</g>
					<g id="&lt;Group&gt;">
						<g id="&lt;Group&gt;">
							<path id="&lt;Path&gt;" class="shp6" d="M494.75 681.47C490.61 691.08 490.69 701.79 494.98 713.59L519.42 712.25L580.71 708.91L580.71 708.89C579.47 704.24 578.85 699.18 578.85 693.73C578.85 688.72 579.47 683.66 580.71 678.55L580.71 678.54L520.3 680.6L494.75 681.47Z" />
							<path id="&lt;Path&gt;" class="shp7" d="M581.99 708.84L580.71 708.91L519.42 712.25L494.98 713.59C490.69 701.79 490.61 691.08 494.75 681.47L520.3 680.6L580.71 678.54L582.16 678.49C584.1 678.42 585.63 676.84 585.63 674.89C585.63 672.92 584.02 671.31 582.06 671.31C582 671.31 581.96 671.31 581.9 671.31L491.17 674.66C483.18 687.93 483.18 703.15 491.17 720.33L582.33 716.03C584.29 715.93 585.82 714.28 585.76 712.31C585.69 710.36 584.08 708.84 582.15 708.84C582.09 708.84 582.05 708.84 581.99 708.84Z" />
							<path id="&lt;Path&gt;" class="shp8" d="M581.9 671.31L333.26 668.17L334.62 668.23L491.17 674.66L581.9 671.31Z" />
							<path id="&lt;Path&gt;" class="shp8" d="M488.13 674.54L334.62 668.23C326.98 667.92 320.6 674.03 320.56 681.69L320.45 700.81C320.41 708.13 326.17 714.15 333.47 714.42L491.17 720.33C483.18 703.15 483.18 687.93 491.17 674.66L488.13 674.54Z" />
						</g>
						<path id="&lt;Path&gt;" class="shp33" d="M495.21 693.82C499.95 694.16 504.67 694.21 509.39 694.16C514.1 694.13 518.81 693.93 523.52 693.69C528.22 693.41 532.93 693.08 537.62 692.59C542.31 692.12 547 691.55 551.67 690.69C546.93 690.35 542.21 690.3 537.49 690.35C532.78 690.38 528.07 690.58 523.36 690.82C518.66 691.11 513.95 691.43 509.26 691.92C504.57 692.4 499.88 692.97 495.21 693.82Z" />
						<path id="&lt;Path&gt;" class="shp33" d="M545.28 701.37C550.53 701.71 555.73 701.52 560.93 701.19C566.13 700.82 571.32 700.31 576.47 699.26C571.23 698.92 566.02 699.12 560.82 699.44C555.62 699.82 550.43 700.33 545.28 701.37Z" />
						<path id="&lt;Path&gt;" class="shp5" d="M536.88 722.03C541.66 714.98 541.18 698.24 535.99 691.48C526.58 691.76 517.53 692.92 508.12 693.19C513.31 699.95 513.45 715.8 508.66 722.85C514.51 720.76 520.19 718.06 525.47 715.01C529.59 717.78 533.32 720.21 536.88 722.03Z" />
					</g>
					<g id="&lt;Group&gt;">
						<g id="&lt;Group&gt;">
							<path id="&lt;Path&gt;" class="shp0" d="M411.08 628.97L415.53 629.37C404.47 630.16 396.15 639.75 396.94 650.81L397.37 656.93C398.03 666.16 404.84 673.49 413.51 675.18L342.09 669.45C330.18 668.29 321.51 657.65 322.73 645.76L323.07 642.47C324.28 630.74 334.67 622.16 346.42 623.21L346.44 623.21L411.08 628.97Z" />
							<path id="&lt;Path&gt;" class="shp0" d="M583.07 625.56L415.53 629.37L411.08 628.97L346.44 623.21L346.42 623.21L345.65 623.14L583.07 625.56Z" />
							<path id="&lt;Path&gt;" class="shp1" d="M578.25 632.31L415.89 636.56C412.22 636.86 408.91 638.68 406.66 641.66C404.72 644.25 403.92 647.52 404.15 650.76L404.57 656.41C405.04 663 410.57 668.26 417.17 668.37C417.54 668.37 417.93 668.35 418.3 668.33L418.48 668.32L578.47 664.69L582.44 664.59C584.32 664.55 585.85 666.09 585.82 667.96L585.81 668.55C585.78 670.32 584.36 671.75 582.59 671.8L418.82 675.51C417.01 675.64 415.22 675.52 413.51 675.18C404.84 673.49 398.03 666.16 397.37 656.93L396.94 650.81C396.15 639.75 404.47 630.16 415.53 629.37L583.07 625.56C584.94 625.52 586.47 627.04 586.44 628.93C586.41 630.7 585.01 632.13 583.23 632.17L578.25 632.31Z" />
							<path id="&lt;Path&gt;" class="shp6" d="M578.47 664.69L418.48 668.32L418.3 668.33C417.93 668.35 417.54 668.37 417.17 668.37C410.57 668.26 405.04 663 404.57 656.41L404.15 650.76C403.92 647.52 404.72 644.25 406.66 641.66C408.91 638.68 412.22 636.86 415.89 636.56L578.25 632.31C578.19 632.6 576.13 642.26 576.03 648.46C575.97 652.58 576.78 657.99 578.47 664.69Z" />
						</g>
						<path id="&lt;Path&gt;" class="shp33" d="M418.22 645.94C422.91 645.16 427.6 644.66 432.3 644.27C437 643.85 441.71 643.6 446.42 643.39C451.13 643.23 455.84 643.1 460.56 643.14C465.28 643.17 470 643.3 474.73 643.71C470.04 644.49 465.35 644.99 460.65 645.39C455.95 645.81 451.24 646.05 446.53 646.26C441.82 646.42 437.11 646.55 432.39 646.5C427.68 646.48 422.95 646.35 418.22 645.94Z" />
						<path id="&lt;Path&gt;" class="shp33" d="M456.95 659.11C461.64 658.33 466.33 657.83 471.03 657.43C475.73 657.02 480.44 656.77 485.15 656.56C489.86 656.4 494.57 656.27 499.29 656.31C504.01 656.34 508.73 656.46 513.46 656.88C508.77 657.66 504.08 658.16 499.38 658.56C494.68 658.97 489.97 659.22 485.26 659.43C480.55 659.59 475.84 659.71 471.12 659.67C466.41 659.65 461.68 659.52 456.95 659.11Z" />
						<path id="&lt;Path&gt;" class="shp7" d="M463.34 683.55C469.84 674.84 470.26 653.29 464.04 644.37C452.03 644.18 441.36 645.45 429.36 645.26C435.59 654.17 433.83 674.27 427.32 682.98C434.91 680.65 442.29 677.53 449.21 673.95C454.3 677.72 458.92 681.03 463.34 683.55Z" />
						<path id="&lt;Path&gt;" class="shp33" d="M498.44 650.69C504.89 649.91 511.35 649.41 517.81 649.01C524.27 648.6 530.73 648.35 537.2 648.13C543.66 647.97 550.13 647.85 556.6 647.89C563.08 647.92 569.55 648.05 576.03 648.46C569.59 649.24 563.13 649.74 556.67 650.14C550.21 650.55 543.74 650.8 537.28 651.01C530.81 651.17 524.34 651.29 517.87 651.25C511.4 651.22 504.92 651.1 498.44 650.69Z" />
					</g>
				</g>
			</g>
		</g>
	</g>
</svg>