<svg width="1263" height="926" viewBox="0 0 1263 926" fill="none" xmlns="http://www.w3.org/2000/svg">
<g filter="url(#filter0_d)">
<path d="M1124.89 314.155C721.887 445.155 1096.46 576.553 945.339 643.839C65.1343 984.378 17.339 619.84 116.839 463.339C169.927 379.839 468.339 223.339 644.839 223.339C857.839 254.839 1254.39 166.655 1124.89 314.155Z" fill="url(#paint0_linear)"/>
</g>
<path d="M859.623 238.302C1002.12 68.6199 1098.9 666.904 843.123 666.904C587.341 666.904 283.123 771.967 192.123 771.967C118.983 762.343 84.9571 375.757 245.239 342.078C246.785 341.753 248.185 341.248 249.608 340.561C320.287 306.419 710.244 416.174 859.623 238.302Z" fill="url(#paint1_linear)"/>
<path d="M868.623 238.302C1011.12 68.6199 1107.9 666.904 852.123 666.904C597.25 666.904 294.286 771.221 202.102 771.963C201.408 771.968 200.799 771.933 200.12 771.811C127.707 758.814 94.7203 375.94 254.029 342.123C255.714 341.765 257.238 341.213 258.762 340.487C329.854 306.578 719.353 416.045 868.623 238.302Z" fill="url(#paint2_linear)"/>
<defs>
<filter id="filter0_d" x="0" y="0" width="1262.7" height="970.979" filterUnits="userSpaceOnUse" color-interpolation-filters="sRGB">
<feFlood flood-opacity="0" result="BackgroundImageFix"/>
<feColorMatrix in="SourceAlpha" type="matrix" values="0 0 0 0 0 0 0 0 0 0 0 0 0 0 0 0 0 0 127 0"/>
<feOffset dy="4"/>
<feGaussianBlur stdDeviation="2"/>
<feColorMatrix type="matrix" values="0 0 0 0 0 0 0 0 0 0 0 0 0 0 0 0 0 0 0.35 0"/>
<feBlend mode="normal" in2="BackgroundImageFix" result="effect1_dropShadow"/>
<feBlend mode="normal" in="SourceGraphic" in2="effect1_dropShadow" result="shape"/>
</filter>
<linearGradient id="paint0_linear" x1="3.54232" y1="605.226" x2="1365.59" y2="1159.1" gradientUnits="userSpaceOnUse">
<stop offset="0.0130596" stop-color="#FAF4FB"/>
<stop offset="0.9999" stop-color="#E3A0A0"/>
</linearGradient>
<linearGradient id="paint1_linear" x1="892" y1="157" x2="87.5" y2="890.5" gradientUnits="userSpaceOnUse">
<stop offset="0.328125" stop-color="#A039B1" stop-opacity="0.26"/>
<stop offset="1" stop-color="#0017E4" stop-opacity="0.51"/>
</linearGradient>
<linearGradient id="paint2_linear" x1="892" y1="157" x2="87.5" y2="890.5" gradientUnits="userSpaceOnUse">
<stop offset="0.328125" stop-color="#A039B1" stop-opacity="0.26"/>
<stop offset="1" stop-color="#0017E4" stop-opacity="0.51"/>
</linearGradient>
</defs>
</svg>
