<svg version="1.2" baseProfile="tiny-ps" xmlns="http://www.w3.org/2000/svg" viewBox="0 0 3612 3235" width="2000" height="1791">
	<title>m9-ai</title>
	<style>
		tspan { white-space:pre }
		.shp0 { fill: #fc4b75 } 
		.shp1 { fill: #1b998b } 
		.shp2 { fill: #06d6a0 } 
		.shp3 { fill: #ffd166 } 
		.shp4 { fill: #9fc8d6 } 
		.shp5 { fill: #073b4c } 
		.shp6 { fill: #faf4ff } 
		.shp7 { fill: #e4e2e5 } 
		.shp8 { fill: #118ab2 } 
		.shp9 { fill: #f78c6b } 
		.shp10 { fill: #d94165 } 
		.shp11 { fill: none;stroke: #06d6a0;stroke-width: 10.418 } 
		.shp12 { fill: none;stroke: #9fc8d6;stroke-linecap:round;stroke-width: 15.719 } 
		.shp13 { fill: none;stroke: #073b4c;stroke-linecap:round;stroke-width: 22.165 } 
	</style>
	<g id="Layer 1">
		<g id="&lt;Group&gt;">
			<g id="&lt;Group&gt;">
				<g id="&lt;Group&gt;">
					<path id="&lt;Path&gt;" class="shp0" d="M934.11 1298.6C871.86 1383.11 724.06 1568.44 556.17 1670.96C548.14 1675.86 553.7 1688.13 562.71 1685.43C657.64 1656.92 850.15 1568.37 948.05 1306.27C951.32 1297.53 939.65 1291.08 934.11 1298.6Z" />
					<path id="&lt;Path&gt;" class="shp0" d="M3212.84 2963.16C3393.19 2788.68 3411.58 2524.2 3268.01 2169.73C3052.65 1638.01 2658.01 1802.28 2805.88 1109.25C2953.75 416.22 1944.36 -26.55 1522.87 159.21C1101.39 344.98 1304.52 1160.25 903.78 1512.51C503.05 1864.77 9.31 2185.35 372.49 2963.16L3212.84 2963.16Z" />
					<path id="&lt;Compound Path&gt;" fill-rule="evenodd" class="shp0" d="M2869.61 2621.34C2865.14 2593.36 2877.86 2574.54 2905.87 2556.84C2908.05 2555.46 2909.24 2552.95 2908.83 2550.41L2899.28 2490.63C2898.68 2486.83 2894.84 2484.36 2891.16 2485.51C2882.93 2488.08 2876.33 2491.53 2871.48 2494.6C2868.35 2496.59 2864.21 2495.43 2862.48 2492.15L2857.73 2483.12C2856.17 2480.16 2857.16 2476.54 2859.98 2474.73C2866.88 2470.31 2876.5 2465.95 2888.93 2462.97C2892.15 2462.2 2894.24 2459.05 2893.72 2455.78L2891.39 2441.23C2890.84 2437.74 2893.21 2434.47 2896.69 2433.91L2909.15 2431.92C2912.63 2431.37 2915.9 2433.74 2916.46 2437.22L2919.34 2455.28C2919.78 2457.98 2921.88 2460.17 2924.59 2460.56C2951.04 2464.32 2969.72 2481.44 2973.63 2505.88C2977.61 2530.8 2964.73 2549.56 2940.81 2565.27C2938.68 2566.66 2937.53 2569.14 2937.93 2571.65L2948.74 2639.29C2949.34 2643.08 2953.16 2645.54 2956.84 2644.43C2967.33 2641.25 2976.82 2636.33 2984.44 2630.92C2987.63 2628.65 2992.1 2629.85 2993.81 2633.38L2998.38 2642.81C2999.74 2645.62 2998.85 2648.98 2996.31 2650.82C2987.34 2657.32 2973.44 2663.46 2959.11 2666.92C2955.87 2667.7 2953.78 2670.84 2954.3 2674.13L2956.62 2688.65C2957.18 2692.13 2954.81 2695.4 2951.33 2695.96L2938.87 2697.95C2935.39 2698.51 2932.11 2696.13 2931.56 2692.65L2928.72 2674.92C2928.28 2672.12 2926.03 2669.91 2923.21 2669.6C2891.86 2666.21 2873.6 2646.31 2869.61 2621.34ZM2946.47 2507.11C2945.45 2500.69 2942.07 2494.07 2936 2489.22C2931.46 2485.59 2924.81 2489.52 2925.73 2495.26L2930.68 2526.22C2931.58 2531.87 2939.05 2533.68 2942.2 2528.89C2946.44 2522.46 2947.82 2515.54 2946.47 2507.11ZM2922.57 2636.41L2915.81 2594.11C2914.94 2588.66 2908.12 2586.87 2904.55 2591.07C2897.45 2599.42 2895.18 2608.23 2896.93 2619.15C2898.63 2629.81 2904.29 2638.07 2913.08 2642.98C2917.77 2645.59 2923.42 2641.7 2922.57 2636.41Z" />
					<path id="&lt;Path&gt;" class="shp0" d="M1670.64 342.87C1670.64 363.27 1687.18 379.81 1707.58 379.81C1727.98 379.81 1744.52 363.27 1744.52 342.87C1744.52 322.46 1727.98 305.92 1707.58 305.92C1687.18 305.92 1670.64 322.46 1670.64 342.87Z" />
					<path id="&lt;Path&gt;" class="shp0" d="M2859.42 921.64C2859.42 942.04 2875.96 958.58 2896.37 958.58C2916.77 958.58 2933.31 942.04 2933.31 921.64C2933.31 901.24 2916.77 884.7 2896.37 884.7C2875.96 884.7 2859.42 901.24 2859.42 921.64Z" />
					<path id="&lt;Path&gt;" class="shp0" d="M335.55 2596.33C335.55 2616.73 352.09 2633.27 372.49 2633.27C392.89 2633.27 409.43 2616.73 409.43 2596.33C409.43 2575.93 392.89 2559.39 372.49 2559.39C352.09 2559.39 335.55 2575.93 335.55 2596.33Z" />
					<path id="&lt;Path&gt;" class="shp0" d="M3157.67 2391.4C3157.67 2421.87 3182.37 2446.57 3212.84 2446.57C3243.31 2446.57 3268.01 2421.87 3268.01 2391.4C3268.01 2360.93 3243.31 2336.23 3212.84 2336.23C3182.37 2336.23 3157.67 2360.93 3157.67 2391.4Z" />
					<path id="&lt;Path&gt;" class="shp0" d="M2565.21 368.21C2639.74 427.07 2773.16 556.2 2833.15 762.36C2837.1 775.93 2857.32 772.5 2856.6 758.39C2850.28 633.37 2804.33 423.29 2576.52 347.45C2563.81 343.21 2554.7 359.91 2565.21 368.21Z" />
				</g>
				<g id="&lt;Group&gt;">
					<path id="&lt;Path&gt;" class="shp1" d="M609.02 2951.39L1176.88 2951.39C1202.71 2951.39 1223.65 2930.45 1223.65 2904.63L1223.65 2491.98L562.25 2491.98L562.25 2904.63C562.25 2930.45 583.19 2951.39 609.02 2951.39Z" />
					<path id="&lt;Path&gt;" class="shp2" d="M582.91 2571.19L1202.99 2571.19C1222.2 2571.19 1237.78 2555.61 1237.78 2536.39L1237.78 2509.66C1237.78 2476.93 1211.25 2450.39 1178.51 2450.39L607.39 2450.39C574.65 2450.39 548.12 2476.93 548.12 2509.66L548.12 2536.39C548.12 2555.61 563.7 2571.19 582.91 2571.19Z" />
					<path id="&lt;Path&gt;" class="shp1" d="M630.45 2450.39L920.1 2450.39C945.92 2450.39 966.86 2429.46 966.86 2403.63L966.86 2184.23L583.68 2184.23L583.68 2403.63C583.68 2429.46 604.62 2450.39 630.45 2450.39Z" />
					<path id="&lt;Path&gt;" class="shp2" d="M601.38 2230.12L949.16 2230.12C963.46 2230.12 975.05 2218.53 975.05 2204.24L975.05 2204.24C975.05 2179.88 955.31 2160.14 930.95 2160.14L619.59 2160.14C595.23 2160.14 575.49 2179.88 575.49 2204.24L575.49 2204.24C575.49 2218.53 587.08 2230.12 601.38 2230.12Z" />
					<path id="&lt;Path&gt;" class="shp3" d="M645.51 2402.78L779.09 2402.78C792.1 2402.78 802.65 2392.24 802.65 2379.23L802.65 2329.97C802.65 2316.96 792.1 2306.42 779.09 2306.42L645.51 2306.42C632.5 2306.42 621.96 2316.96 621.96 2329.97L621.96 2379.23C621.96 2392.24 632.5 2402.78 645.51 2402.78Z" />
				</g>
				<path id="&lt;Path&gt;" class="shp4" d="M3341.55 2970.48C3341.55 3045.98 2646.9 3107.16 1790 3107.16C933.1 3107.16 238.45 3045.98 238.45 2970.48C238.45 2968.04 239.19 2965.6 240.66 2963.16L3339.33 2963.16C3340.81 2965.6 3341.55 2968.04 3341.55 2970.48Z" />
				<path id="&lt;Path&gt;" class="shp5" d="M2303.99 2963.16L1276.03 2963.16C1146.82 2963.16 1042.07 2858.41 1042.07 2729.2L1042.07 833.4C1042.07 704.18 1146.82 599.43 1276.03 599.43L2303.99 599.43C2433.21 599.43 2537.96 704.18 2537.96 833.4L2537.96 2729.2C2537.96 2858.41 2433.21 2963.16 2303.99 2963.16Z" />
				<path id="&lt;Path&gt;" class="shp4" d="M1102.02 2495.44L1102.02 841.63C1102.02 740.98 1183.62 659.38 1284.27 659.38L2295.76 659.38C2396.41 659.38 2478.01 740.98 2478.01 841.63L2478.01 2495.44C2478.01 2596.09 2396.41 2677.69 2295.76 2677.69L1284.27 2677.69C1183.62 2677.69 1102.02 2596.09 1102.02 2495.44Z" />
				<g id="&lt;Group&gt;">
					<path id="&lt;Path&gt;" class="shp2" d="M1202.74 1226.25L1056.37 1603.07L762.28 1603.07L1008.07 1272.04C1029.46 1243.23 1063.22 1226.25 1099.1 1226.25L1202.74 1226.25Z" />
					<path id="&lt;Path&gt;" class="shp6" d="M1428.92 1226.25L1349.78 1603.07L1056.37 1603.07L1202.74 1226.25L1428.92 1226.25Z" />
					<path id="&lt;Path&gt;" class="shp2" d="M1664.43 1226.25L1643.28 1603.07L1349.78 1603.07L1428.92 1226.25L1664.43 1226.25Z" />
					<path id="&lt;Path&gt;" class="shp6" d="M1936.78 1603.07L1643.28 1603.07L1664.43 1226.25L1915.62 1226.25L1936.78 1603.07Z" />
					<path id="&lt;Path&gt;" class="shp2" d="M2230.19 1603.07L1936.78 1603.07L1915.62 1226.25L2151.14 1226.25L2230.19 1603.07Z" />
					<path id="&lt;Path&gt;" class="shp6" d="M2523.68 1603.07L2230.19 1603.07L2151.14 1226.25L2377.23 1226.25L2523.68 1603.07Z" />
					<path id="&lt;Path&gt;" class="shp2" d="M2817.69 1603.07L2523.68 1603.07L2377.23 1226.25L2480.94 1226.25C2516.83 1226.25 2550.6 1243.24 2571.98 1272.05L2817.69 1603.07Z" />
					<path id="&lt;Path&gt;" class="shp1" d="M954.61 1719.72L863.63 1719.72C807.67 1719.72 762.31 1674.36 762.31 1618.4L762.31 1602.27L1055.94 1602.27L1055.94 1618.4C1055.94 1674.36 1010.57 1719.72 954.61 1719.72Z" />
					<path id="&lt;Path&gt;" class="shp7" d="M1248.24 1719.72L1157.26 1719.72C1101.3 1719.72 1055.94 1674.36 1055.94 1618.4L1055.94 1602.27L1349.57 1602.27L1349.57 1618.4C1349.57 1674.36 1304.2 1719.72 1248.24 1719.72Z" />
					<path id="&lt;Path&gt;" class="shp1" d="M1541.87 1719.72L1450.89 1719.72C1394.93 1719.72 1349.57 1674.36 1349.57 1618.4L1349.57 1602.27L1643.2 1602.27L1643.2 1618.4C1643.2 1674.36 1597.83 1719.72 1541.87 1719.72Z" />
					<path id="&lt;Path&gt;" class="shp7" d="M1835.5 1719.72L1744.52 1719.72C1688.56 1719.72 1643.2 1674.36 1643.2 1618.4L1643.2 1602.27L1936.83 1602.27L1936.83 1618.4C1936.83 1674.36 1891.46 1719.72 1835.5 1719.72Z" />
					<path id="&lt;Path&gt;" class="shp1" d="M2129.13 1719.72L2038.15 1719.72C1982.19 1719.72 1936.83 1674.36 1936.83 1618.4L1936.83 1602.27L2230.46 1602.27L2230.46 1618.4C2230.46 1674.36 2185.09 1719.72 2129.13 1719.72Z" />
					<path id="&lt;Path&gt;" class="shp7" d="M2422.76 1719.72L2331.79 1719.72C2275.82 1719.72 2230.46 1674.36 2230.46 1618.4L2230.46 1602.27L2524.09 1602.27L2524.09 1618.4C2524.09 1674.36 2478.73 1719.72 2422.76 1719.72Z" />
					<path id="&lt;Path&gt;" class="shp1" d="M2716.4 1719.72L2625.42 1719.72C2569.46 1719.72 2524.09 1674.36 2524.09 1618.4L2524.09 1602.27L2817.72 1602.27L2817.72 1618.4C2817.72 1674.36 2772.36 1719.72 2716.4 1719.72Z" />
				</g>
				<g id="&lt;Group&gt;">
					<g id="&lt;Group&gt;">
						<path id="&lt;Path&gt;" class="shp3" d="M2356.26 987.02C2356.26 1036.2 2316.39 1076.07 2267.21 1076.07C2218.03 1076.07 2178.16 1036.2 2178.16 987.02C2178.16 937.84 2218.03 897.97 2267.21 897.97C2316.39 897.97 2356.26 937.84 2356.26 987.02Z" />
						<path id="&lt;Path&gt;" class="shp6" d="M2327.12 1088.52C2327.12 1046.97 2295.7 1012.79 2255.32 1008.39C2255.32 1008.21 2255.35 1008.05 2255.35 1007.88C2255.35 947.18 2206.14 897.97 2145.44 897.97C2106.2 897.97 2071.86 918.59 2052.42 949.53C1993.35 951.4 1946.02 999.75 1946.02 1059.26C1946.02 1115.14 1987.75 1161.17 2041.72 1168.15L2041.72 1169.17L2255.35 1169.17L2255.35 1168.66C2295.71 1164.24 2327.12 1130.06 2327.12 1088.52Z" />
					</g>
					<g id="&lt;Group&gt;">
						<path id="&lt;Path&gt;" class="shp6" d="M2163.78 732.21L2163.78 742.06C2163.78 743.85 2162.33 745.3 2160.54 745.3L2142.23 745.3C2140.44 745.3 2138.99 746.75 2138.99 748.54L2138.99 788.26C2138.99 790.04 2140.44 791.49 2142.23 791.49L2160.54 791.49C2162.33 791.49 2163.78 792.94 2163.78 794.73L2163.78 804.59C2163.78 806.38 2165.23 807.83 2167.02 807.83L2339.44 807.83C2341.23 807.83 2342.68 806.38 2342.68 804.59L2342.68 732.21C2342.68 730.42 2341.23 728.97 2339.44 728.97L2167.02 728.97C2165.23 728.97 2163.78 730.42 2163.78 732.21Z" />
						<path id="&lt;Path&gt;" class="shp2" d="M2237.46 799.66L2218.55 799.66C2216.69 799.66 2215.18 798.15 2215.18 796.29L2215.18 740.51C2215.18 738.65 2216.69 737.13 2218.55 737.13L2237.46 737.13C2239.32 737.13 2240.83 738.65 2240.83 740.51L2240.83 796.29C2240.83 798.15 2239.32 799.66 2237.46 799.66Z" />
						<path id="&lt;Path&gt;" class="shp2" d="M2267.88 799.66L2248.97 799.66C2247.11 799.66 2245.6 798.15 2245.6 796.29L2245.6 740.51C2245.6 738.65 2247.11 737.13 2248.97 737.13L2267.88 737.13C2269.74 737.13 2271.25 738.65 2271.25 740.51L2271.25 796.29C2271.25 798.15 2269.74 799.66 2267.88 799.66Z" />
						<path id="&lt;Path&gt;" class="shp2" d="M2298.3 799.66L2279.39 799.66C2277.53 799.66 2276.02 798.15 2276.02 796.29L2276.02 740.51C2276.02 738.65 2277.53 737.13 2279.39 737.13L2298.3 737.13C2300.16 737.13 2301.67 738.65 2301.67 740.51L2301.67 796.29C2301.67 798.15 2300.16 799.66 2298.3 799.66Z" />
						<path id="&lt;Path&gt;" class="shp2" d="M2328.72 799.66L2309.81 799.66C2307.95 799.66 2306.44 798.15 2306.44 796.29L2306.44 740.51C2306.44 738.65 2307.95 737.13 2309.81 737.13L2328.72 737.13C2330.58 737.13 2332.09 738.65 2332.09 740.51L2332.09 796.29C2332.09 798.15 2330.58 799.66 2328.72 799.66Z" />
					</g>
					<g id="&lt;Group&gt;">
						<path id="&lt;Path&gt;" class="shp6" d="M1257.44 897.04L1252.78 897.04C1248.74 897.04 1245.47 893.77 1245.47 889.74L1245.47 799.1C1245.47 795.06 1248.74 791.79 1252.78 791.79L1257.44 791.79C1261.47 791.79 1264.74 795.06 1264.74 799.1L1264.74 889.74C1264.74 893.77 1261.47 897.04 1257.44 897.04Z" />
						<path id="&lt;Path&gt;" class="shp6" d="M1292.76 897.04L1288.1 897.04C1284.07 897.04 1280.8 893.77 1280.8 889.74L1280.8 773.2C1280.8 769.17 1284.07 765.9 1288.1 765.9L1292.76 765.9C1296.8 765.9 1300.07 769.17 1300.07 773.2L1300.07 889.74C1300.07 893.77 1296.8 897.04 1292.76 897.04Z" />
						<path id="&lt;Path&gt;" class="shp6" d="M1329.7 897.04L1325.04 897.04C1321 897.04 1317.73 893.77 1317.73 889.74L1317.73 736.27C1317.73 732.24 1321 728.97 1325.04 728.97L1329.7 728.97C1333.73 728.97 1337 732.24 1337 736.27L1337 889.74C1337 893.77 1333.73 897.04 1329.7 897.04Z" />
					</g>
					<g id="&lt;Group&gt;">
						<path id="&lt;Compound Path&gt;" class="shp6" d="M1227.3 1002.08L1226.89 1002.08L1203.81 1014.54L1200.34 1000.86L1229.34 985.33L1244.66 985.33L1244.66 1118.1L1227.3 1118.1L1227.3 1002.08Z" />
						<path id="&lt;Compound Path&gt;" fill-rule="evenodd" class="shp6" d="M1368.87 998C1365.19 997.8 1360.49 998 1355.39 998.82C1327.2 1003.51 1312.29 1024.14 1309.23 1045.99L1309.84 1045.99C1316.17 1037.62 1327.2 1030.67 1341.91 1030.67C1365.4 1030.67 1381.94 1047.62 1381.94 1073.57C1381.94 1097.87 1365.4 1120.35 1337.82 1120.35C1309.43 1120.35 1290.85 1098.28 1290.85 1063.77C1290.85 1037.62 1300.24 1016.99 1313.31 1003.92C1324.34 993.09 1339.05 986.35 1355.8 984.31C1361.11 983.49 1365.6 983.29 1368.87 983.29L1368.87 998ZM1363.76 1074.59C1363.76 1055.6 1352.94 1044.15 1336.39 1044.15C1325.57 1044.15 1315.56 1050.89 1310.66 1060.5C1309.43 1062.54 1308.61 1065.2 1308.61 1068.46C1309.02 1090.32 1319.03 1106.45 1337.82 1106.45C1353.35 1106.45 1363.76 1093.58 1363.76 1074.59Z" />
						<path id="&lt;Compound Path&gt;" class="shp6" d="M1442.63 1035.58C1442.63 1028.02 1447.74 1022.71 1454.88 1022.71C1462.03 1022.71 1466.73 1028.02 1466.93 1035.58C1466.93 1042.72 1462.24 1048.24 1454.68 1048.24C1447.53 1048.24 1442.63 1042.72 1442.63 1035.58ZM1442.63 1107.67C1442.63 1100.12 1447.74 1094.81 1454.88 1094.81C1462.03 1094.81 1466.73 1100.12 1466.93 1107.67C1466.93 1114.83 1462.24 1120.35 1454.68 1120.35C1447.53 1120.35 1442.63 1114.83 1442.63 1107.67Z" />
						<path id="&lt;Compound Path&gt;" class="shp6" d="M1531.09 1097.46C1536.19 1100.73 1548.04 1105.84 1560.5 1105.84C1583.58 1105.84 1590.73 1091.13 1590.52 1080.11C1590.32 1061.52 1573.57 1053.55 1556.21 1053.55L1546.2 1053.55L1546.2 1040.07L1556.21 1040.07C1569.28 1040.07 1585.83 1033.33 1585.83 1017.6C1585.83 1006.99 1579.09 997.59 1562.54 997.59C1551.92 997.59 1541.71 1002.29 1535.99 1006.37L1531.29 993.3C1538.23 988.19 1551.72 983.08 1566.01 983.08C1592.16 983.08 1604 998.61 1604 1014.75C1604 1028.43 1595.83 1040.07 1579.5 1045.99L1579.5 1046.4C1595.83 1049.67 1609.11 1061.93 1609.11 1080.51C1609.11 1101.75 1592.57 1120.35 1560.7 1120.35C1545.79 1120.35 1532.72 1115.65 1526.18 1111.35L1531.09 1097.46Z" />
						<path id="&lt;Compound Path&gt;" fill-rule="evenodd" class="shp6" d="M1719.83 1050.28C1719.83 1095.42 1703.09 1120.35 1673.68 1120.35C1647.74 1120.35 1630.17 1096.03 1629.76 1052.12C1629.76 1007.6 1648.96 983.08 1675.92 983.08C1703.91 983.08 1719.83 1008.01 1719.83 1050.28ZM1647.74 1052.33C1647.74 1086.84 1658.36 1106.45 1674.7 1106.45C1693.08 1106.45 1701.86 1085.01 1701.86 1051.1C1701.86 1018.42 1693.49 996.98 1674.9 996.98C1659.17 996.98 1647.74 1016.17 1647.74 1052.33Z" />
					</g>
				</g>
				<g id="&lt;Group&gt;">
					<path id="&lt;Path&gt;" class="shp7" d="M1538.88 2216.7L1538.88 2245.03C1538.88 2256.96 1529.21 2266.63 1517.28 2266.63L1196.42 2266.63C1184.49 2266.63 1174.82 2256.96 1174.82 2245.03L1174.82 2216.7L1538.88 2216.7Z" />
					<path id="&lt;Path&gt;" class="shp8" d="M1538.88 1874.24L1538.88 2216.7L1174.82 2216.7L1174.82 1874.24C1174.82 1862.31 1184.49 1852.64 1196.42 1852.64L1517.28 1852.64C1529.21 1852.64 1538.88 1862.31 1538.88 1874.24Z" />
					<path id="&lt;Path&gt;" class="shp3" d="M1309.97 2249.43C1305.69 2249.43 1302.21 2245.95 1302.21 2241.67C1302.21 2237.38 1305.69 2233.9 1309.97 2233.9C1314.25 2233.9 1317.73 2237.38 1317.73 2241.67C1317.73 2245.95 1314.25 2249.43 1309.97 2249.43Z" />
					<path id="&lt;Path&gt;" class="shp9" d="M1356.85 2249.43C1352.57 2249.43 1349.09 2245.95 1349.09 2241.67C1349.09 2237.38 1352.57 2233.9 1356.85 2233.9C1361.13 2233.9 1364.61 2237.38 1364.61 2241.67C1364.61 2245.95 1361.13 2249.43 1356.85 2249.43Z" />
					<path id="&lt;Path&gt;" class="shp3" d="M1403.73 2249.43C1399.45 2249.43 1395.96 2245.95 1395.96 2241.67C1395.96 2237.38 1399.45 2233.9 1403.73 2233.9C1408 2233.9 1411.49 2237.38 1411.49 2241.67C1411.49 2245.95 1408 2249.43 1403.73 2249.43Z" />
					<path id="&lt;Path&gt;" class="shp7" d="M2422.33 2216.7L2422.33 2245.03C2422.33 2256.96 2412.66 2266.63 2400.73 2266.63L2079.87 2266.63C2067.94 2266.63 2058.26 2256.96 2058.26 2245.03L2058.26 2216.7L2422.33 2216.7Z" />
					<path id="&lt;Path&gt;" class="shp8" d="M2422.33 1874.24L2422.33 2216.7L2058.26 2216.7L2058.26 1874.24C2058.26 1862.31 2067.94 1852.64 2079.87 1852.64L2400.73 1852.64C2412.66 1852.64 2422.33 1862.31 2422.33 1874.24Z" />
					<path id="&lt;Path&gt;" class="shp2" d="M2193.42 2249.43C2189.14 2249.43 2185.66 2245.95 2185.66 2241.67C2185.66 2237.38 2189.14 2233.9 2193.42 2233.9C2197.7 2233.9 2201.18 2237.38 2201.18 2241.67C2201.18 2245.95 2197.7 2249.43 2193.42 2249.43Z" />
					<path id="&lt;Path&gt;" class="shp1" d="M2240.3 2249.43C2236.02 2249.43 2232.53 2245.95 2232.53 2241.67C2232.53 2237.38 2236.02 2233.9 2240.3 2233.9C2244.57 2233.9 2248.06 2237.38 2248.06 2241.67C2248.06 2245.95 2244.57 2249.43 2240.3 2249.43Z" />
					<path id="&lt;Path&gt;" class="shp2" d="M2287.17 2249.43C2282.9 2249.43 2279.41 2245.95 2279.41 2241.67C2279.41 2237.38 2282.9 2233.9 2287.17 2233.9C2291.45 2233.9 2294.93 2237.38 2294.93 2241.67C2294.93 2245.95 2291.45 2249.43 2287.17 2249.43Z" />
					<path id="&lt;Path&gt;" class="shp7" d="M1980.61 2216.7L1980.61 2245.03C1980.61 2256.96 1970.93 2266.63 1959 2266.63L1638.14 2266.63C1626.21 2266.63 1616.54 2256.96 1616.54 2245.03L1616.54 2216.7L1980.61 2216.7Z" />
					<path id="&lt;Path&gt;" class="shp8" d="M1980.61 1874.24L1980.61 2216.7L1616.54 2216.7L1616.54 1874.24C1616.54 1862.31 1626.21 1852.64 1638.14 1852.64L1959 1852.64C1970.93 1852.64 1980.61 1862.31 1980.61 1874.24Z" />
					<path id="&lt;Path&gt;" class="shp0" d="M1751.69 2249.43C1747.42 2249.43 1743.93 2245.95 1743.93 2241.67C1743.93 2237.38 1747.42 2233.9 1751.69 2233.9C1755.97 2233.9 1759.46 2237.38 1759.46 2241.67C1759.46 2245.95 1755.97 2249.43 1751.69 2249.43Z" />
					<path id="&lt;Path&gt;" class="shp10" d="M1798.57 2249.43C1794.29 2249.43 1790.81 2245.95 1790.81 2241.67C1790.81 2237.38 1794.29 2233.9 1798.57 2233.9C1802.85 2233.9 1806.33 2237.38 1806.33 2241.67C1806.33 2245.95 1802.85 2249.43 1798.57 2249.43Z" />
					<path id="&lt;Path&gt;" class="shp0" d="M1845.45 2249.43C1841.17 2249.43 1837.69 2245.95 1837.69 2241.67C1837.69 2237.38 1841.17 2233.9 1845.45 2233.9C1849.73 2233.9 1853.21 2237.38 1853.21 2241.67C1853.21 2245.95 1849.73 2249.43 1845.45 2249.43Z" />
					<g id="&lt;Group&gt;">
						<path id="&lt;Path&gt;" class="shp1" d="M2303.59 2142.75L2153.83 2142.75C2133 2142.75 2116.75 2124.63 2118.99 2103.89L2130.39 1999.51L2327.03 1999.51L2338.43 2103.89C2340.67 2124.63 2324.42 2142.75 2303.59 2142.75Z" />
						<path id="&lt;Path&gt;" class="shp11" d="M2304.58 2002.43L2304.58 2004.72L2152.84 2004.72L2152.84 2002.43C2152.84 1960.55 2186.8 1926.59 2228.68 1926.59L2228.74 1926.59C2270.61 1926.59 2304.58 1960.55 2304.58 2002.43Z" />
						<path id="&lt;Path&gt;" class="shp2" d="M2327.03 1999.51L2247.13 2047.66C2235.8 2054.49 2221.62 2054.49 2210.29 2047.66L2130.39 1999.51L2327.03 1999.51Z" />
					</g>
					<g id="&lt;Group&gt;">
						<path id="&lt;Path&gt;" class="shp0" d="M1927.17 2077.75C1927.13 2080.85 1927.03 2084.04 1926.94 2087.29L1926.94 2087.57C1926.75 2093.34 1922.36 2098.01 1916.73 2098.59C1916.35 2098.63 1915.97 2098.63 1915.59 2098.63L1661.21 2098.63C1655.44 2098.63 1651.39 2092.96 1653.2 2087.48C1657.25 2075.17 1667.98 2056.39 1696.07 2050.14C1705.84 2047.95 1716.76 2046.14 1728.01 2043.75C1735.69 2042.18 1743.56 2040.32 1751.33 2037.98C1752.85 2037.51 1754.38 2037.03 1755.9 2036.5C1760.91 2034.84 1765.92 2032.93 1770.73 2030.69C1772.16 2030.07 1773.59 2029.35 1775.03 2028.64C1779.22 2026.49 1783.32 2024.11 1787.23 2021.39C1788.52 2020.48 1789.81 2019.53 1791.05 2018.58C1794.48 2015.91 1797.77 2012.95 1800.82 2009.71C1801.92 2008.56 1803.01 2007.37 1804.01 2006.13C1807.35 2002.22 1810.4 1997.84 1813.17 1993.02C1813.98 1991.59 1814.74 1990.16 1815.51 1988.68C1817.32 1985.01 1818.99 1981.05 1820.46 1976.81C1821.75 1973.09 1825.28 1970.7 1829.19 1970.7L1912.92 1970.7C1916.26 1970.7 1919.16 1972.99 1919.83 1976.28C1922.45 1989.16 1928.22 2023.87 1927.17 2077.75Z" />
						<path id="&lt;Path&gt;" class="shp6" d="M1927.17 2077.75C1927.13 2080.85 1927.03 2084.04 1926.94 2087.29L1926.94 2087.57C1926.75 2093.34 1922.36 2098.01 1916.73 2098.59C1916.35 2098.63 1915.97 2098.63 1915.59 2098.63L1661.21 2098.63C1655.51 2098.63 1651.37 2093.09 1653.14 2087.67C1657.14 2075.37 1667.83 2056.42 1696.07 2050.14C1705.84 2047.95 1716.76 2046.14 1728.01 2043.75C1733.43 2052.03 1738.59 2056.64 1739.74 2071.24C1740.03 2074.93 1743.17 2077.75 1746.87 2077.75L1927.17 2077.75Z" />
						<g id="&lt;Group&gt;">
							<path id="&lt;Path&gt;" class="shp6" d="M1768.78 2059.87C1768.3 2060.3 1767.73 2060.49 1767.16 2060.49C1766.54 2060.49 1765.87 2060.2 1765.39 2059.68C1758.77 2052.34 1754.09 2043.9 1751.33 2037.98C1752.85 2037.51 1754.38 2037.03 1755.9 2036.5C1758.58 2042.08 1762.96 2049.9 1768.92 2056.53C1769.83 2057.48 1769.73 2059.01 1768.78 2059.87Z" />
						</g>
						<g id="&lt;Group&gt;">
							<path id="&lt;Path&gt;" class="shp6" d="M1785.42 2045.71C1784.94 2046.14 1784.32 2046.37 1783.75 2046.37C1783.13 2046.37 1782.51 2046.14 1782.03 2045.66C1777.41 2040.94 1773.55 2035.36 1770.73 2030.69C1772.16 2030.07 1773.59 2029.35 1775.03 2028.64C1777.7 2033.02 1781.27 2038.08 1785.42 2042.32C1786.37 2043.28 1786.33 2044.8 1785.42 2045.71Z" />
						</g>
						<g id="&lt;Group&gt;">
							<path id="&lt;Path&gt;" class="shp6" d="M1803.49 2033.07C1803.01 2033.79 1802.25 2034.17 1801.49 2034.17C1801.01 2034.17 1800.58 2034.03 1800.2 2033.79C1795.05 2030.45 1790.47 2025.54 1787.23 2021.39C1788.52 2020.48 1789.81 2019.53 1791.05 2018.58C1794.1 2022.39 1798.25 2026.83 1802.78 2029.78C1803.87 2030.5 1804.21 2031.98 1803.49 2033.07Z" />
						</g>
						<g id="&lt;Group&gt;">
							<path id="&lt;Path&gt;" class="shp6" d="M1816.89 2019.82C1816.41 2020.48 1815.65 2020.87 1814.89 2020.87C1814.41 2020.87 1813.98 2020.77 1813.55 2020.48C1809.4 2017.77 1804.63 2013.43 1800.82 2009.71C1801.92 2008.56 1803.01 2007.37 1804.01 2006.13C1807.69 2009.76 1812.31 2013.95 1816.17 2016.48C1817.27 2017.24 1817.6 2018.72 1816.89 2019.82Z" />
						</g>
						<g id="&lt;Group&gt;">
							<path id="&lt;Path&gt;" class="shp6" d="M1831.72 2003.13C1831.34 2003.99 1830.48 2004.46 1829.57 2004.46C1829.24 2004.46 1828.9 2004.42 1828.57 2004.27C1823.09 2001.6 1817.37 1996.88 1813.17 1993.02C1813.98 1991.59 1814.74 1990.16 1815.51 1988.68C1819.51 1992.45 1825.28 1997.36 1830.62 1999.93C1831.81 2000.51 1832.29 2001.94 1831.72 2003.13Z" />
						</g>
						<path id="&lt;Path&gt;" class="shp6" d="M1906.5 2036.5C1906.5 2049.48 1895.98 2060 1883.01 2060C1870.03 2060 1859.51 2049.48 1859.51 2036.5C1859.51 2023.53 1870.03 2013.01 1883.01 2013.01C1895.98 2013.01 1906.5 2023.53 1906.5 2036.5Z" />
					</g>
					<path id="&lt;Path&gt;" class="shp6" d="M1505.05 2450.73L1208.65 2450.73C1189.96 2450.73 1174.82 2435.59 1174.82 2416.9L1174.82 2334.69C1174.82 2316.01 1189.96 2300.86 1208.65 2300.86L1505.05 2300.86C1523.73 2300.86 1538.88 2316.01 1538.88 2334.69L1538.88 2416.9C1538.88 2435.59 1523.73 2450.73 1505.05 2450.73Z" />
					<path id="&lt;Path&gt;" class="shp6" d="M1946.77 2450.73L1650.37 2450.73C1631.69 2450.73 1616.54 2435.59 1616.54 2416.9L1616.54 2334.69C1616.54 2316.01 1631.69 2300.86 1650.37 2300.86L1946.77 2300.86C1965.46 2300.86 1980.61 2316.01 1980.61 2334.69L1980.61 2416.9C1980.61 2435.59 1965.46 2450.73 1946.77 2450.73Z" />
					<path id="&lt;Path&gt;" class="shp6" d="M2388.5 2450.73L2092.1 2450.73C2073.41 2450.73 2058.26 2435.59 2058.26 2416.9L2058.26 2334.69C2058.26 2316.01 2073.41 2300.86 2092.1 2300.86L2388.5 2300.86C2407.18 2300.86 2422.33 2316.01 2422.33 2334.69L2422.33 2416.9C2422.33 2435.59 2407.18 2450.73 2388.5 2450.73Z" />
					<g id="&lt;Group&gt;">
						<path id="&lt;Path&gt;" class="shp12" d="M1244.27 2336.23L1469.43 2336.23" />
						<path id="&lt;Path&gt;" class="shp12" d="M1244.27 2389.67L1469.43 2389.67" />
					</g>
					<g id="&lt;Group&gt;">
						<path id="&lt;Path&gt;" class="shp12" d="M1685.99 2336.23L1911.16 2336.23" />
						<path id="&lt;Path&gt;" class="shp12" d="M1685.99 2389.67L1911.16 2389.67" />
					</g>
					<g id="&lt;Group&gt;">
						<path id="&lt;Path&gt;" class="shp12" d="M2127.71 2336.23L2352.88 2336.23" />
						<path id="&lt;Path&gt;" class="shp12" d="M2127.71 2389.67L2352.88 2389.67" />
					</g>
					<path id="&lt;Path&gt;" class="shp3" d="M1409.71 1986.48C1409.44 1985.35 1409.46 1984.2 1409.31 1983.06L1445.09 1968.37C1443.56 1946.39 1430.94 1917.6 1422.05 1900.75C1418.16 1893.38 1409.33 1890.18 1401.62 1893.35L1395.06 1896.04L1394.93 1896.1C1394.97 1896.26 1395 1896.41 1395.04 1896.57C1394.95 1902.17 1392.97 1907.46 1389.51 1912.18C1388.94 1912.96 1388.32 1913.73 1387.67 1914.49C1387.01 1915.24 1386.32 1915.97 1385.58 1916.69C1385.52 1916.76 1385.45 1916.83 1385.38 1916.89C1369.79 1932 1343.91 1932 1328.32 1916.89C1328.25 1916.83 1328.18 1916.76 1328.11 1916.69C1322.26 1910.95 1318.78 1904.03 1318.66 1896.57C1318.52 1897.2 1318.39 1897.84 1318.26 1898.47C1318.2 1897.84 1318.13 1897.21 1318.12 1896.57C1318.16 1896.41 1318.19 1896.26 1318.23 1896.1L1318.1 1896.04L1311.54 1893.35C1303.84 1890.18 1295.01 1893.38 1291.12 1900.75C1282.22 1917.6 1269.6 1946.39 1268.05 1968.37L1303.83 1983.05L1304.37 1983.27C1304.25 1984.34 1304.24 1985.42 1303.99 1986.48C1292.43 2034.24 1287.92 2041.83 1265.57 2171.9L1279.51 2173.31C1331.02 2178.51 1382.92 2178.51 1434.42 2173.29L1448.13 2171.9C1425.78 2041.83 1421.27 2034.24 1409.71 1986.48Z" />
				</g>
				<path id="&lt;Path&gt;" class="shp13" d="M3390.83 2963.16L3339.33 2963.16L240.66 2963.16L189.17 2963.16" />
				<path id="&lt;Compound Path&gt;" fill-rule="evenodd" class="shp0" d="M732.62 1240.44C727.47 1248.63 716.45 1250.75 708.62 1245.06L583.73 1154.25C575.89 1148.55 574.51 1137.42 580.72 1129.98L690.23 998.86C695.88 992.1 705.8 990.87 712.92 996.05L723.14 1003.48L735.73 986.16C752.68 962.85 785.43 957.67 808.74 974.62C832.05 991.57 837.23 1024.32 820.28 1047.63L807.68 1064.96L819.28 1073.39C826.4 1078.57 828.29 1088.38 823.6 1095.84L732.62 1240.44ZM728.68 1007.51L802.14 1060.93L814.73 1043.6C829.46 1023.35 824.97 994.89 804.71 980.16C784.46 965.44 756 969.93 741.28 990.19L728.68 1007.51Z" />
				<g id="&lt;Group&gt;">
					<path id="&lt;Path&gt;" class="shp8" d="M3026.36 2951.39L2562.23 2951.39C2536.4 2951.39 2515.46 2930.45 2515.46 2904.63L2515.46 2564.03L3073.12 2564.03L3073.12 2904.63C3073.12 2930.45 3052.19 2951.39 3026.36 2951.39Z" />
					<path id="&lt;Path&gt;" class="shp5" d="M3075.81 2630.82L2512.78 2630.82C2507.68 2630.82 2503.55 2626.68 2503.55 2621.58L2503.55 2562.68C2503.55 2544.06 2518.64 2528.97 2537.25 2528.97L3051.33 2528.97C3069.95 2528.97 3085.04 2544.06 3085.04 2562.68L3085.04 2621.58C3085.04 2626.68 3080.91 2630.82 3075.81 2630.82Z" />
					<path id="&lt;Path&gt;" class="shp2" d="M2993.87 2882.1L2778 2882.1C2765 2882.1 2754.45 2871.55 2754.45 2858.55L2754.45 2765.4C2754.45 2752.39 2765 2741.85 2778 2741.85L2993.87 2741.85C3006.88 2741.85 3017.42 2752.39 3017.42 2765.4L3017.42 2858.55C3017.42 2871.55 3006.88 2882.1 2993.87 2882.1Z" />
				</g>
				<g id="&lt;Group&gt;">
					<path id="&lt;Path&gt;" class="shp9" d="M1179.89 2705.83C1105.64 2737.05 1019.85 2702.04 988.63 2627.79C957.42 2553.55 992.43 2467.75 1066.68 2436.54C1140.92 2405.33 1226.72 2440.34 1257.93 2514.58C1289.14 2588.83 1254.13 2674.62 1179.89 2705.83Z" />
					<path id="&lt;Path&gt;" class="shp3" d="M1239.49 2522.33C1266.47 2586.51 1236.31 2660.41 1172.13 2687.39C1107.96 2714.37 1034.06 2684.22 1007.08 2620.04C980.1 2555.86 1010.25 2481.96 1074.43 2454.98C1138.61 2428 1212.51 2458.16 1239.49 2522.33Z" />
					<path id="&lt;Compound Path&gt;" fill-rule="evenodd" class="shp9" d="M1164.38 2643.13L1173.34 2664.45L1154.9 2672.21L1146.61 2652.49C1132.55 2657.96 1116.13 2660.11 1106.34 2658.22L1104.4 2639.88C1114.41 2641.43 1127.44 2640.78 1139.83 2636.37L1115.48 2578.44C1091.23 2578.51 1073.57 2571.54 1065.49 2552.31C1057.51 2533.33 1063.95 2512.95 1082.24 2499.36L1073.22 2477.92L1091.67 2470.17L1099.96 2489.9C1113.97 2484.51 1125.54 2483.54 1133.27 2484.45L1134.58 2502.54C1129.1 2501.98 1118.77 2501.78 1106.74 2506.01L1128.69 2558.23C1156.78 2557.81 1174.15 2564.84 1183.17 2586.29C1191.27 2605.57 1186.55 2627.66 1164.38 2643.13ZM1106.69 2557.54L1089.41 2516.42C1081.6 2524.65 1081.12 2534.57 1084.18 2541.83C1088.2 2551.41 1095.09 2555.88 1106.69 2557.54ZM1163.98 2596.2C1159.41 2585.33 1151.51 2580.1 1137.26 2578.62L1157.28 2626.25C1166.15 2617.86 1168.51 2606.99 1163.98 2596.2Z" />
				</g>
				<g id="&lt;Group&gt;">
					<path id="&lt;Path&gt;" class="shp9" d="M891.89 2620C817.65 2588.79 782.64 2502.99 813.85 2428.74C845.06 2354.5 930.86 2319.49 1005.1 2350.7C1079.35 2381.92 1114.36 2467.72 1083.14 2541.96C1051.93 2616.2 966.13 2651.21 891.89 2620Z" />
					<path id="&lt;Path&gt;" class="shp3" d="M1064.7 2534.2C1037.72 2598.38 963.82 2628.54 899.64 2601.55C835.47 2574.57 805.31 2500.68 832.29 2436.5C859.27 2372.32 933.17 2342.17 997.35 2369.15C1061.53 2396.13 1091.68 2470.03 1064.7 2534.2Z" />
					<path id="&lt;Compound Path&gt;" fill-rule="evenodd" class="shp9" d="M925.84 2565.05L916.88 2586.37L898.43 2578.62L906.72 2558.9C892.98 2552.68 879.95 2542.45 874.45 2534.13L886.2 2519.92C892.1 2528.15 901.68 2537.01 913.5 2542.78L937.86 2484.85C920.84 2467.57 913.47 2450.08 921.55 2430.85C929.53 2411.87 948.6 2402.21 971.1 2405.77L980.11 2384.33L998.56 2392.09L990.26 2411.82C1003.91 2418.06 1012.7 2425.64 1017.46 2431.81L1005.45 2445.39C1002.02 2441.09 994.93 2433.57 983.49 2427.93L961.54 2480.15C981.49 2499.92 988.62 2517.26 979.6 2538.71C971.5 2557.99 952.41 2570.06 925.84 2565.05ZM946.64 2463.95L963.93 2422.83C952.58 2423.01 945.17 2429.61 942.11 2436.87C938.09 2446.45 939.71 2454.49 946.64 2463.95ZM959.09 2531.93C963.67 2521.05 961.88 2511.76 952.96 2500.54L932.94 2548.17C945.14 2548.63 954.56 2542.72 959.09 2531.93Z" />
				</g>
				<path id="&lt;Compound Path&gt;" fill-rule="evenodd" class="shp10" d="M1360.39 2351.22L1309.34 2500.08C1309.28 2500.26 1309.22 2500.45 1309.15 2500.64L1233.15 2722.19C1227.53 2738.6 1212.09 2749.62 1194.74 2749.62L1193.82 2749.62L1202.36 2871.93C1203.07 2882.25 1199.44 2892.51 1192.38 2900.07C1189.01 2903.69 1184.93 2906.52 1180.5 2908.54C1181.2 2911.31 1181.68 2914.17 1181.68 2917.16C1181.68 2936.71 1165.83 2952.55 1146.28 2952.55C1126.74 2952.55 1110.89 2936.71 1110.89 2917.16C1110.89 2915.38 1111.16 2913.68 1111.41 2911.97L944.72 2911.97C944.98 2913.68 945.25 2915.38 945.25 2917.16C945.25 2936.71 929.4 2952.55 909.85 2952.55C890.3 2952.55 874.46 2936.71 874.46 2917.16C874.46 2915.38 874.73 2913.68 874.98 2911.97L864.55 2911.97C858.29 2911.97 853.22 2906.91 853.22 2900.65C853.22 2894.39 858.29 2889.32 864.55 2889.32L888.23 2889.32C894.23 2884.66 901.67 2881.77 909.85 2881.77C918.04 2881.77 925.48 2884.66 931.47 2889.32L1124.67 2889.32C1130.66 2884.66 1138.1 2881.77 1146.28 2881.77C1154.2 2881.77 1161.43 2884.45 1167.33 2888.84C1170.54 2888.33 1173.54 2887.06 1175.82 2884.62C1178.65 2881.59 1180.05 2877.64 1179.76 2873.5L1171.11 2749.62L863.09 2749.62C843.03 2749.62 826.16 2735.25 822.99 2715.44L793.67 2532.38C791.79 2520.63 795.14 2508.68 802.87 2499.62C810.59 2490.55 821.86 2485.35 833.77 2485.35L1290.44 2485.35L1338.97 2343.88C1340.99 2337.96 1347.43 2334.84 1353.35 2336.83C1359.27 2338.87 1362.42 2345.3 1360.39 2351.22ZM1282.67 2508.01L1201.33 2508.01L1188.53 2548.96L1268.62 2548.96L1282.67 2508.01ZM1260.86 2571.62L1181.45 2571.62L1151.95 2666.03L1228.47 2666.03L1260.86 2571.62ZM1109.17 2726.97L1121.14 2688.68L1041.01 2688.68L1041.01 2726.97L1109.17 2726.97ZM838.01 2666.03L910.33 2666.03L896.31 2571.62L822.89 2571.62L838.01 2666.03ZM933.23 2666.03L1018.36 2666.03L1018.36 2571.62L919.21 2571.62L933.23 2666.03ZM1018.36 2508.01L909.77 2508.01L915.85 2548.96L1018.36 2548.96L1018.36 2508.01ZM1041.01 2548.96L1164.8 2548.96L1177.6 2508.01L1041.01 2508.01L1041.01 2548.96ZM936.59 2688.68L942.27 2726.97L1018.36 2726.97L1018.36 2688.68L936.59 2688.68ZM1128.22 2666.03L1157.72 2571.62L1041.01 2571.62L1041.01 2666.03L1128.22 2666.03ZM816.04 2528.8L819.27 2548.96L892.95 2548.96L886.87 2508.01L833.77 2508.01C828.51 2508.01 823.52 2510.31 820.11 2514.31C816.69 2518.33 815.21 2523.6 816.04 2528.8ZM863.09 2726.97L919.37 2726.97L913.69 2688.68L841.64 2688.68L845.35 2711.85C846.76 2720.61 854.22 2726.97 863.09 2726.97ZM1211.73 2714.85L1220.7 2688.68L1144.87 2688.68L1132.9 2726.97L1194.74 2726.97C1202.42 2726.97 1209.24 2722.09 1211.73 2714.85Z" />
				<g id="&lt;Group&gt;">
					<path id="&lt;Path&gt;" class="shp0" d="M1256.83 277.37L1213.79 299.18C1187.47 312.53 1155.31 302 1141.97 275.68L1113.19 218.92C1108.88 210.41 1112.28 200.01 1120.79 195.7L1222.76 144.01C1244.79 132.84 1271.54 144.54 1278.29 168.3L1288.63 204.67C1296.79 233.39 1283.46 263.87 1256.83 277.37Z" />
					<path id="&lt;Path&gt;" class="shp0" d="M1138.22 128.15L1103.67 145.66C1102.37 146.32 1101.86 147.9 1102.51 149.2L1128.41 200.28L1167.65 180.38L1141.75 129.31C1141.1 128.01 1139.51 127.49 1138.22 128.15Z" />
					<path id="&lt;Path&gt;" class="shp0" d="M1148.89 326.91L1099.04 352.17C1096.57 353.43 1093.54 352.44 1092.29 349.96L1030.95 228.95C1029.69 226.47 1030.68 223.45 1033.16 222.19L1083 196.92C1084.27 196.28 1085.82 196.79 1086.46 198.06L1150.02 323.45C1150.66 324.72 1150.16 326.26 1148.89 326.91Z" />
				</g>
				<path id="&lt;Compound Path&gt;" fill-rule="evenodd" class="shp0" d="M3449.79 2317.18C3446.97 2317.49 3444.72 2319.7 3444.28 2322.5L3441.44 2340.23C3440.89 2343.71 3437.61 2346.09 3434.13 2345.53L3421.67 2343.54C3418.19 2342.98 3415.82 2339.71 3416.38 2336.23L3418.7 2321.71C3419.22 2318.42 3417.13 2315.28 3413.89 2314.5C3399.56 2311.04 3385.66 2304.9 3376.69 2298.4C3374.15 2296.56 3373.26 2293.2 3374.62 2290.38L3379.19 2280.96C3380.9 2277.43 3385.37 2276.23 3388.56 2278.5C3396.18 2283.91 3405.67 2288.82 3416.16 2292.01C3419.84 2293.12 3423.66 2290.66 3424.26 2286.87L3435.07 2219.23C3435.47 2216.72 3434.32 2214.24 3432.19 2212.85C3408.27 2197.13 3395.39 2178.38 3399.37 2153.46C3403.28 2129.02 3421.96 2111.9 3448.41 2108.14C3451.12 2107.75 3453.22 2105.56 3453.66 2102.86L3456.54 2084.8C3457.1 2081.32 3460.37 2078.95 3463.85 2079.5L3476.31 2081.49C3479.79 2082.05 3482.16 2085.32 3481.61 2088.81L3479.28 2103.36C3478.76 2106.63 3480.85 2109.78 3484.07 2110.55C3496.5 2113.53 3506.12 2117.89 3513.02 2122.31C3515.84 2124.12 3516.83 2127.74 3515.27 2130.7L3510.52 2139.73C3508.79 2143.01 3504.65 2144.17 3501.52 2142.18C3496.67 2139.11 3490.07 2135.66 3481.84 2133.09C3478.16 2131.94 3474.32 2134.41 3473.72 2138.21L3464.17 2197.99C3463.76 2200.53 3464.95 2203.04 3467.13 2204.42C3495.14 2222.12 3507.86 2240.94 3503.39 2268.92C3499.4 2293.89 3481.14 2313.79 3449.79 2317.18ZM3430.8 2176.47C3433.95 2181.26 3441.42 2179.45 3442.32 2173.8L3447.27 2142.84C3448.19 2137.1 3441.54 2133.17 3437 2136.8C3430.93 2141.65 3427.55 2148.27 3426.53 2154.69C3425.18 2163.12 3426.56 2170.04 3430.8 2176.47ZM3459.92 2290.56C3468.71 2285.65 3474.37 2277.39 3476.07 2266.73C3477.82 2255.81 3475.55 2247 3468.45 2238.65C3464.88 2234.45 3458.06 2236.24 3457.19 2241.68L3450.43 2283.99C3449.58 2289.28 3455.23 2293.17 3459.92 2290.56Z" />
				<path id="&lt;Compound Path&gt;" fill-rule="evenodd" class="shp0" d="M3196.73 1321.38L3205.01 1449.37C3205.81 1461.71 3197.62 1472.64 3185.55 1475.36L3024.35 1511.6C3012.28 1514.31 3000.2 1507.94 2995.64 1496.44L2948.33 1377.22C2944.67 1367.99 2945.23 1357.66 2949.87 1348.88C2954.51 1340.1 2962.72 1333.81 2972.41 1331.64L2978.81 1330.2L2975.13 1313.85C2967.96 1281.97 2988.07 1250.21 3019.94 1243.05L3074.59 1230.76C3106.47 1223.59 3138.23 1243.69 3145.39 1275.57L3149.07 1291.92L3155.46 1290.48C3165.15 1288.3 3175.27 1290.47 3183.22 1296.42C3191.17 1302.37 3196.09 1311.46 3196.73 1321.38ZM3152.07 1305.27L3147.99 1306.18L3150.45 1336.16L3183.5 1328.72L3183.08 1322.26C3182.7 1316.35 3179.76 1310.92 3175.02 1307.37C3170.28 1303.82 3164.24 1302.53 3158.47 1303.83L3152.07 1305.27ZM3141.46 1338.18L3139.01 1308.2L3071.39 1323.41L3077.92 1352.46L3141.46 1338.18ZM3079.92 1361.36L3088.14 1397.93L3145.3 1385.08L3142.21 1347.36L3079.92 1361.36ZM3062.49 1325.41L2992.95 1341.04L3003.56 1369.18L3069.02 1354.46L3062.49 1325.41ZM3006.81 1377.8L3020.16 1413.21L3079.24 1399.93L3071.02 1363.36L3006.81 1377.8ZM2997.82 1379.82L2966.84 1386.78L2980.84 1422.06L3011.18 1415.23L2997.82 1379.82ZM2998.24 1465.91L3027.78 1459.27L3014.43 1423.85L2984.25 1430.64L2998.24 1465.91ZM3036.77 1457.25L3089.47 1445.4L3081.24 1408.83L3023.41 1421.83L3036.77 1457.25ZM3040.02 1465.87L3049.82 1491.85L3097.5 1481.13L3091.47 1454.3L3040.02 1465.87ZM3106.4 1479.13L3152.16 1468.84L3149.89 1441.17L3100.37 1452.3L3106.4 1479.13ZM3149.14 1431.99L3146.05 1394.26L3090.14 1406.83L3098.37 1443.4L3149.14 1431.99ZM3158.13 1429.97L3189.59 1422.89L3187.14 1385.02L3155.04 1392.24L3158.13 1429.97ZM3186.54 1375.81L3184.09 1337.94L3151.2 1345.34L3154.29 1383.06L3186.54 1375.81ZM2992.15 1327.2L3135.72 1294.92L3132.05 1278.57C3126.53 1254.06 3102.11 1238.6 3077.59 1244.11L3022.94 1256.4C2998.43 1261.91 2982.97 1286.33 2988.48 1310.85L2992.15 1327.2ZM2961.05 1372.18L2963.44 1378.2L2994.57 1371.2L2983.96 1343.06L2981.81 1343.55L2975.41 1344.98C2969.63 1346.28 2964.73 1350.03 2961.97 1355.27C2959.2 1360.51 2958.87 1366.67 2961.05 1372.18ZM3021.35 1498.25L3040.83 1493.87L3031.03 1467.89L3001.65 1474.49L3008.35 1491.39C3010.42 1496.59 3015.89 1499.48 3021.35 1498.25ZM3191.36 1450.24L3190.18 1432.11L3158.88 1439.14L3161.15 1466.82L3182.55 1462.01C3188.01 1460.78 3191.72 1455.83 3191.36 1450.24Z" />
				<path id="&lt;Path&gt;" class="shp6" d="M2208.78 359.09C2199.69 337.77 2177.32 324.5 2154.26 326.75C2137.3 328.4 2123.48 337.33 2114.85 349.77L2114.69 349.67L2114.6 349.83C2101.06 343.06 2084.66 341.84 2068.99 348.52C2047.67 357.6 2034.39 379.96 2036.63 403.03C2038.28 419.99 2047.21 433.81 2059.65 442.45L2059.56 442.61L2118.54 477.6C2137.29 488.72 2161.51 482.54 2172.63 463.79L2207.62 404.8L2207.46 404.71C2214.24 391.17 2215.46 374.76 2208.78 359.09Z" />
				<path id="&lt;Path&gt;" class="shp6" d="M1680.22 237.66C1680.22 258.06 1663.68 274.6 1643.28 274.6C1622.88 274.6 1606.34 258.06 1606.34 237.66C1606.34 217.26 1622.88 200.72 1643.28 200.72C1663.68 200.72 1680.22 217.26 1680.22 237.66Z" />
				<path id="&lt;Path&gt;" class="shp6" d="M2703.29 1236.28C2703.29 1250.06 2692.12 1261.23 2678.34 1261.23C2664.55 1261.23 2653.38 1250.06 2653.38 1236.28C2653.38 1222.49 2664.55 1211.32 2678.34 1211.32C2692.12 1211.32 2703.29 1222.49 2703.29 1236.28Z" />
				<path id="&lt;Path&gt;" class="shp6" d="M3612.62 2118.28C3612.62 2138.68 3596.08 2155.22 3575.68 2155.22C3555.28 2155.22 3538.74 2138.68 3538.74 2118.28C3538.74 2097.88 3555.28 2081.34 3575.68 2081.34C3596.08 2081.34 3612.62 2097.88 3612.62 2118.28Z" />
				<path id="&lt;Path&gt;" class="shp0" d="M484.4 1742.41C484.4 1762.81 467.86 1779.35 447.46 1779.35C427.06 1779.35 410.52 1762.81 410.52 1742.41C410.52 1722.01 427.06 1705.47 447.46 1705.47C467.86 1705.47 484.4 1722.01 484.4 1742.41Z" />
				<path id="&lt;Path&gt;" class="shp6" d="M410.52 2391.4C410.52 2421.87 385.82 2446.57 355.35 2446.57C324.88 2446.57 300.18 2421.87 300.18 2391.4C300.18 2360.93 324.88 2336.23 355.35 2336.23C385.82 2336.23 410.52 2360.93 410.52 2391.4Z" />
				<g id="&lt;Group&gt;">
					<path id="&lt;Path&gt;" class="shp0" d="M2612.79 2952.08L2394.3 2952.08C2380.59 2952.08 2369.75 2940.48 2370.67 2926.81L2386.88 2685.63C2387.72 2673.19 2398.05 2663.53 2410.51 2663.53L2596.58 2663.53C2609.04 2663.53 2619.37 2673.19 2620.21 2685.63L2636.42 2926.81C2637.34 2940.48 2626.5 2952.08 2612.79 2952.08Z" />
					<path id="&lt;Path&gt;" class="shp10" d="M2576.28 2708.13L2576.28 2633.22C2576.28 2592.44 2543.11 2559.27 2502.34 2559.27C2461.56 2559.27 2428.38 2592.44 2428.38 2633.22L2428.38 2708.13C2423.53 2710.06 2420.09 2714.77 2420.09 2720.31C2420.09 2727.57 2425.97 2733.45 2433.23 2733.45C2440.48 2733.45 2446.36 2727.57 2446.36 2720.31C2446.36 2714.77 2442.93 2710.06 2438.08 2708.13L2438.08 2633.22C2438.08 2597.79 2466.9 2568.96 2502.34 2568.96C2537.76 2568.96 2566.59 2597.79 2566.59 2633.22L2566.59 2708.13C2561.74 2710.06 2558.3 2714.77 2558.3 2720.31C2558.3 2727.57 2564.18 2733.45 2571.44 2733.45C2578.69 2733.45 2584.57 2727.57 2584.57 2720.31C2584.57 2714.77 2581.13 2710.06 2576.28 2708.13Z" />
				</g>
			</g>
		</g>
	</g>
</svg>