<svg width="1175" height="2248" viewBox="0 0 1175 2248" fill="none" xmlns="http://www.w3.org/2000/svg">
<g clip-path="url(#clip0)">
<path d="M-38 527H1001V2748H-38V527Z" fill="url(#paint0_linear)"/>
<rect x="139" y="1783" width="120" height="120" rx="19" fill="white" fill-opacity="0.5"/>
<rect x="695" y="1830" width="120" height="120" rx="19" fill="white" fill-opacity="0.5"/>
<rect x="637" y="1427" width="120" height="120" rx="19" fill="white" fill-opacity="0.5"/>
<rect x="103" y="2083" width="120" height="120" rx="19" fill="white" fill-opacity="0.5"/>
<rect x="-38" y="1285" width="120" height="120" rx="19" fill="white" fill-opacity="0.5"/>
<path d="M-2 546C-2 535.507 6.50659 527 17 527H99C109.493 527 118 535.507 118 546V628C118 638.493 109.493 647 99 647H17C6.50659 647 -2 638.493 -2 628V546Z" fill="url(#paint1_linear)"/>
<rect x="598" y="527" width="120" height="120" rx="19" fill="url(#paint2_linear)"/>
<rect x="358" y="527" width="120" height="120" rx="19" fill="url(#paint3_linear)"/>
<rect x="238" y="648" width="120" height="120" rx="19" fill="url(#paint4_linear)"/>
<rect x="358" y="407" width="120" height="120" rx="19" fill="url(#paint5_linear)"/>
<rect x="238" y="289" width="120" height="120" rx="19" fill="url(#paint6_linear)"/>
<path d="M718 426C718 415.507 726.507 407 737 407H819C829.493 407 838 415.507 838 426V508C838 518.493 829.493 527 819 527H737C726.507 527 718 518.493 718 508V426Z" fill="url(#paint7_linear)"/>
<path d="M118 426C118 415.507 126.507 407 137 407H219C229.493 407 238 415.507 238 426V508C238 518.493 229.493 527 219 527H137C126.507 527 118 518.493 118 508V426Z" fill="url(#paint8_linear)"/>
</g>
<defs>
<linearGradient id="paint0_linear" x1="481.5" y1="275.577" x2="481.5" y2="2496.58" gradientUnits="userSpaceOnUse">
<stop stop-color="#8000E4" stop-opacity="0.76"/>
<stop offset="0.645833" stop-color="#FF11D9" stop-opacity="0.62"/>
<stop offset="1" stop-color="#C4C4C4" stop-opacity="0"/>
</linearGradient>
<linearGradient id="paint1_linear" x1="71" y1="527" x2="71" y2="647" gradientUnits="userSpaceOnUse">
<stop stop-color="#FFC671"/>
<stop offset="1" stop-color="#F161E3" stop-opacity="0.68"/>
</linearGradient>
<linearGradient id="paint2_linear" x1="658" y1="527" x2="658" y2="647" gradientUnits="userSpaceOnUse">
<stop stop-color="#FFC671"/>
<stop offset="1" stop-color="#F161E3" stop-opacity="0.68"/>
</linearGradient>
<linearGradient id="paint3_linear" x1="418" y1="527" x2="418" y2="647" gradientUnits="userSpaceOnUse">
<stop stop-color="#FFC671"/>
<stop offset="1" stop-color="#F161E3" stop-opacity="0.68"/>
</linearGradient>
<linearGradient id="paint4_linear" x1="298" y1="648" x2="298" y2="768" gradientUnits="userSpaceOnUse">
<stop stop-color="#FFC671"/>
<stop offset="1" stop-color="#F161E3" stop-opacity="0.68"/>
</linearGradient>
<linearGradient id="paint5_linear" x1="418" y1="407" x2="418" y2="527" gradientUnits="userSpaceOnUse">
<stop stop-color="#BC5FED"/>
<stop offset="1" stop-color="#E75FE8"/>
</linearGradient>
<linearGradient id="paint6_linear" x1="298" y1="289" x2="298" y2="409" gradientUnits="userSpaceOnUse">
<stop stop-color="#BC5FED"/>
<stop offset="1" stop-color="#E75FE8"/>
</linearGradient>
<linearGradient id="paint7_linear" x1="658" y1="407" x2="658" y2="527" gradientUnits="userSpaceOnUse">
<stop stop-color="#BC5FED"/>
<stop offset="1" stop-color="#E75FE8"/>
</linearGradient>
<linearGradient id="paint8_linear" x1="539.5" y1="290.5" x2="539.5" y2="410.5" gradientUnits="userSpaceOnUse">
<stop stop-color="#BC5FED"/>
<stop offset="1" stop-color="#E75FE8"/>
</linearGradient>
<clipPath id="clip0">
<rect width="1349" height="2248" fill="white" transform="translate(-174)"/>
</clipPath>
</defs>
</svg>
